<svg xmlns="http://www.w3.org/2000/svg">
<defs>
<font id="UTMImpact" horiz-adv-x="1047" >
  <font-face 
    font-family="UTM Impact"
    font-weight="400"
    font-stretch="normal"
    units-per-em="2048"
    panose-1="2 4 6 3 5 5 6 2 2 4"
    ascent="1638"
    descent="-410"
    x-height="1327"
    cap-height="1619"
    bbox="-40 -456 4942 2278"
    underline-thickness="109"
    underline-position="-143"
    unicode-range="U+0020-U+2026"
  />
<missing-glyph horiz-adv-x="5040" 
d="M3351 2045h10c24.667 -6.66699 37 -24 37 -52c0 -8 -10.667 -27 -32 -57h-28c0 16 9.33301 34 28 54l2 10c-3.33301 8.66699 -6.66602 13.667 -10 15h-9c-5.33301 0 -8.66602 -6.33301 -10 -19h-30c4 32.667 18 49 42 49zM2019 2016l29.001 -31
c0 -10.667 -13.333 -20.667 -40 -30h-19l-59 12l-11 -12l-28 25c7.33301 19.333 21.666 29 42.999 29h11l42 -11h2c6.66699 0 16.667 6 30 18zM468.001 1980h142v-60h-94v-75h89v-59h-89v-129l-5 -5h-49v323zM1155 1980h43l6 -5v-78h30v-52h-30v-188l-6 -5h-49v193h-25v52
h25v78zM1621 1980h41.999l4 -5v-94h3c15.333 16 33.333 24 54 24h2c38.667 0 66.334 -23.667 83.001 -71l2 -39v-143h-52v115c0 53.333 -14 80 -42 80h-7c-28.667 0 -43 -28.667 -43 -86v-109h-51v323zM2200 1980l49 -0.000976562l5 -5v-222c6.66699 -34 21.667 -51 45 -51
c29.333 4.66699 44 24.334 44 59.001v214l5 5h49v-216c0 -56.667 -22 -94 -66 -112c-10 -5.33301 -21.667 -8 -35 -8c-31.333 0 -58.666 18.333 -82 55c-9.33301 16 -14 35 -14 57v224zM2435 1980h159v-60h-56v-268h-53v268h-55v55zM2621 1980l71 0.000976562
c4.66699 -2.66699 32.334 -86.334 83 -251.001h2l80 251h73v-328h-54v242h-2l-74 -242h-44c-2.66699 0 -22 60.667 -58 182l-19 60h-3v-242h-55v328zM3760 1980l52 -0.000976562v-328h-45l-5 5v11l3 2l-3 14c-19.333 -26.667 -45.333 -40 -78 -40
c-44.667 0 -78 30.333 -100 91l-5 39v3c0 62.667 30.667 104.334 92 125.001l23 3c23.333 0 44.333 -10.667 63 -32h3v107zM2057 1928l36 0.00195312l4 -6v-49h-45v-221h-48v23c-15.333 -20.667 -35 -31 -59 -31c-59.333 9.33301 -89 41.666 -89 96.999v156h51v-104

<glyph glyph-name=".notdef" horiz-adv-x="5040" 
d="M3351 2045h10c24.667 -6.66699 37 -24 37 -52c0 -8 -10.667 -27 -32 -57h-28c0 16 9.33301 34 28 54l2 10c-3.33301 8.66699 -6.66602 13.667 -10 15h-9c-5.33301 0 -8.66602 -6.33301 -10 -19h-30c4 32.667 18 49 42 49zM2019 2016l29.001 -31
c0 -10.667 -13.333 -20.667 -40 -30h-19l-59 12l-11 -12l-28 25c7.33301 19.333 21.666 29 42.999 29h11l42 -11h2c6.66699 0 16.667 6 30 18zM468.001 1980h142v-60h-94v-75h89v-59h-89v-129l-5 -5h-49v323zM1155 1980h43l6 -5v-78h30v-52h-30v-188l-6 -5h-49v193h-25v52
h25v78zM1621 1980h41.999l4 -5v-94h3c15.333 16 33.333 24 54 24h2c38.667 0 66.334 -23.667 83.001 -71l2 -39v-143h-52v115c0 53.333 -14 80 -42 80h-7c-28.667 0 -43 -28.667 -43 -86v-109h-51v323zM2200 1980l49 -0.000976562l5 -5v-222c6.66699 -34 21.667 -51 45 -51
c29.333 4.66699 44 24.334 44 59.001v214l5 5h49v-216c0 -56.667 -22 -94 -66 -112c-10 -5.33301 -21.667 -8 -35 -8c-31.333 0 -58.666 18.333 -82 55c-9.33301 16 -14 35 -14 57v224zM2435 1980h159v-60h-56v-268h-53v268h-55v55zM2621 1980l71 0.000976562
c4.66699 -2.66699 32.334 -86.334 83 -251.001h2l80 251h73v-328h-54v242h-2l-74 -242h-44c-2.66699 0 -22 60.667 -58 182l-19 60h-3v-242h-55v328zM3760 1980l52 -0.000976562v-328h-45l-5 5v11l3 2l-3 14c-19.333 -26.667 -45.333 -40 -78 -40
c-44.667 0 -78 30.333 -100 91l-5 39v3c0 62.667 30.667 104.334 92 125.001l23 3c23.333 0 44.333 -10.667 63 -32h3v107zM2057 1928l36 0.00195312l4 -6v-49h-45v-221h-48v23c-15.333 -20.667 -35 -31 -59 -31c-59.333 9.33301 -89 41.666 -89 96.999v156h51v-104
c0 -52.667 8.66699 -81.334 26 -86.001l18 -5h6c17.333 0 30.333 12 39 36l3 26v133h53v25zM3476 1928v-55h-31v-221h-47v25h-2c-10 -22 -29 -33 -57 -33c-45.333 0 -74 26 -86 78l-3 29v146h52v-120c0 -33.333 6.33301 -56 19 -68l21 -7h9c28 0 42 23 42 69v126h27
c2.66699 0 4 9.33301 4 28l3 3h49zM758 1905c45.333 0 79.667 -25.667 103 -77c6 -12 10 -30 12 -54c0 -58.667 -30 -101 -90 -127l-32 -3c-42 0 -75.667 24.333 -101 73c-8 14.667 -12 32 -12 52v10c0 62.667 33.667 104.667 101 126h19zM1011 1905h3
c49.333 0 77 -33.667 83 -101v-152h-51v119c0 50.667 -14 76 -42 76h-5c-29.333 0 -44 -25.333 -44 -76v-119h-52v245h46v-21c20 19.333 40.667 29 62 29zM1466 1905l7 -0.000976562c48 0 83 -29.667 105 -89h-60c-10.667 20.667 -24.667 31 -42 31h-17
c-35.333 -9.33301 -53 -29.666 -53 -60.999l-3 -15c8 -46 28.333 -69 61 -69h9c14.667 0 30.334 9 47.001 27h40l2 3h3l2 -3l2 3l3 -3l2 3l2 -7c-22 -54 -58.667 -81 -110 -81c-50.667 0 -87.334 31.333 -110.001 94l-4 36v3c0 56.667 25.667 96.667 77 120
c10 5.33301 22.333 8 37 8zM3141 1905h1.99902c32.667 0 56 -20 70 -60v-14h-52c0 10.667 -5.33301 16 -16 16h-4c-9.33301 0 -15.666 -4.33301 -18.999 -13v-13c0 -6 22.667 -17.667 68 -35c20 -12.667 30 -32.334 30 -59.001c0 -38.667 -20.333 -65.334 -61 -80.001
l-23 -3c-50.667 8 -76 35.667 -76 83h54c0 -13.333 9 -21.666 27 -24.999h4c12.667 0 20.667 7.66699 24 23c0 14.667 -22.667 29.334 -68 44.001c-22.667 18 -34 37.667 -34 59c0 44 24.667 69.667 74 77zM4203 1905c36.666 0 62.333 -21 77 -63
c4.66602 -12 7 -33.667 7 -65v-125h-52v112c0 55.333 -13.334 83 -40 83h-11c-22 0 -35.334 -18 -40 -54v-141h-52v5h-2l2 2v238h47v-21c16.666 19.333 38 29 64 29zM4432 1905h5c26.666 0 49.666 -13.333 69 -40v18l-3 3l3 11h47v-208c0 -64.667 -28.334 -108.667 -85 -132
l-33 -4h-7c-46.666 0 -81.333 26.667 -104 80h59c16 -14.667 31 -22.334 45 -23.001h13c14.666 0 29 7.33301 43 22c10 8.66699 17.334 26 22 52h-3c-21.334 -26.667 -45.667 -40 -73 -40c-38 0 -70 23.333 -96 70c-6.66602 12 -11.333 33 -14 63
c0 58.667 29 100.334 87 125.001zM3851 1897l53 -0.000976562v-136c4 -39.333 17.333 -59 40 -59h7c30.667 0 46 31 46 93v102h51v-245h-47l-3 10h3l-3 3v5l3 2v3h-4c0 -15.333 -19 -25.666 -57 -30.999h-3c-39.333 0 -67.333 25 -84 75l-2 85v93zM690 1771
c6.66699 -46 27.6689 -69 63.002 -69h7c39.333 9.33301 59 31 59 65v15c-8.66699 43.333 -28.334 65 -59.001 65h-5c-38.667 0 -60.334 -25.333 -65.001 -76zM3630 1774c8.66699 -48 29 -72 61 -72h5c38.667 0 60.667 25 66 75c0 32.667 -17 56 -51 70h-22
c-24.667 0 -43.334 -19 -56 -57zM4374 1774c5.33398 -48 27 -71.999 65 -71.999h5c39.334 8 59 32 59 72c0 40.667 -19.666 65 -59 73h-14c-37.334 -10.667 -56 -31.334 -56 -62.001v-11zM3928 1620h52v-57h-52v57zM1054 1402c28.667 -7.33301 43 -23.667 43 -49v-4
c0 -11.333 -10.667 -31.333 -32 -60h-28c0 16.667 10.333 35.667 31 57v7c0 8 -2.33301 13 -7 15h-12c-6.66699 -2.66699 -10 -9 -10 -19h-28v6c0 21.333 11 36 33 44zM3349 1339c61.333 0 107.333 -33.001 138 -99.001h-60c-24.667 28 -51.334 42 -80 42
c-36.667 0 -65.667 -22.667 -87 -68c-6.66699 -14.667 -10 -30.334 -10 -47.001c0 -52 27 -88.667 81 -110l18 -1c24 0 49 13 75 39h61c-29.333 -64.667 -75.333 -97 -138 -97c-62 0 -109 37.333 -141 112c-6.66699 20.667 -10 41.334 -10 62.001
c0 64.667 30 115.334 90 152.001c19.333 10 40.333 15 63 15zM3664 1339c38 0 72.333 -15.666 103 -46.999c30.667 -34 46 -72.333 46 -115v-20c0 -59.333 -30.333 -108 -91 -146c-22 -8.66699 -43 -13 -63 -13c-59.333 0 -105.333 33.667 -138 101
c-8.66699 22 -13 42 -13 60v18c0 65.333 32.667 115.666 98 150.999c19.333 7.33301 38.666 11 58 11zM2261 1337h2l47 -11h3c7.33301 0 16 3.66699 26 11l18 -36c-12 -12.667 -23.667 -19 -35 -19h-3l-54 10l-20 -7l-20 36c12 10.667 24 16 36 16zM716.002 1334h19
c78.667 0 121.667 -8.66699 129 -26c16.667 -17.333 25 -38 25 -62c-6.66699 -38 -16.667 -57 -30 -57v-6c31.333 -15.333 47 -37.333 47 -66v-18c0 -42 -23 -71.333 -69 -88l-54 -5h-67v328zM2550 1334h53v-217c4 -40.667 19 -61 45 -61c19.333 0 34 13 44 39l3 30v203l4 6
h45l5 -6v-171c0 -78.667 -13.333 -123 -40 -133c-16 -17.333 -37.333 -26 -64 -26c-36.667 0 -67 25.333 -91 76l-4 54v206zM2805 1334h59c2.66699 0 43.334 -79 122 -237h4v237h50l4 -6v-322h-58c-19.333 32 -61 111.333 -125 238h-3v-238h-53v328zM3101 1334h54v-328h-54
v328zM3859 1334l8 0.000976562c103.333 0 161.333 -13.333 174 -40c15.333 -7.33301 31 -32.333 47 -75l4 -36v-11l3 -2c0 -62.667 -27.333 -112.334 -82 -149.001c-23.333 -10 -56.333 -15 -99 -15h-55v328zM4141 1334h153v-60h-103v-75h101v-57h-101v-74l4 -5h99v-57h-157
v322zM3563 1175v-10c0 -50.667 26.333 -86.667 79 -108l19 -1c45.333 0 77.333 28.667 96 86l3 20v15c0 40.667 -20 72 -60 94c-8 5.33301 -21 9 -39 11c-44 0 -76 -27.667 -96 -83zM770.002 1274v-67h9c36 0 54 9.33301 54 28l3 14c-7.33301 16.667 -17 25 -29 25h-37z
M3912 1274v-206.001l2 -3v-2c69.333 0 110 25.333 122 76l2 15v29c0 22.667 -10.667 45.334 -32 68.001c-16.667 15.333 -42.667 23 -78 23h-16zM1041 1259h5c25.333 0 49 -13.333 71 -40v32h49v-245h-49v32c-24 -26.667 -50.667 -40 -80 -40c-50 0 -83.667 32.333 -101 97
l-5 36c0 59.333 28.333 101 85 125zM1314 1259h3c49.333 0 77 -34 83 -102v-151h-51v128c0 44.667 -14 67 -42 67h-10c-22.667 0 -35.667 -20.667 -39 -62v-133h-52v245h47v-21c18.667 19.333 39 29 61 29zM1543 1259h5c30 0 53.667 -13.333 71 -40v32h47v-219
c0 -63.333 -34.667 -105.333 -104 -126h-16c-49.333 0 -85.333 27.333 -108 82h59c17.333 -16.667 32 -25 44 -25h14c34.667 0 56 25.667 64 77c-22 -28 -47.333 -42 -76 -42c-40 0 -73.667 27 -101 81l-7 44v16c0 52.667 28.333 91.667 85 117zM1912 1259l2 0.000976562
c28.667 0 49 -12.333 61 -37h2c21.333 24.667 44.333 37 69 37h4c38 0 64.333 -18.333 79 -55c5.33301 -16.667 8 -31.667 8 -45v-153h-52v138c0 29.333 -7.66699 47.666 -23 54.999l-12 2h-15c-21.333 0 -33.333 -21.667 -36 -65v-130h-52v136c0 39.333 -14.333 59 -43 59
h-8c-21.333 0 -33.333 -19 -36 -57v-138h-54v245h50v-21h2c4 16 22 25.667 54 29zM2282 1259c31.333 0 56.333 -14 75 -42v34h47v-245h-47v32c-24 -26.667 -50 -40 -78 -40c-49.333 0 -83.333 30.667 -102 92l-6 41c0 60 28.333 101.667 85 125zM985.002 1117
c0 -32 20.333 -52.333 61 -61h4c30 0 50.667 15.333 62 46l3 15v22c-8 41.333 -27 62 -57 62h-14c-27.333 0 -47 -19 -59 -57v-27zM1487 1128c0 -32 14.332 -54.667 42.999 -68l18 -4h5c31.333 0 52.333 19 63 57v23c-7.33301 43.333 -26.666 65 -57.999 65h-12
c-33.333 0 -53 -24.333 -59 -73zM2225 1131v-14.001c10 -40.667 29 -61 57 -61h14c38.667 8 58 29.333 58 64v11c0 30 -12.333 51.667 -37 65l-18 5h-10c-42.667 -5.33301 -64 -28.666 -64 -69.999zM770.001 1150v-82c0 -3.33301 2.33301 -5 7 -5c51.333 0 77 15 77 45
c0 22.667 -15.667 36.667 -47 42h-37zM2966 752.999l24 -28l-51 -55c-12 8 -21 16.667 -27 26zM1524 726.999l85 -54c0 -10 -7 -24 -21 -42l-87 54c12 27.333 19.667 41.333 23 42zM2850 692.999h38l55 -60h-54l-21 26l-23 -26h-54c36 40 55.667 60 59 60zM3422 692.999h40
l56 -60h-54l-24 26h-1c0 -3.33301 -6.33301 -12 -19 -26h-54zM622.001 684.999l52 0.00195312c5.33301 -2.66699 21 -48.334 47 -137.001l34 -110c6 5.33301 17.333 38.666 34 99.999l48 147h54v-2l-112 -326h-44zM1159 685.001h51v-54h-51v54zM1354 685.001h46l6 -5v-323
h-52v328zM2317 685.001h45l4 -5v-78h31v-52h-31v-193h-53v193h-26v52h26v78zM2425 685.001h52v-98h2c15.333 15.333 33.333 23 54 23h3c38 0 65 -23.667 81 -71l3 -38v-144h-52v115c0 54 -13 81 -39 81h-10c-28 0 -42 -29 -42 -87v-109h-52v328zM2664 685.001h52v-54h-52v54
zM3028 685.001h44l6 -5v-78h29v-52h-29v-193h-54v193h-27v52h27v78zM3234 685.001h52v-328h-52v328zM3957 685.001h52v-328h-52v328zM4316 685.001h51v-54h-51v54zM1555 610.001h5c55.333 0 92 -34 110 -102l3 -23v-11c0 -55.333 -28.333 -95.333 -85 -120l-35 -5
c-50.667 0 -87.667 32.333 -111 97l-4 32c0 64.667 31 108 93 130zM1811 610.001h4c35.333 0 61.333 -20 78 -60c4.66699 -16.667 7 -43.667 7 -81v-112h-54v146c-4.66699 33.333 -17 50 -37 50h-10c-25.333 0 -39.333 -19 -42 -57v-139h-54v245h49v-21
c17.333 19.333 37 29 59 29zM2046 610.001h4.00098c30 0 51 -13 63 -39h3v31h49v-206c0 -68 -29.667 -113 -89 -135l-28 -3h-5c-48.667 0 -84 27 -106 81h52l37 -20l15 -3h14c33.333 0 53.666 24 60.999 72c-22 -26 -46.333 -39 -73 -39c-41.333 0 -74 25.333 -98 76
c-7.33301 15.333 -11.333 35.333 -12 60c0 56.667 28.667 97.667 86 123zM2866 610.001l2 -0.000976562c54.667 0 91.667 -34.667 111 -104l2 -25l-2 -27h-172c10 -30 25 -45 45 -45l14 -3c19.333 0 35.666 7.33301 49 22h57v-3c-23.333 -50.667 -59.333 -76 -108 -76
c-51.333 0 -88.333 32.333 -111 97l-1 28v8c0 32.667 10.667 62.334 32 89.001c22.667 26 50 39 82 39zM3429 610h5c27.333 0 50.666 -13 70 -39h2v31h47v-245h-47v31h-2c-23.333 -26 -49 -39 -77 -39c-47.333 0 -81 29.667 -101 89l-5 36v14c0 57.333 28 97.333 84 120z
M3711 610l7 -0.000976562c58.667 0 94.334 -42.667 107 -128l-2 -1v-15c0 -43.333 -22 -78.666 -66 -105.999c-14 -7.33301 -29.333 -11 -46 -11c-22.667 0 -44 10.667 -64 32v-99l-5 -5h-49v325h49v-28c20.667 24 43.667 36 69 36zM4151 609.999
c29.334 0 54.334 -13 75 -39v31h49v-245h-49v31c-23.334 -26 -49 -39 -77 -39c-61.333 0 -97.333 44 -108 132c0 56 24.333 96.333 73 121c10 5.33301 22.334 8 37 8zM922.002 601.999h50v-136c2 -40 16 -60 42 -60h5c29.333 0 44 29 44 87v109h52v-245h-47v24h-5
c0 -15.333 -18.667 -26 -56 -32h-3c-36.667 0 -64 22.667 -82 68c-2.66699 23.333 -4 56.333 -4 99v81zM1159 601.999h51v-245h-51v245zM2664 601.999h52v-245h-52v245zM4316 601.999h51v-245h-51v245zM1492 487.999v-15.999c8.66699 -44 28.334 -66 59.001 -66h4
c39.333 0 61.333 25.333 66 76c-8.66699 47.333 -28.334 71 -59.001 71h-11c-39.333 -10.667 -59 -32.334 -59 -65.001zM1987 472c10 -44 29.667 -66 59 -66h11c32 0 51.667 25 59 75v1c-8.66699 47.333 -28.334 71 -59 71h-14c-26 0 -44.667 -19 -56 -57v-24zM2805 506h122
v2c-10.667 30 -30.334 45 -59 45h-7c-23.333 0 -42 -15.667 -56 -47zM3373 474c8.66699 -45.333 29 -68 61 -68h5c34.667 0 56.334 21 65 63v12c-6.66699 48 -25.667 72 -57 72h-16c-37.333 -9.33301 -56 -30.333 -56 -63zM3642 478c8 -48 28.333 -72.001 61 -72.001h3
c33.333 0 55 20 65 60v22c0 28.667 -16.333 50.334 -49 65.001h-22c-31.333 0 -50.666 -24 -58 -72v-3zM4095 471.999c6.66602 -44 28.666 -66 66 -66c28.666 0 49 16 61 48l2 15v16c0 36 -17.334 58.667 -52 68h-18c-28 0 -47.666 -20 -59 -60v-21zM3416 320.999h51v-52
h-51v52zM4137 320.999h51v-52h-51v52zM2733 132.999h4c23.333 0 37.666 -16.667 43 -50v-2c0 -10.667 -8 -24.334 -24 -41.001l-10 -17h-28c0 16.667 9.33301 35.334 28 56.001l3 2v2c-2 12.667 -5 19 -9 19h-10c-5.33301 0 -8.33301 -6.33301 -9 -19h-30
c4 33.333 18 50 42 50zM1546 115.999l52 -60l-26 -19l-52 52zM352.002 78.999h4c50 -32 78.333 -52 85 -60l-20 -37c-58.667 32.667 -88 52 -88 58zM3490 78.999l86 -58l-18 -39c-6.66699 0 -37 18.333 -91 55c10 24 17.667 38 23 42zM4578 75.999l19 -42l-91 -52l-20 39
l92 58v-3zM1204 52.999h51v-19l5 -5h14v-36h-14l-5 -5v-279h-46v31c-22.667 -26.667 -49.667 -40 -81 -40c-48 0 -82 35 -102 105l-3 26c0 68 33.667 111.667 101 131h14c22 0 44 -11 66 -33v59l-6 5h-43v36h49v24zM1480 44.999h40l56 -61h-53l-23 27l-23 -27h-53z
M2641 44.999h33c8 0 29 -20.333 63 -61h-54l-23 27c-12.667 -14 -19 -23 -19 -27h-58v4zM49.002 36.999h160v-60h-56v-268h-50l-4 5v245l2 3v2l-2 2l2 3l-2 2l2 3l-2 3h-54v54zM699.002 36.999h47v-73l2 -2l-2 -3v-3l2 -2l-2 -3v-3l2 -2v-2l-2 -3l2 -3h3
c11.333 16 28.333 24 51 24h3c35.333 0 61 -19.333 77 -58c4.66699 -11.333 7 -25.333 7 -42v-153h-52v127c0 45.333 -13.333 68 -40 68h-8c-28.667 0 -43 -28.667 -43 -86v-109h-52v322zM1297 36.999h47l5 -6v-49h-52v55zM1987 36.999h52v-198l70 115h62l-78 -118l90 -125
v-2h-70c-6.66699 14.667 -31.334 53 -74 115v-115h-52v328zM2271 36.999v-98.999c16 16 33.667 24 53 24c38 0 64.667 -18.667 80 -56c6.66699 -12.667 10 -38.334 10 -77.001v-120h-54v133c0 41.333 -13.667 62 -41 62h-11c-20.667 0 -33 -18.333 -37 -55v-140h-53v314
l-1 3v3l1 2l-1 3l1 3h53zM2458 37h51v-55h-51v55zM3148 37h51v-108c18 22 40.667 33 68 33h3c50 0 85 -31.333 105 -94l5 -37c0 -50 -21.333 -90 -64 -120c-20 -7.33301 -36.333 -11 -49 -11c-27.333 0 -51.333 13.333 -72 40v-31h-47v328zM4275 37h52v-99h2
c15.334 16 33.334 24 54 24h3c40 0 67.334 -24.667 82 -74l2 -41v-138h-52v111c0 54.667 -10.666 82 -32 82l-10 2h-12c-24.666 0 -37 -26.667 -37 -80v-115h-52v328zM329.002 -38h3v-58h-5c-28 0 -42 -19 -42 -57v-138h-53v245h47v-21c12 19.333 28.667 29 50 29z
M564.002 -38c47.333 0 75.999 -29 85.999 -87v-166h-51v136c-4 39.333 -17.667 59 -41 59h-6c-30 0 -45 -28 -45 -84v-111h-52v245h50v-21c16.667 19.333 36.334 29 59.001 29zM1504 -38c48 0 83 -31.333 105 -94l5 -39c-1.33301 -16 -3.66602 -24 -6.99902 -24h-169
c11.333 -31.333 32 -47 62 -47c16 0 32 7 48 21h57c-22 -52.667 -58 -79 -108 -79c-54.667 0 -92.334 35 -113.001 105v37c0 54 29.667 93 89 117zM2657 -38h5c51.333 0 87 -32.333 107 -97l3 -26v-21l-3 -13h-170c12 -31.333 29.667 -47 53 -47h12c14 0 28 7 42 21h59
c-22.667 -52.667 -57.667 -79 -105 -79c-56 0 -94.333 34 -115 102l-2 29c0 62 30.333 104.667 91 128zM2915 -38h3.99902c36 0 62 -20 78 -60c4.66699 -16.667 7 -44 7 -82v-111h-54v138c0 32 -11.667 51 -35 57h-11c-25.333 0 -39.666 -19 -42.999 -57v-138h-54v245h50
v-21c16.667 19.333 36 29 58 29zM3508 -38h6c26.667 0 50 -13.333 70 -40h2v32h47v-245h-47v31h-2c-22.667 -26.667 -48.667 -40 -78 -40c-47.333 0 -81 30 -101 90l-4 37v12c0 54.667 25.667 93.667 77 117c7.33301 4 17.333 6 30 6zM3781 -38h4
c41.333 0 68.666 -26 82 -78l3 -84v-91h-54v138c0 32 -12.667 51 -38 57h-9c-25.333 0 -39.333 -17.333 -42 -52v-143h-54v245h49v-21c17.333 19.333 37 29 59 29zM4133 -38h1c49.334 0 84 -31 104 -93l4 -40c0 -58.667 -28 -100.667 -84 -126l-25 -3
c-27.333 0 -50 11.333 -68 34v-106h-52v326h47v-29c20 24.667 44.334 37 73 37zM4714 -38h5c22.666 0 43.666 -12.333 63 -37c18 24.667 41 37 69 37h6c37.334 0 63.667 -22 79 -66l6 -51v-136h-52v122c0 48.667 -13 73 -39 73h-7c-23.334 0 -37 -16.667 -41 -50v-140l-5 -5
h-48v140c0 28 -10.334 46.333 -31 55h-17c-26.666 0 -40 -25.667 -40 -77v-118h-51v245h47v-21c14.666 19.333 33.333 29 56 29zM359 -46h49l5 -6v-234l-5 -5h-49v245zM1297 -46h52v-245h-52v245zM1649 -46h52v-136c2.66699 -40 17 -60 43 -60h4c29.333 0 44 27 44 81v115
h52v-245h-47v24h-5c-8 -22 -27.667 -33 -59 -33c-34.667 0 -61 21 -79 63c-3.33301 8 -5 19.333 -5 34v157zM2458 -46h51v-245h-51v245zM4515 -46h51v-245h-51v245zM1077 -169c0 -35.333 16.999 -59.666 50.999 -72.999h12c36 0 58 22 66 66v10
c0 35.333 -18 58.666 -54 69.999h-17c-25.333 0 -44.666 -19 -57.999 -57v-16zM1438 -143h122.001c-12 31.333 -29.667 47 -53 47h-7c-28.667 0 -49.334 -14.667 -62.001 -44v-3zM2599 -143h122c-14 31.333 -32 47 -54 47h-7c-30.667 0 -51 -15.667 -61 -47zM3196 -158v-11
c6.66699 -48.667 27 -73 61 -73h5c42.667 5.33301 64 29 64 71v5c0 30 -12.667 51.667 -38 65l-18 5h-14c-40 -9.33301 -60 -30 -60 -62zM3452 -173c9.33301 -46 30 -69 62 -69h11c27.333 0 47 20 59 60v13c-5.33301 48.667 -24 73 -56 73h-17
c-31.333 0 -51 -24.333 -59 -73v-4zM4062 -158v-22c0 -31.333 19.667 -52 59 -62h9c33.334 0 53.667 25.333 61 76c-8.66602 46.667 -28 70 -58 70h-15c-37.333 -11.333 -56 -32 -56 -62z" />
    <glyph glyph-name="space" unicode=" " horiz-adv-x="508" 
 />
    <glyph glyph-name="exclam" unicode="!" horiz-adv-x="553" 
d="M516 1619l-66 -1219h-312l-66 1219h444zM483 324v-324h-378v324h378z" />
    <glyph glyph-name="quotedbl" unicode="&#x22;" horiz-adv-x="757" 
d="M89 1098l-53 273v248h306v-248l-46 -273h-207zM468 1098l-53 273v248h306v-248l-47 -273h-206z" />
    <glyph glyph-name="numbersign" unicode="#" horiz-adv-x="1283" 
d="M36 1061h308l84 383h189l-84 -383h355l82 383h189l-82 -383h170v-190h-206l-63 -302h269v-189h-305l-82 -380h-190l83 380h-359l-78 -380h-191l81 380h-170v189h209l63 302h-272v190zM497 871l-63 -301h356l62 301h-355z" />
    <glyph glyph-name="dollar" unicode="$" horiz-adv-x="1121" 
d="M1019 1147l-404.002 -0.00195312v67c0 71.333 -4.66699 118 -14 140s-29.333 33 -60 33c-24.667 0 -43.167 -9.5 -55.5 -28.5s-18.5 -47.5 -18.5 -85.5c0 -63.333 12.667 -107.666 38 -132.999c24.667 -25.333 97.334 -74.666 218.001 -147.999
c102.667 -62 172.667 -109.5 210 -142.5s68.833 -79.667 94.5 -140s38.5 -135.5 38.5 -225.5c0 -144 -34.667 -257 -104 -339s-173.333 -132.667 -312 -152v-152h-186v157c-108 10.667 -202.333 52.167 -283 124.5s-121 198.5 -121 378.5v79h404v-99
c0 -108.667 4.16699 -176.167 12.5 -202.5s28.5 -39.5 60.5 -39.5c27.333 0 47.666 9.16699 60.999 27.5s20 45.5 20 81.5c0 90.667 -6.33301 155.5 -19 194.5s-56 81.5 -130 127.5c-123.333 77.333 -207.166 134.166 -251.499 170.499s-82.666 87.5 -114.999 153.5
s-48.5 140.667 -48.5 224c0 120.667 34.167 215.334 102.5 284.001s170.833 111 307.5 127v129h186v-129c124.667 -16 218 -57.833 280 -125.5s93 -161.167 93 -280.5c0 -16.667 -1.33301 -42 -4 -76z" />
    <glyph glyph-name="percent" unicode="%" horiz-adv-x="1419" 
d="M1103 1650l-633 -1681h-154l635 1681h152zM632 1343v-278.002c0 -72.667 -6.83301 -127.167 -20.5 -163.5s-43 -68 -88 -95s-104.5 -40.5 -178.5 -40.5c-85.333 0 -150.333 12.833 -195 38.5s-74.834 56.5 -90.501 92.5s-23.5 87.667 -23.5 155v291
c0 80 8.16699 139.167 24.5 177.5s47.833 69.5 94.5 93.5s104.334 36 173.001 36c76 0 137.667 -13.167 185 -39.5s79 -58.166 95 -95.499s24 -94.666 24 -171.999zM376 1414c0 42.667 -2.16797 69 -6.50098 79s-16.166 15 -35.499 15c-18 0 -29.667 -5.33301 -35 -16
s-8 -36.667 -8 -78v-408c0 -46.667 2.33301 -74.667 7 -84s17 -14 37 -14c17.333 0 28.5 5.33301 33.5 16s7.5 35.667 7.5 75v415zM1383 560.998l-0.000976562 -278.998c0 -72 -6.83301 -126.333 -20.5 -163s-43 -68.5 -88 -95.5s-104.5 -40.5 -178.5 -40.5
c-84.667 0 -149.5 13 -194.5 39s-75.333 57 -91 93s-23.5 87.333 -23.5 154v292c0 79.333 8.16699 138.166 24.5 176.499s47.833 69.666 94.5 93.999s104.334 36.5 173.001 36.5c76.667 0 138.667 -13.333 186 -40s78.833 -58.667 94.5 -96s23.5 -94.333 23.5 -171z
M1127 631c0 42.667 -2.16797 69.167 -6.50098 79.5s-16.166 15.5 -35.499 15.5c-18 0 -29.5 -5.33301 -34.5 -16s-7.5 -37 -7.5 -79v-408c0 -46 2.33301 -73.667 7 -83s16.667 -14 36 -14c18 0 29.333 5.16699 34 15.5s7 35.5 7 75.5v414z" />
    <glyph glyph-name="ampersand" unicode="&#x26;" horiz-adv-x="1180" 
d="M1152 615l-0.000976562 -273.002l-114 -72l142 -270h-373l-49 90c-125.333 -82.667 -244 -124 -356 -124c-117.333 0 -207.666 39 -270.999 117s-95 172 -95 282c0 88 18.667 157 56 207s93.333 90.667 168 122c-106.667 76.667 -160 180.334 -160 311.001
c0 112.667 38 203.334 114 272.001s180.667 103 314 103c120 0 214.5 -33.667 283.5 -101s103.5 -153 103.5 -257c0 -109.333 -42 -206.333 -126 -291l143 -258zM528.999 898.998c45.333 59.333 68 116.001 68 170.001c0 23.333 -6.66699 44.666 -20 63.999s-32 29 -56 29
c-22 0 -38.667 -7.33301 -50 -22s-17 -37 -17 -67c0 -62.667 25 -120.667 75 -174zM619.999 272.999l-131.002 218c-50 -45.333 -75 -94.333 -75 -147c0 -38 7.83301 -66.5 23.5 -85.5s38.834 -28.5 69.501 -28.5c32.667 0 70.334 14.333 113.001 43z" />
    <glyph glyph-name="quotesingle" unicode="'" horiz-adv-x="379" 
d="M89 1098l-53 273v248h306v-248l-46 -273h-207z" />
    <glyph glyph-name="parenleft" unicode="(" horiz-adv-x="642" 
d="M605 1619l-0.00195312 -211c-55.333 0 -91.166 -2.33301 -107.499 -7s-28.333 -15.5 -36 -32.5s-11.5 -65.167 -11.5 -144.5v-829c0 -74 3 -120.167 9 -138.5s17.167 -30.5 33.5 -36.5s53.833 -9 112.5 -9v-211h-127c-117.333 -0 -203.5 10.833 -258.5 32.5
s-91.333 53.5 -109 95.5s-26.5 131.333 -26.5 268v827c0 136 8.66699 225.333 26 268s54.333 74.667 111 96s142.334 32 257.001 32h127z" />
    <glyph glyph-name="parenright" unicode=")" horiz-adv-x="642" 
d="M36 1619h126.996c114.667 0 200.334 -10.667 257.001 -32s93.667 -53.333 111 -96s26 -132 26 -268v-827c0 -136.667 -8.66699 -226 -26 -268s-53.666 -73.833 -108.999 -95.5s-141.666 -32.5 -258.999 -32.5h-127v211c59.333 0 97 3 113 9s27.167 18.167 33.5 36.5
s9.5 64.5 9.5 138.5v829c0 79.333 -4 127.5 -12 144.5s-20.167 27.833 -36.5 32.5s-52.166 7 -107.499 7v211z" />
    <glyph glyph-name="asterisk" unicode="*" horiz-adv-x="575" 
d="M352 1619v-161l148 51l45 -118l-148 -62l93 -132l-100 -74l-101 133l-99 -133l-105 74l94 137l-149 57l43 118l153 -51v161h126z" />
    <glyph glyph-name="plus" unicode="+" horiz-adv-x="1092" 
d="M64 930h359v360h244v-360h361v-244h-361v-358h-244v358h-359v244z" />
    <glyph glyph-name="comma" unicode="," horiz-adv-x="344" 
d="M307 317v-145c0 -76 -9 -138.333 -27 -187s-49.167 -90 -93.5 -124s-94.5 -56.667 -150.5 -68v116c40 22.667 62.667 53 68 91h-68v317h271z" />
    <glyph glyph-name="hyphen" unicode="-" horiz-adv-x="603" 
d="M567 803v-279h-531v279h531z" />
    <glyph glyph-name="hyphen" unicode="&#x2010;" horiz-adv-x="603" 
d="M567 803v-279h-531v279h531z" />
    <glyph glyph-name="period" unicode="." horiz-adv-x="378" 
d="M341 330v-330h-305v330h305z" />
    <glyph glyph-name="slash" unicode="/" horiz-adv-x="810" 
d="M798 1650l-480 -1681h-306l483 1681h303z" />
    <glyph glyph-name="zero" unicode="0" horiz-adv-x="1098" 
d="M1025 1071l-0.000976562 -539.998c0 -122.667 -6.66699 -212 -20 -268s-41 -108.333 -83 -157s-92.667 -83.667 -152 -105s-125.666 -32 -198.999 -32c-96.667 0 -177 11.167 -241 33.5s-115 57.166 -153 104.499s-65 97.166 -81 149.499s-24 135.5 -24 249.5v565
c0 148.667 12.833 260 38.5 334s76.667 133.333 153 178s168.833 67 277.5 67c88.667 0 168 -15.5 238 -46.5s122.333 -68.833 157 -113.5s58.167 -95 70.5 -151s18.5 -145.333 18.5 -268zM620.999 1207c0 86 -4.16699 139.833 -12.5 161.5s-27.833 32.5 -58.5 32.5
c-30 0 -49.833 -11.5 -59.5 -34.5s-14.5 -76.167 -14.5 -159.5v-790c0 -94 4.5 -150.667 13.5 -170s28.5 -29 58.5 -29s49.667 11.333 59 34s14 73.667 14 153v802z" />
    <glyph glyph-name="one" unicode="1" horiz-adv-x="780" 
d="M695 1619l0.000976562 -1619h-404v868c0 125.333 -3 200.666 -9 225.999s-22.5 44.5 -49.5 57.5s-87.167 19.5 -180.5 19.5h-40v189c195.333 42 343.666 128.333 444.999 259h238z" />
    <glyph glyph-name="two" unicode="2" horiz-adv-x="1028" 
d="M943 276l-0.000976562 -276h-889v231c263.333 430.667 419.833 697.167 469.5 799.5s74.5 182.166 74.5 239.499c0 44 -7.5 76.833 -22.5 98.5s-37.833 32.5 -68.5 32.5s-53.5 -12 -68.5 -36s-22.5 -71.667 -22.5 -143v-154h-362v59c0 90.667 4.66699 162.167 14 214.5
s32.333 103.833 69 154.5s84.334 89 143.001 115s129 39 211 39c160.667 0 282.167 -39.833 364.5 -119.5s123.5 -180.5 123.5 -302.5c0 -92.667 -23.167 -190.667 -69.5 -294s-182.833 -322.666 -409.5 -657.999h443z" />
    <glyph glyph-name="three" unicode="3" horiz-adv-x="1086" 
d="M831 917c61.333 -20.667 107 -54.502 137 -101.502s45 -157.167 45 -330.5c0 -128.667 -14.667 -228.5 -44 -299.5s-80 -125 -152 -162s-164.333 -55.5 -277 -55.5c-128 0 -228.5 21.5 -301.5 64.5s-121 95.667 -144 158s-34.5 170.5 -34.5 324.5v128h404v-263
c0 -70 4.16699 -114.5 12.5 -133.5s26.833 -28.5 55.5 -28.5c31.333 0 52 12 62 36s15 86.667 15 188v112c0 62 -7 107.333 -21 136s-34.667 47.5 -62 56.5s-80.333 14.167 -159 15.5v235c96 0 155.333 3.66699 178 11s39 23.333 49 48s15 63.334 15 116.001v90
c0 56.667 -5.83301 94 -17.5 112s-29.834 27 -54.501 27c-28 0 -47.167 -9.5 -57.5 -28.5s-15.5 -59.5 -15.5 -121.5v-133h-404v138c0 154.667 35.333 259.167 106 313.5s183 81.5 337 81.5c192.667 0 323.334 -37.667 392.001 -113s103 -180 103 -314
c0 -90.667 -12.333 -156.167 -37 -196.5s-68 -77.166 -130 -110.499z" />
    <glyph glyph-name="four" unicode="4" horiz-adv-x="1023" 
d="M896 1619v-1058h115v-276h-115v-285h-404v285h-480v276l349 1058h535zM492 561v689l-178 -689h178z" />
    <glyph glyph-name="five" unicode="5" horiz-adv-x="1099" 
d="M954 1619l0.000976562 -259.001h-501v-275c62.667 74 143.334 111 242.001 111c111.333 0 195.5 -31.167 252.5 -93.5s85.5 -182.166 85.5 -359.499v-231c0 -114.667 -5.5 -198.834 -16.5 -252.501s-34.5 -103.334 -70.5 -149.001s-86.167 -80.667 -150.5 -105
s-142.833 -36.5 -235.5 -36.5c-104 0 -195.667 18.167 -275 54.5s-135.666 90.5 -168.999 162.5s-50 183.333 -50 334v88h404v-101c0 -104.667 3.66699 -179 11 -223s32.666 -66 75.999 -66c20 0 36.167 6.33301 48.5 19s19 26.334 20 41.001s2.16699 78.334 3.5 191.001
v321c0 60.667 -6.33301 102 -19 124s-33.667 33 -63 33c-18.667 0 -34.334 -5.66699 -47.001 -17s-20.834 -23.5 -24.501 -36.5s-5.5 -43.167 -5.5 -90.5h-400l17 816h867z" />
    <glyph glyph-name="six" unicode="6" horiz-adv-x="1109" 
d="M1042 1189h-403.999c0 75.333 -0.833008 122.833 -2.5 142.5s-9.66699 36.167 -24 49.5s-33.833 20 -58.5 20c-20.667 0 -37.667 -6.33301 -51 -19s-21 -29 -23 -49s-3 -60.333 -3 -121v-258c20.667 43.333 51 75.833 91 97.5s89.333 32.5 148 32.5
c74 0 139.333 -20 196 -60s92.667 -88 108 -144s23 -131.667 23 -227v-129c0 -113.333 -4.33301 -197.666 -13 -252.999s-31.834 -106.5 -69.501 -153.5s-89.334 -83.5 -155.001 -109.5s-142.167 -39 -229.5 -39c-108.667 0 -197.667 15 -267 45
s-122.833 73.167 -160.5 129.5s-59.667 115.5 -66 177.5s-9.5 182.333 -9.5 361v224c0 192.667 2.83301 321.5 8.5 386.5s28.834 126.5 69.501 184.5s96.167 101.5 166.5 130.5s151.5 43.5 243.5 43.5c113.333 0 206.333 -18.333 279 -55s124.667 -88.334 156 -155.001
s47 -150.667 47 -252zM638.001 684c0 57.333 -6.33203 96.666 -18.999 117.999s-33.334 32 -62.001 32c-28 0 -48.5 -10.167 -61.5 -30.5s-19.5 -60.166 -19.5 -119.499v-293c0 -71.333 6.16699 -118 18.5 -140s32.833 -33 61.5 -33c17.333 0 35.333 8.5 54 25.5
s28 62.833 28 137.5v303z" />
    <glyph glyph-name="seven" unicode="7" horiz-adv-x="802" 
d="M784 1619v-353l-258 -1266h-402l287 1328h-399v291h772z" />
    <glyph glyph-name="eight" unicode="8" horiz-adv-x="1095" 
d="M843 918c59.333 -24 104.997 -59.833 136.997 -107.5s48 -161.167 48 -340.5c0 -130.667 -12.667 -227 -38 -289s-74.666 -112.833 -147.999 -152.5s-171.666 -59.5 -294.999 -59.5c-120 0 -215 19 -285 57s-120.167 88.333 -150.5 151s-45.5 167 -45.5 313
c0 98 7.5 183 22.5 255s62.167 129.667 141.5 173c-50 24 -87.5 62.167 -112.5 114.5s-37.5 118.833 -37.5 199.5c0 139.333 38.667 243.833 116 313.5s193 104.5 347 104.5c178 0 301 -37 369 -111s102 -179.667 102 -317c0 -87.333 -11.167 -150.333 -33.5 -189
s-68.166 -77 -137.499 -115zM615.997 1266c0 54.667 -4.83301 90.835 -14.5 108.502s-28.167 26.5 -55.5 26.5c-26.667 0 -44.667 -9.5 -54 -28.5s-14 -54.5 -14 -106.5v-123c0 -48.667 5.33301 -82.334 16 -101.001s28.667 -28 54 -28c26.667 0 44.667 9.16699 54 27.5
s14 56.166 14 113.499v111zM623.997 593.001c0 62 -6.33203 103.168 -18.999 123.501s-32.667 30.5 -60 30.5c-26.667 0 -45.834 -9.83301 -57.501 -29.5s-17.5 -61.167 -17.5 -124.5v-210c0 -70 6.5 -115 19.5 -135s33.5 -30 61.5 -30c28.667 0 48 10.167 58 30.5
s15 66.166 15 137.499v207z" />
    <glyph glyph-name="nine" unicode="9" horiz-adv-x="1109" 
d="M72 430h404c0 -75.333 1 -122.833 3 -142.5s10.167 -36.167 24.5 -49.5s33.833 -20 58.5 -20c20.667 0 37.667 6.33301 51 19s20.833 29 22.5 49s2.5 60.333 2.5 121v258c-20 -43.333 -50 -75.833 -90 -97.5s-89.667 -32.5 -149 -32.5c-74 0 -139.333 20 -196 60
s-92.667 88 -108 144s-23 131.667 -23 227v129c0 113.333 4.5 197.666 13.5 252.999s32.167 106.5 69.5 153.5s89 83.5 155 109.5s142.667 39 230 39c108 0 196.667 -15 266 -45s123 -73.167 161 -129.5s60 -115.5 66 -177.5s9 -182 9 -360v-225
c0 -192.667 -2.66699 -321.5 -8 -386.5s-28.5 -126.5 -69.5 -184.5s-96.5 -101.5 -166.5 -130.5s-151 -43.5 -243 -43.5c-114 0 -207.167 18.333 -279.5 55s-124.333 88.334 -156 155.001s-47.5 150.667 -47.5 252zM476 935c0 -68 8.83203 -109.999 26.499 -125.999
s35.834 -24 54.501 -24c28 0 48.5 10.167 61.5 30.5s19.5 60.166 19.5 119.499v293c0 71.333 -6.16699 118 -18.5 140s-32.833 33 -61.5 33c-17.333 0 -35.333 -8.5 -54 -25.5s-28 -62.833 -28 -137.5v-303z" />
    <glyph glyph-name="colon" unicode=":" horiz-adv-x="414" 
d="M377 1054v-329h-305v329h305zM377 330v-330h-305v330h305z" />
    <glyph glyph-name="semicolon" unicode=";" horiz-adv-x="414" 
d="M377 1054v-329h-305v329h305zM360 317v-145c0 -76 -9 -138.333 -27 -187s-49.167 -90 -93.5 -124s-94.5 -56.667 -150.5 -68v116c40 22.667 62.667 53 68 91h-68v317h271z" />
    <glyph glyph-name="less" unicode="&#x3c;" horiz-adv-x="1092" 
d="M1027 324l-962 401v203l962 402v-264l-594 -239l594 -238v-265z" />
    <glyph glyph-name="equal" unicode="=" horiz-adv-x="1092" 
d="M65 1122h962v-244h-962v244zM65 740h962v-244h-962v244z" />
    <glyph glyph-name="greater" unicode="&#x3e;" horiz-adv-x="1092" 
d="M65 1330l962 -400v-204l-962 -402v264l594 239l-594 238v265z" />
    <glyph glyph-name="question" unicode="?" horiz-adv-x="1075" 
d="M488 1097l-403.998 0.00195312c1.33301 142 13.333 245.667 36 311s71.834 122.5 147.501 171.5s172.167 73.5 289.5 73.5c84.667 0 158.667 -13.333 222 -40s113.666 -63.834 150.999 -111.501s64.666 -99.167 81.999 -154.5s26 -142 26 -260v-198
c0 -90 -8.33301 -162.333 -25 -217s-53 -102.667 -109 -144s-121.667 -62 -197 -62c-98 0 -171 38.333 -219 115v-174h-377v445h368c1.33301 -61.333 23.333 -92 66 -92c33.333 0 54.5 13.5 63.5 40.5s13.5 93.167 13.5 198.5v269c0 59.333 -4.16699 99.166 -12.5 119.499
s-24.833 30.5 -49.5 30.5c-30.667 0 -50.334 -13.5 -59.001 -40.5s-13 -87.833 -13 -182.5v-98zM488.002 324.002v-324h-377v324h377z" />
    <glyph glyph-name="at" unicode="@" horiz-adv-x="1587" 
d="M1193 1308l-127 -791.998c-2.66699 -17.333 -4 -29 -4 -35c0 -26 12.333 -39 37 -39c40 0 83.5 19.167 130.5 57.5s88 95.166 123 170.499s52.5 163.333 52.5 264c0 170 -51.167 307.5 -153.5 412.5s-236.5 157.5 -402.5 157.5c-192.667 0 -351.667 -66.5 -477 -199.5
s-188 -310.5 -188 -532.5c0 -214 61.167 -383.833 183.5 -509.5s278.166 -188.5 467.499 -188.5c93.333 0 182 15.667 266 47s163.667 78 239 140h210c-86.667 -110.667 -194.167 -194.334 -322.5 -251.001s-258.833 -85 -391.5 -85c-227.333 0 -417.5 76.833 -570.5 230.5
s-229.5 356.167 -229.5 607.5c0 249.333 71.333 460 214 632s341 258 595 258c151.333 0 275 -29.167 371 -87.5s176.167 -139.666 240.5 -243.999s96.5 -233.5 96.5 -387.5c0 -204.667 -57 -365.834 -171 -483.501s-228.333 -176.5 -343 -176.5
c-86 0 -138.333 38.667 -157 116c-45.333 -44 -84.5 -74.5 -117.5 -91.5s-72.5 -25.5 -118.5 -25.5c-99.333 0 -179 38.667 -239 116s-90 180.666 -90 309.999c0 166.667 41.833 314.834 125.5 444.501s185.5 194.5 305.5 194.5c48 0 91.333 -12 130 -36
s72.334 -60 101.001 -108l16 114h198zM525 642.002c0 -62.667 13.3311 -115.668 39.998 -159.001s62.334 -65 107.001 -65c43.333 0 81.5 17 114.5 51s63.5 103.833 91.5 209.5s42 206.5 42 302.5c0 60 -12.667 108.5 -38 145.5s-59.666 55.5 -102.999 55.5
c-81.333 0 -144 -57.167 -188 -171.5s-66 -237.166 -66 -368.499z" />
    <glyph glyph-name="A" unicode="A" horiz-adv-x="1040" 
d="M811 1619l241 -1619h-431l-21 291h-151l-25 -291h-436l214 1619h609zM588 578c-21.333 183.333 -42.666 409.666 -63.999 678.999c-42.667 -309.333 -69.334 -535.666 -80.001 -678.999h144z" />
    <glyph glyph-name="B" unicode="B" horiz-adv-x="1131" 
d="M84 1619h420c132.667 0 233.167 -10.333 301.5 -31s123.5 -62.5 165.5 -125.5s63 -164.5 63 -304.5c0 -94.667 -14.833 -160.667 -44.5 -198s-88.167 -66 -175.5 -86c97.333 -22 163.333 -58.5 198 -109.5s52 -129.167 52 -234.5v-150
c0 -109.333 -12.5 -190.333 -37.5 -243s-64.833 -88.667 -119.5 -108s-166.667 -29 -336 -29h-487v1619zM505 1342l0.000976562 -359.999c18 0.666992 32 1 42 1c41.333 0 67.666 10.167 78.999 30.5s17 78.5 17 174.5c0 50.667 -4.66699 86.167 -14 106.5
s-21.5 33.166 -36.5 38.499s-44.167 8.33301 -87.5 9zM505.001 730.001l0.00195312 -453c59.333 2 97.166 11.333 113.499 28s24.5 57.667 24.5 123v151c0 69.333 -7.33301 111.333 -22 126s-53.334 23 -116.001 25z" />
    <glyph glyph-name="C" unicode="C" horiz-adv-x="1134" 
d="M1067 913h-420.999v282c0 82 -4.5 133.167 -13.5 153.5s-28.833 30.5 -59.5 30.5c-34.667 0 -56.667 -12.333 -66 -37s-14 -78 -14 -160v-752c0 -78.667 4.66699 -130 14 -154s30.333 -36 63 -36c31.333 0 51.833 12 61.5 36s14.5 80.333 14.5 169v203h421v-63
c0 -167.333 -11.833 -286 -35.5 -356s-76 -131.333 -157 -184s-180.833 -79 -299.5 -79c-123.333 0 -225 22.333 -305 67s-133 106.5 -159 185.5s-39 197.833 -39 356.5v473c0 116.667 4 204.167 12 262.5s31.833 114.5 71.5 168.5s94.667 96.5 165 127.5
s151.166 46.5 242.499 46.5c124 0 226.333 -24 307 -72s133.667 -107.833 159 -179.5s38 -183.167 38 -334.5v-154z" />
    <glyph glyph-name="D" unicode="D" horiz-adv-x="1132" 
d="M84 1619h315.001c203.333 0 340.833 -9.33301 412.5 -28s126.167 -49.334 163.5 -92.001s60.666 -90.167 69.999 -142.5s14 -155.166 14 -308.499v-567c0 -145.333 -6.83301 -242.5 -20.5 -291.5s-37.5 -87.333 -71.5 -115s-76 -47 -126 -58s-125.333 -16.5 -226 -16.5
h-531v1619zM505.001 1342l0.000976562 -1065c60.667 0 98 12.167 112 36.5s21 90.5 21 198.5v629c0 73.333 -2.33301 120.333 -7 141s-15.334 35.834 -32.001 45.501s-48 14.5 -94 14.5z" />
    <glyph glyph-name="E" unicode="E" horiz-adv-x="851" 
d="M84 1619h702v-324h-281v-307h263v-308h-263v-356h309v-324h-730v1619z" />
    <glyph glyph-name="F" unicode="F" horiz-adv-x="815" 
d="M84 1619h713v-324h-292v-307h260v-308h-260v-680h-421v1619z" />
    <glyph glyph-name="G" unicode="G" horiz-adv-x="1129" 
d="M1050 1023l-420.997 0.000976562v147c0 92.667 -4 150.667 -12 174s-27 35 -57 35c-26 0 -43.667 -10 -53 -30s-14 -71.333 -14 -154v-777c0 -72.667 4.66699 -120.5 14 -143.5s28 -34.5 56 -34.5c30.667 0 51.5 13 62.5 39s16.5 76.667 16.5 152v192h-85v246h493v-869
h-265l-39 116c-28.667 -50 -64.834 -87.5 -108.501 -112.5s-95.167 -37.5 -154.5 -37.5c-70.667 0 -136.834 17.167 -198.501 51.5s-108.5 76.833 -140.5 127.5s-52 103.834 -60 159.501s-12 139.167 -12 250.5v481c0 154.667 8.33301 267 25 337s64.5 134.167 143.5 192.5
s181.167 87.5 306.5 87.5c123.333 0 225.666 -25.333 306.999 -76s134.333 -110.834 159 -180.501s37 -170.834 37 -303.501v-70z" />
    <glyph glyph-name="H" unicode="H" horiz-adv-x="1137" 
d="M1052 1619v-1619h-421v680h-126v-680h-421v1619h421v-579h126v579h421z" />
    <glyph glyph-name="I" unicode="I" horiz-adv-x="590" 
d="M505 1619v-1619h-421v1619h421z" />
    <glyph glyph-name="J" unicode="J" horiz-adv-x="678" 
d="M599 1619v-1082c0 -162 -1.66699 -266.167 -5 -312.5s-18.5 -88.166 -45.5 -125.499s-63.667 -63.166 -110 -77.499s-116.166 -21.5 -209.499 -21.5h-211v283c25.333 -2 43.666 -3 54.999 -3c30 0 53.667 7.33301 71 22s27.333 32.667 30 54s4 62.666 4 123.999v1139h421
z" />
    <glyph glyph-name="K" unicode="K" horiz-adv-x="1099" 
d="M1087 1619l-241 -731l264 -888h-435l-170 694v-694h-421v1619h421v-629l187 629h395z" />
    <glyph glyph-name="L" unicode="L" horiz-adv-x="779" 
d="M505 1619v-1295h256v-324h-677v1619h421z" />
    <glyph glyph-name="M" unicode="M" horiz-adv-x="1468" 
d="M1383 1619v-1619h-368v1093l-147 -1093h-261l-155 1068v-1068h-368v1619h545c16 -97.333 33 -212 51 -344l58 -412l96 756h549z" />
    <glyph glyph-name="N" unicode="N" horiz-adv-x="1109" 
d="M1024 1619v-1619h-369l-219 736v-736h-352v1619h352l236 -729v729h352z" />
    <glyph glyph-name="O" unicode="O" horiz-adv-x="1119" 
d="M1046 671c0 -162.667 -3.83301 -277.834 -11.5 -345.501s-31.667 -129.5 -72 -185.5s-94.833 -99 -163.5 -129s-148.667 -45 -240 -45c-86.667 0 -164.5 14.167 -233.5 42.5s-124.5 70.833 -166.5 127.5s-67 118.334 -75 185.001s-12 183.334 -12 350.001v277
c0 162.667 3.83301 277.834 11.5 345.501s31.667 129.5 72 185.5s94.833 99 163.5 129s148.667 45 240 45c86.667 0 164.5 -14.167 233.5 -42.5s124.5 -70.833 166.5 -127.5s67 -118.334 75 -185.001s12 -183.334 12 -350.001v-277zM625 1203
c0 75.333 -4.16699 123.501 -12.5 144.501s-25.5 31.5 -51.5 31.5c-22 0 -38.833 -8.5 -50.5 -25.5s-17.5 -67.167 -17.5 -150.5v-756c0 -94 3.83301 -152 11.5 -174s25.5 -33 53.5 -33c28.667 0 47 12.667 55 38s12 85.666 12 180.999v744z" />
    <glyph glyph-name="P" unicode="P" horiz-adv-x="1028" 
d="M84 1619l423.999 -0.00292969c114.667 0 202.834 -9 264.501 -27s108 -44 139 -78s52 -75.167 63 -123.5s16.5 -123.166 16.5 -224.499v-141c0 -103.333 -10.667 -178.666 -32 -225.999s-60.5 -83.666 -117.5 -108.999s-131.5 -38 -223.5 -38h-113v-652h-421v1619z
M504.999 1342v-412c12 -0.666992 22.333 -1 31 -1c38.667 0 65.5 9.5 80.5 28.5s22.5 58.5 22.5 118.5v133c0 55.333 -8.66699 91.333 -26 108s-53.333 25 -108 25z" />
    <glyph glyph-name="Q" unicode="Q" horiz-adv-x="1119" 
d="M1047 0v-196.001h-318c-76.667 0 -130.667 5.83301 -162 17.5s-52.5 29.167 -63.5 52.5s-16.5 65.333 -16.5 126c-95.333 2.66699 -177.333 27.667 -246 75s-114 107.5 -136 180.5s-33 182.167 -33 327.5v501c0 110 6.5 193.833 19.5 251.5s39.833 112 80.5 163
s93 89.5 157 115.5s135 39 213 39c94 0 177.833 -16 251.5 -48s128.667 -72.667 165 -122s60 -100.5 71 -153.5s16.5 -131.833 16.5 -236.5v-526c0 -144 -7 -241.667 -21 -293s-40.833 -92.166 -80.5 -122.499s-92.5 -53.5 -158.5 -69.5c2 -36 9.5 -58.667 22.5 -68
s43.833 -14 92.5 -14h146zM625 1203c0 75.333 -4.16699 123.501 -12.5 144.501s-25.5 31.5 -51.5 31.5c-22 0 -38.833 -8.5 -50.5 -25.5s-17.5 -67.167 -17.5 -150.5v-756c0 -94 3.83301 -152 11.5 -174s25.5 -33 53.5 -33c28.667 0 47 12.667 55 38s12 85.666 12 180.999
v744z" />
    <glyph glyph-name="R" unicode="R" horiz-adv-x="1103" 
d="M84 1619h298.001c198.667 0 333.167 -7.66699 403.5 -23s127.666 -54.5 171.999 -117.5s66.5 -163.5 66.5 -301.5c0 -126 -15.667 -210.667 -47 -254s-93 -69.333 -185 -78c83.333 -20.667 139.333 -48.334 168 -83.001s46.5 -66.5 53.5 -95.5s10.5 -108.833 10.5 -239.5
v-427h-391v538c0 86.667 -6.83301 140.334 -20.5 161.001s-49.5 31 -107.5 31v-730h-421v1619zM505.001 1342v-360c47.333 0 80.5 6.5 99.5 19.5s28.5 55.167 28.5 126.5v89c0 51.333 -9.16699 85 -27.5 101s-51.833 24 -100.5 24z" />
    <glyph glyph-name="S" unicode="S" horiz-adv-x="1059" 
d="M976 1129l-390.998 0.00390625v120c0 56 -5 91.667 -15 107s-26.667 23 -50 23c-25.333 0 -44.5 -10.333 -57.5 -31s-19.5 -52 -19.5 -94c0 -54 7.33301 -94.667 22 -122c14 -27.333 53.667 -60.333 119 -99c187.333 -111.333 305.333 -202.666 354 -273.999
s73 -186.333 73 -345c0 -115.333 -13.5 -200.333 -40.5 -255s-79.167 -100.5 -156.5 -137.5s-167.333 -55.5 -270 -55.5c-112.667 0 -208.834 21.333 -288.501 64s-131.834 97 -156.501 163s-37 159.667 -37 281v106h391v-197c0 -60.667 5.5 -99.667 16.5 -117
s30.5 -26 58.5 -26s48.833 11 62.5 33s20.5 54.667 20.5 98c0 95.333 -13 157.666 -39 186.999c-26.667 29.333 -92.334 78.333 -197.001 147c-104.667 69.333 -174 119.666 -208 150.999s-62.167 74.666 -84.5 129.999s-33.5 126 -33.5 212c0 124 15.833 214.667 47.5 272
s82.834 102.166 153.501 134.499s156 48.5 256 48.5c109.333 0 202.5 -17.667 279.5 -53s128 -79.833 153 -133.5s37.5 -144.834 37.5 -273.501v-64z" />
    <glyph glyph-name="T" unicode="T" horiz-adv-x="944" 
d="M932 1619v-324h-250v-1295h-421v1295h-249v324h920z" />
    <glyph glyph-name="U" unicode="U" horiz-adv-x="1120" 
d="M1041 1619l-0.00195312 -1082c0 -122.667 -4 -208.834 -12 -258.501s-31.667 -100.667 -71 -153s-91.166 -92 -155.499 -119s-140.166 -40.5 -227.499 -40.5c-96.667 0 -182 16 -256 48s-129.333 73.667 -166 125s-58.334 105.5 -65.001 162.5s-10 176.833 -10 359.5v958
h421v-1214c0 -70.667 3.83301 -115.834 11.5 -135.501s23.167 -29.5 46.5 -29.5c26.667 0 43.834 10.833 51.501 32.5s11.5 72.834 11.5 153.501v1193h421z" />
    <glyph glyph-name="V" unicode="V" horiz-adv-x="1072" 
d="M1084 1619l-214 -1619h-639l-243 1619h444c51.333 -446 88 -823 110 -1131c22 311.333 45 588 69 830l29 301h444z" />
    <glyph glyph-name="W" unicode="W" horiz-adv-x="1668" 
d="M1668 1619l-187 -1619h-526c-48 248.667 -90.333 531.334 -127 848.001c-16.667 -135.333 -55.667 -418 -117 -848h-523l-188 1619h409l43 -565l44 -545c15.333 282 54 652 116 1110h438c6 -47.333 21.333 -225.333 46 -534l46 -615
c23.333 391.333 62.333 774.333 117 1149h409z" />
    <glyph glyph-name="X" unicode="X" horiz-adv-x="988" 
d="M937 1619l-146.997 -715.999l222 -903h-390c-46.667 161.333 -89.334 357.666 -128.001 588.999c-10.667 -102 -25.334 -210.333 -44.001 -325l-40 -264h-410l152 903l-152 716h407c7.33301 -44.667 22 -119 44 -223c17.333 -79.333 31.666 -152 42.999 -218l90 441h353z
" />
    <glyph glyph-name="Y" unicode="Y" horiz-adv-x="969" 
d="M981 1619l-307 -1033v-586h-390v586l-296 1033h387c60.667 -315.333 94.667 -527.666 102 -636.999c23.333 172.667 62.333 385 117 637h387z" />
    <glyph glyph-name="Z" unicode="Z" horiz-adv-x="813" 
d="M788 1619v-324l-314 -971h314v-324h-776v235l324 1060h-286v324h738z" />
    <glyph glyph-name="bracketleft" unicode="[" horiz-adv-x="578" 
d="M541 1619v-249h-91v-1121h91v-249h-457v1619h457z" />
    <glyph glyph-name="backslash" unicode="\" horiz-adv-x="810" 
d="M12 1650h303l483 -1681h-305z" />
    <glyph glyph-name="bracketright" unicode="]" horiz-adv-x="578" 
d="M36 0v249h91v1121h-91v249h457v-1619h-457z" />
    <glyph glyph-name="asciicircum" unicode="^" horiz-adv-x="990" 
d="M12 820l376 799h223l366 -799h-284l-198 489l-197 -489h-286z" />
    <glyph glyph-name="underscore" unicode="_" horiz-adv-x="1131" 
d="M-12 -154h1155v-102h-1155v102z" />
    <glyph glyph-name="grave" unicode="`" horiz-adv-x="683" 
d="M0 1772h356l176 -271h-203z" />
    <glyph glyph-name="a" unicode="a" horiz-adv-x="1032" 
d="M433 813l-379 -0.00390625v89c0 102.667 11.833 181.834 35.5 237.501s71.167 104.834 142.5 147.501s164 64 278 64c136.667 0 239.667 -24.167 309 -72.5s111 -107.666 125 -177.999s21 -215.166 21 -434.499v-666h-393v118
c-24.667 -47.333 -56.5 -82.833 -95.5 -106.5s-85.5 -35.5 -139.5 -35.5c-70.667 0 -135.5 19.833 -194.5 59.5s-88.5 126.5 -88.5 260.5v109c0 99.333 15.667 167 47 203s109 78 233 126c132.667 52 203.667 87 213 105s14 54.667 14 110
c0 69.333 -5.16699 114.5 -15.5 135.5s-27.5 31.5 -51.5 31.5c-27.333 0 -44.333 -8.83301 -51 -26.5s-10 -63.5 -10 -137.5v-139zM561 630.996c-64.667 -47.333 -102.167 -87.001 -112.5 -119.001s-15.5 -78 -15.5 -138c0 -68.667 4.5 -113 13.5 -133s26.833 -30 53.5 -30
c25.333 0 41.833 7.83301 49.5 23.5s11.5 56.834 11.5 123.501v273z" />
    <glyph glyph-name="b" unicode="b" horiz-adv-x="1064" 
d="M476 1619l0.000976562 -383.001c33.333 38.667 70.5 67.5 111.5 86.5s85.5 28.5 133.5 28.5c55.333 0 103.333 -8.66699 144 -26s71.667 -41.666 93 -72.999s34.166 -62 38.499 -92s6.5 -94 6.5 -192v-598c0 -97.333 -6.5 -169.833 -19.5 -217.5s-43.5 -89 -91.5 -124
s-105 -52.5 -171 -52.5c-47.333 0 -91.5 10.333 -132.5 31s-78.5 51.667 -112.5 93l-26 -100h-378v1619h404zM599.001 949.999c0 68.667 -4.33301 113.499 -13 134.499s-25.667 31.5 -51 31.5c-24.667 0 -40.667 -9.16699 -48 -27.5s-11 -64.5 -11 -138.5v-572
c0 -71.333 4.16699 -117 12.5 -137s24.833 -30 49.5 -30c25.333 0 41.833 10.333 49.5 31s11.5 70.334 11.5 149.001v559z" />
    <glyph glyph-name="c" unicode="c" horiz-adv-x="1013" 
d="M965 826h-380.999v153c0 53.333 -4.33301 89.5 -13 108.5s-24.667 28.5 -48 28.5s-39 -8.33301 -47 -25s-12 -54 -12 -112v-626c0 -47.333 6 -82.833 18 -106.5s29.667 -35.5 53 -35.5c27.333 0 45.833 12.333 55.5 37s14.5 71.334 14.5 140.001v158h360
c-0.666992 -106 -4.5 -185.5 -11.5 -238.5s-29.333 -107.333 -67 -163s-86.834 -97.667 -147.501 -126s-135.667 -42.5 -225 -42.5c-114 0 -204.333 19.5 -271 58.5s-113.834 93.667 -141.501 164s-41.5 170.166 -41.5 299.499v377c0 112.667 11.333 197.667 34 255
s71 108.5 145 153.5s164 67.5 270 67.5c105.333 0 195.333 -22.333 270 -67s124.334 -101 149.001 -169s37 -164.333 37 -289z" />
    <glyph glyph-name="d" unicode="d" horiz-adv-x="1064" 
d="M991 1619l0.000976562 -1619h-404v96c-38.667 -40 -79.334 -70 -122.001 -90s-87.334 -30 -134.001 -30c-62.667 0 -117 16.5 -163 49.5s-75.5 71.167 -88.5 114.5s-19.5 114 -19.5 212v621c0 102 6.5 174.333 19.5 217s42.833 80.167 89.5 112.5
s102.334 48.5 167.001 48.5c50 0 95.833 -9 137.5 -27s79.5 -45 113.5 -81v376h404zM587.001 993c0 48.667 -4.16699 81.333 -12.5 98s-24.833 25 -49.5 25c-24 0 -40.167 -7.5 -48.5 -22.5s-12.5 -48.5 -12.5 -100.5v-650c0 -54 4 -89.5 12 -106.5s23.333 -25.5 46 -25.5
c26 0 43.333 9.5 52 28.5s13 65.5 13 139.5v614z" />
    <glyph glyph-name="e" unicode="e" 
d="M987 640l-523.003 -0.000976562v-287c0 -60 4.33301 -98.667 13 -116s25.334 -26 50.001 -26c30.667 0 51.167 11.5 61.5 34.5s15.5 67.5 15.5 133.5v175h383v-98c0 -82 -5.16699 -145 -15.5 -189s-34.5 -91 -72.5 -141s-86.167 -87.5 -144.5 -112.5
s-131.5 -37.5 -219.5 -37.5c-85.333 0 -160.666 12.333 -225.999 37s-116.166 58.5 -152.499 101.5s-61.5 90.333 -75.5 142s-21 126.834 -21 225.501v387c0 116 15.667 207.5 47 274.5s82.666 118.333 153.999 154s153.333 53.5 246 53.5
c113.333 0 206.833 -21.5 280.5 -64.5s125.334 -100 155.001 -171s44.5 -170.833 44.5 -299.5v-176zM581.997 855.999v97c0 68.667 -3.66699 113 -11 133s-22.333 30 -45 30c-28 0 -45.333 -8.5 -52 -25.5s-10 -62.833 -10 -137.5v-97h118z" />
    <glyph glyph-name="f" unicode="f" horiz-adv-x="592" 
d="M587 1619l-0.000976562 -204.999c-83.333 0 -132.5 -3.83301 -147.5 -11.5s-22.5 -29.5 -22.5 -65.5v-42h170v-210h-96v-1085h-404v1085h-83v210h83c0 87.333 3 145.666 9 174.999s20.833 55.5 44.5 78.5s56.834 40.5 99.501 52.5s109 18 199 18h148z" />
    <glyph glyph-name="g" unicode="g" horiz-adv-x="1062" 
d="M990 1327l-0.00195312 -1022c0 -138 -3.16699 -227.167 -9.5 -267.5s-28.833 -83 -67.5 -128s-92.5 -79.333 -161.5 -103s-155.833 -35.5 -260.5 -35.5c-128.667 0 -232 21.833 -310 65.5s-118.333 129.5 -121 257.5h392c0 -58.667 21.333 -88 64 -88
c30.667 0 51 9 61 27s15 55.667 15 113v100c-34.667 -31.333 -71.167 -55 -109.5 -71s-78.5 -24 -120.5 -24c-72.667 0 -132.5 14.667 -179.5 44s-79.167 67.833 -96.5 115.5s-26 115.5 -26 203.5v482c0 126 22.667 216.667 68 272s114.333 83 207 83
c50.667 0 96.834 -10.333 138.501 -31s78.834 -51.667 111.501 -93l29 100h376zM584.998 975c0 60.667 -3.49902 99.334 -10.499 116.001s-22.5 25 -46.5 25c-23.333 0 -39.833 -9.5 -49.5 -28.5s-14.5 -56.5 -14.5 -112.5v-446c0 -59.333 3.66699 -97.833 11 -115.5
s22.666 -26.5 45.999 -26.5c26.667 0 44 10.667 52 32s12 69.666 12 144.999v411z" />
    <glyph glyph-name="h" unicode="h" horiz-adv-x="1073" 
d="M476 1619l0.000976562 -364c34.667 32 72.167 56 112.5 72s83.5 24 129.5 24c70.667 0 130.834 -18 180.501 -54s80 -77.5 91 -124.5s16.5 -132.833 16.5 -257.5v-915h-404v934c0 77.333 -3.83301 127 -11.5 149s-24.834 33 -51.501 33
c-24.667 0 -41.334 -11.333 -50.001 -34s-13 -67.667 -13 -135v-947h-404v1619h404z" />
    <glyph glyph-name="i" unicode="i" horiz-adv-x="561" 
d="M488 1619v-211h-416v211h416zM488 1327v-1327h-416v1327h416z" />
    <glyph glyph-name="j" unicode="j" horiz-adv-x="573" 
d="M500 1619v-211h-416v211h416zM500 1327v-1050c0 -123.333 -2.5 -206.833 -7.5 -250.5s-20.333 -82 -46 -115s-60 -57.5 -103 -73.5s-107.5 -24 -193.5 -24h-156v212c48 0 75 5.33301 81 16s9 77.334 9 200.001v1085h416z" />
    <glyph glyph-name="k" unicode="k" horiz-adv-x="979" 
d="M942 1327l-164 -529l213 -798h-389l-126 578v-578h-404v1619h404v-680l126 388h340z" />
    <glyph glyph-name="l" unicode="l" horiz-adv-x="561" 
d="M488 1619v-1619h-416v1619h416z" />
    <glyph glyph-name="m" unicode="m" horiz-adv-x="1579" 
d="M471 1327l-6.99805 -126c31.333 50 68.666 87.5 111.999 112.5s92.666 37.5 147.999 37.5c108 0 193 -50 255 -150c34 50 72.333 87.5 115 112.5s90 37.5 142 37.5c68.667 0 125.5 -16.667 170.5 -50s73.833 -74.166 86.5 -122.499s19 -126.833 19 -235.5v-943h-392v865
c0 113.333 -3.83301 183.5 -11.5 210.5s-25.5 40.5 -53.5 40.5c-28.667 0 -47.167 -13.333 -55.5 -40s-12.5 -97 -12.5 -211v-865h-392v843c0 130 -3.16699 208 -9.5 234s-23.833 39 -52.5 39c-18 0 -33.333 -6.83301 -46 -20.5s-19.667 -30.334 -21 -50.001
s-2 -61.5 -2 -125.5v-920h-392v1327h399z" />
    <glyph glyph-name="n" unicode="n" horiz-adv-x="1071" 
d="M483 1327l-6.99805 -121.999c29.333 48.667 65.166 85.167 107.499 109.5s91.166 36.5 146.499 36.5c69.333 0 126 -16.333 170 -49s72.333 -73.834 85 -123.501s19 -132.5 19 -248.5v-930h-404v919c0 91.333 -3 147 -9 167s-22.667 30 -50 30
c-28.667 0 -46.667 -11.5 -54 -34.5s-11 -84.5 -11 -184.5v-897h-404v1327h411z" />
    <glyph glyph-name="o" unicode="o" 
d="M986 861v-325c0 -119.333 -6 -206.833 -18 -262.5s-37.667 -107.667 -77 -156s-89.833 -84 -151.5 -107s-132.5 -34.5 -212.5 -34.5c-89.333 0 -165 9.83301 -227 29.5s-110.167 49.334 -144.5 89.001s-58.833 87.667 -73.5 144s-22 140.833 -22 253.5v340
c0 123.333 13.333 219.666 40 288.999s74.667 125 144 167s158 63 266 63c90.667 0 168.5 -13.5 233.5 -40.5s115.167 -62.167 150.5 -105.5s59.5 -88 72.5 -134s19.5 -116 19.5 -210zM582 961c0 68 -3.66699 110.834 -11 128.501s-23 26.5 -47 26.5s-40 -8.83301 -48 -26.5
s-12 -60.5 -12 -128.5v-599c0 -62.667 4 -103.5 12 -122.5s23.667 -28.5 47 -28.5c24 0 39.833 8.66699 47.5 26s11.5 54.666 11.5 111.999v612z" />
    <glyph glyph-name="p" unicode="p" horiz-adv-x="1063" 
d="M483 1327l-7.00098 -116.999c36 47.333 75.667 82.666 119 105.999s90.666 35 141.999 35c62.667 0 116.834 -16.833 162.501 -50.5s74.167 -72.5 85.5 -116.5s17 -118.667 17 -224v-559c0 -120.667 -7.16699 -206.5 -21.5 -257.5s-43.666 -91.667 -87.999 -122
s-97.833 -45.5 -160.5 -45.5c-50 0 -96.333 11.667 -139 35s-81.667 58 -117 104v-304h-404v1516h411zM597.999 941.001c0 82 -2.99902 131.667 -8.99902 149s-22.667 26 -50 26c-26.667 0 -43.834 -10 -51.501 -30s-11.5 -68.333 -11.5 -145v-550c0 -80 4 -130 12 -150
s25.333 -30 52 -30c26 0 42.167 9.16699 48.5 27.5s9.5 62.833 9.5 133.5v569z" />
    <glyph glyph-name="q" unicode="q" horiz-adv-x="1061" 
d="M988 1327l-0.00195312 -1516h-404v296c-39.333 -57.333 -75.5 -93.5 -108.5 -108.5s-73.833 -22.5 -122.5 -22.5c-70.667 0 -129.167 16.667 -175.5 50s-77.5 76.5 -93.5 129.5s-24 134.167 -24 243.5v585c0 90 6 157.167 18 201.5s40.833 83 86.5 116
s99.834 49.5 162.501 49.5c50.667 0 97.334 -11.333 140.001 -34s81.667 -57 117 -103l7 113h397zM583.998 966c0 58.667 -4.5 98.333 -13.5 119s-25.167 31 -48.5 31c-22.667 0 -38 -9 -46 -27s-12 -59 -12 -123v-591c0 -71.333 4 -116.5 12 -135.5s24.333 -28.5 49 -28.5
c23.333 0 39 9.83301 47 29.5s12 62.5 12 128.5v597z" />
    <glyph glyph-name="r" unicode="r" horiz-adv-x="733" 
d="M476 1327l-16 -173.999c58.667 124.667 143.667 190.667 255 198v-467c-74 0 -128.333 -10 -163 -30s-56 -47.833 -64 -83.5s-12 -117.834 -12 -246.501v-524h-404v1327h404z" />
    <glyph glyph-name="s" unicode="s" horiz-adv-x="964" 
d="M897 903l-358 0.000976562v72c0 61.333 -3.5 100.166 -10.5 116.499s-24.5 24.5 -52.5 24.5c-22.667 0 -39.667 -7.5 -51 -22.5s-17 -37.5 -17 -67.5c0 -40.667 2.83301 -70.5 8.5 -89.5s22.667 -39.833 51 -62.5s86.5 -55.667 174.5 -99
c117.333 -57.333 194.333 -111.333 231 -162s55 -124.334 55 -221.001c0 -108 -14 -189.5 -42 -244.5s-74.833 -97.333 -140.5 -127s-144.834 -44.5 -237.501 -44.5c-102.667 0 -190.5 16 -263.5 48s-123.167 75.333 -150.5 130s-41 137.334 -41 248.001v64h358v-84
c0 -71.333 4.5 -117.666 13.5 -138.999s26.833 -32 53.5 -32c28.667 0 48.667 7.16699 60 21.5s17 44.5 17 90.5c0 63.333 -7.33301 103 -22 119c-15.333 16 -93.666 63.333 -234.999 142c-118.667 66.667 -191 127.167 -217 181.5s-39 118.833 -39 193.5
c0 106 14 184.167 42 234.5s75.5 89.166 142.5 116.499s144.833 41 233.5 41c88 0 162.833 -11.167 224.5 -33.5s109 -51.833 142 -88.5s53 -70.667 60 -102s10.5 -80.333 10.5 -147v-77z" />
    <glyph glyph-name="t" unicode="t" horiz-adv-x="624" 
d="M498 1504v-209.002h109v-210h-109v-710c0 -87.333 4.5 -136 13.5 -146s46.5 -15 112.5 -15v-214h-163c-92 0 -157.667 3.83301 -197 11.5s-74 25.334 -104 53.001s-48.667 59.334 -56 95.001s-11 119.5 -11 251.5v674h-87v210h87v209h405z" />
    <glyph glyph-name="u" unicode="u" horiz-adv-x="1070" 
d="M997 1327v-1327h-411l7 110c-28 -44.667 -62.5 -78.167 -103.5 -100.5s-88.167 -33.5 -141.5 -33.5c-60.667 0 -111 10.667 -151 32s-69.5 49.666 -88.5 84.999s-30.833 72.166 -35.5 110.499s-7 114.5 -7 228.5v895h404v-903c0 -103.333 3.16699 -164.666 9.5 -183.999
s23.5 -29 51.5 -29c30 0 47.833 10 53.5 30s8.5 84.333 8.5 193v893h404z" />
    <glyph glyph-name="v" unicode="v" horiz-adv-x="895" 
d="M907 1327l-189.001 -1327h-527l-203 1327h361l113 -968c8.66699 70.667 23.334 244 44.001 520c12 154 25.333 303.333 40 448h361z" />
    <glyph glyph-name="w" unicode="w" horiz-adv-x="1371" 
d="M1377 1327l-161.001 -1327h-439c-24 162 -51.667 375.333 -83 640c-10.667 -116 -25.667 -233.333 -45 -352l-45 -288h-439l-171 1327h348c2.66699 -34.667 32 -287.667 88 -759c4 48 34 301 90 759h335l82 -759c12.667 221.333 43.334 474.333 92.001 759h348z" />
    <glyph glyph-name="x" unicode="x" horiz-adv-x="888" 
d="M872 1327l-161 -634l195 -693h-393c-38.667 174.667 -68 325 -88 451c-26.667 -157.333 -55.667 -307.666 -87 -450.999h-338l174 693l-174 634h338c54 -270.667 83 -424.334 87 -461.001c38.667 226 68 379.667 88 461h359z" />
    <glyph glyph-name="y" unicode="y" horiz-adv-x="918" 
d="M918 1327l-116 -960c-18 -152 -33.167 -255.667 -45.5 -311s-32.833 -101 -61.5 -137s-68.5 -62.5 -119.5 -79.5s-132.5 -25.5 -244.5 -25.5h-245v212c62.667 0 103 3.16699 121 9.5s27 20.5 27 42.5c0 10.667 -8.33301 57 -25 139l-221 1110h367l132 -895l64 895h367z
" />
    <glyph glyph-name="z" unicode="z" horiz-adv-x="719" 
d="M701 1327v-294l-298 -767h298v-266h-689v278l305 783h-274v266h658z" />
    <glyph glyph-name="braceleft" unicode="{" horiz-adv-x="757" 
d="M36 538l-0.00195312 240.001c72.667 0.666992 127.334 22.167 164.001 64.5s55 137.5 55 285.5c0 112.667 4.16699 196.167 12.5 250.5s28.5 99.833 60.5 136.5s73.333 63.167 124 79.5s122.334 24.5 215.001 24.5h53v-239c-96.667 0 -154.5 -10 -173.5 -30
s-29.167 -59 -30.5 -117c-4 -160 -9.16699 -264 -15.5 -312s-21 -93.833 -44 -137.5s-65.833 -85.5 -128.5 -125.5c59.333 -36 102.5 -79 129.5 -129s42.833 -122 47.5 -216l15 -291c6 -28 20.333 -49.167 43 -63.5s74.667 -21.5 156 -21.5v-240h-52
c-106.667 0 -189 12.167 -247 36.5s-100 64.166 -126 119.499s-39 144.666 -39 267.999c0 136 -4.66699 223 -14 261s-27.333 72.833 -54 104.5s-77 48.834 -151 51.501z" />
    <glyph glyph-name="bar" unicode="|" horiz-adv-x="555" 
d="M169 1619h217v-1884h-217v1884z" />
    <glyph glyph-name="braceright" unicode="}" horiz-adv-x="757" 
d="M720 538c-72.667 -0.666992 -127.333 -22.334 -164 -65.001s-55 -137.334 -55 -284.001c0 -113.333 -4 -197.166 -12 -251.499s-28 -99.833 -60 -136.5s-73.333 -63.167 -124 -79.5s-122.334 -24.5 -215.001 -24.5h-53v240c92.667 0 149.5 9.66699 170.5 29
s32.167 58.666 33.5 117.999c4 170.667 10.167 280.167 18.5 328.5s25 93.5 50 135.5s64.5 78.667 118.5 110c-57.333 37.333 -97.333 74 -120 110s-38 75.167 -46 117.5s-14 121 -18 236s-8.66699 180.833 -14 197.5s-18.166 31 -38.499 43s-72.166 18 -155.499 18v239h53
c106.667 0 189 -12.167 247 -36.5s100 -64.166 126 -119.499s39 -144.666 39 -267.999c0 -141.333 5.16699 -230.333 15.5 -267s28.666 -70.167 54.999 -100.5s75.833 -46.833 148.5 -49.5v-240z" />
    <glyph glyph-name="asciitilde" unicode="~" horiz-adv-x="1075" 
d="M1018 787c-105.333 -87.333 -200.002 -131 -284.002 -131c-57.333 0 -142.666 27.333 -255.999 82c-64.667 31.333 -112 47 -142 47c-72.667 0 -165.667 -54 -279 -162v277c98 85.333 194.333 128 289 128c56.667 0 134 -23.333 232 -70
c79.333 -38 135.666 -57 168.999 -57c30.667 0 63.334 8.83301 98.001 26.5s92.334 62.5 173.001 134.5v-275z" />
    <glyph glyph-name="dieresis" unicode="&#xa8;" horiz-adv-x="1024" 
 />
    <glyph glyph-name="copyright" unicode="&#xa9;" horiz-adv-x="1605" 
d="M782 1532c232 0 420.998 -76.667 566.998 -230s219 -332 219 -536c0 -210.667 -75 -391 -225 -541s-330.333 -225 -541 -225c-212 -0 -392.667 74.833 -542 224.5s-224 330.167 -224 541.5c0 145.333 37.833 279 113.5 401s172.834 213.333 291.501 274
s232.334 91 341.001 91zM817.998 1381c-184 0 -335.165 -61 -453.498 -183s-177.5 -266 -177.5 -432c0 -168.667 60.167 -313.334 180.5 -434.001s265.166 -181 434.499 -181s314.166 60.333 434.499 181s180.5 265.334 180.5 434.001c0 176 -62.167 322.5 -186.5 439.5
s-261.833 175.5 -412.5 175.5zM988 653l161.002 -55c-54 -173.333 -167 -260 -339 -260c-116.667 0 -209.834 38.5 -279.501 115.5s-104.5 179.833 -104.5 308.5c0 132.667 35.333 237.167 106 313.5s162 114.5 274 114.5c170.667 0 285 -81 343 -243l-162 -38
c-34.667 92.667 -94 139 -178 139c-66.667 0 -117.834 -25.167 -153.501 -75.5s-53.5 -116.833 -53.5 -199.5c0 -92.667 17.167 -164.5 51.5 -215.5s82.833 -76.5 145.5 -76.5c90 0 153 57.333 189 172z" />
    <glyph glyph-name="registered" unicode="&#xae;" horiz-adv-x="1605" 
d="M782 1532c228.667 0 416.833 -76 564.5 -228s221.5 -331.333 221.5 -538c0 -210.667 -75 -391 -225 -541s-330.333 -225 -541 -225c-212 -0 -392.667 74.833 -542 224.5s-224 330.167 -224 541.5c0 148.667 39.5 285.167 118.5 409.5s177.833 214.833 296.5 271.5
s229 85 331 85zM819.999 1383c-188 0 -340.335 -62 -457.002 -186s-175 -267.667 -175 -431c0 -169.333 60.333 -314.333 181 -435s265.667 -181 435 -181c168.667 0 313.334 60.333 434.001 181s181 265.667 181 435c0 116.667 -30.333 224.167 -91 322.5
s-138.667 172 -234 221s-186.666 73.5 -273.999 73.5zM464.997 357l-0.000976562 813.001h385c95.333 0 164.666 -22.167 207.999 -66.5s65 -98.833 65 -163.5c0 -62.667 -18.167 -113 -54.5 -151s-91.166 -63.667 -164.499 -77c33.333 -12.667 59.833 -29.834 79.5 -51.501
s50.834 -68.5 93.501 -140.5l95 -163h-203l-68 131c-40.667 78 -76.5 131.167 -107.5 159.5s-71.5 42.5 -121.5 42.5h-43v-333h-164zM628.996 819.001h134.001c67.333 0 115.166 8.83301 143.499 26.5s42.5 46.5 42.5 86.5c0 36 -14 63 -42 81s-70.333 27 -127 27h-151v-221
z" />
    <glyph glyph-name="acute" unicode="&#xb4;" horiz-adv-x="1024" 
 />
    <glyph glyph-name="paragraph" unicode="&#xb6;" horiz-adv-x="1024" 
d="M929 1435l-0.000976562 -70h-127v-1365h-82v1365h-166v-1365h-84v738c-116 5.33301 -207.833 39.5 -275.5 102.5s-101.5 144.833 -101.5 245.5c0 104.667 35.833 189 107.5 253s166.834 96 285.501 96h443z" />
    <glyph glyph-name="onequarter" unicode="&#xbc;" horiz-adv-x="1321" 
d="M1001 1650l-633 -1681h-154l635 1681h152zM440 1636l0.000976562 -852.998h-255v457c0 65.333 -1.66699 103.666 -5 114.999s-13.333 20.166 -30 26.499s-53.334 9.5 -110.001 9.5h-28v110c122 22 214.667 67 278 135h150zM1262 155.002v-155.001h-556v128
c166.667 229.333 264.5 369 293.5 419s43.5 89.667 43.5 119c0 40 -18 60 -54 60c-18.667 0 -32.334 -5.5 -41.001 -16.5s-13 -34.5 -13 -70.5v-85h-229v36c0 58.667 6.33301 106.334 19 143.001s40.334 68.334 83.001 95.001s99.667 40 171 40
c100 0 175.833 -21.167 227.5 -63.5s77.5 -96.5 77.5 -162.5c0 -48.667 -14.5 -99.834 -43.5 -153.501s-87.833 -135.5 -176.5 -245.5l-69 -88h267z" />
    <glyph glyph-name="onehalf" unicode="&#xbd;" horiz-adv-x="1277" 
d="M1001 1650l-633 -1681h-154l635 1681h152zM440 1636l0.000976562 -852.998h-255v457c0 65.333 -1.66699 103.666 -5 114.999s-13.333 20.166 -30 26.499s-53.334 9.5 -110.001 9.5h-28v110c122 22 214.667 67 278 135h150zM1182 854.002v-550h71v-156h-71v-148h-256v148
h-297v151l218 555h335zM926.001 304.002v335l-126 -335h126z" />
    <glyph glyph-name="threequarters" unicode="&#xbe;" horiz-adv-x="1416" 
d="M532 1263c30 -9.33301 54.1689 -27.001 72.502 -53.001s27.5 -82.333 27.5 -169c0 -113.333 -27.5 -187.5 -82.5 -222.5s-126.167 -52.5 -213.5 -52.5c-80.667 0 -143.834 11.667 -189.501 35s-75.5 52 -89.5 86s-21 90.667 -21 170v56h255v-127
c0 -35.333 2.33301 -57.166 7 -65.499s15.667 -12.5 33 -12.5c19.333 0 31.833 5.66699 37.5 17s8.5 42.666 8.5 93.999v54c0 44.667 -9 72.667 -27 84s-59.333 17.333 -124 18v134c72 0 115.167 4.33301 129.5 13s21.5 32.667 21.5 72v48
c0 29.333 -3.66699 47.666 -11 54.999s-18 11 -32 11c-16.667 0 -28 -4 -34 -12s-9 -28 -9 -60v-59h-255v62c0 83.333 21.833 139.333 65.5 168s114.167 43 211.5 43c118 0 199 -19.667 243 -59s66 -96 66 -170c0 -31.333 -5.33301 -61.166 -16 -89.499
s-35.334 -51.166 -74.001 -68.499zM1139 1650l-632 -1681h-154l634 1681h152zM1320 853.999v-550h71v-156h-71v-148h-255v148h-298v151l218 555h335zM1065 303.999v335l-127 -335h127z" />
    <glyph glyph-name="Agrave" unicode="&#xc0;" horiz-adv-x="1040" 
d="M811 1619l241 -1619h-431l-21 291h-151l-25 -291h-436l214 1619h609zM588 578c-21.333 183.333 -42.666 409.666 -63.999 678.999c-42.667 -309.333 -69.334 -535.666 -80.001 -678.999h144zM471 1896l135 -208h-156l-252 208h273z" />
    <glyph glyph-name="Aacute" unicode="&#xc1;" horiz-adv-x="1040" 
d="M811 1619l241 -1619h-431l-21 291h-151l-25 -291h-436l214 1619h609zM588 578c-21.333 183.333 -42.666 409.666 -63.999 678.999c-42.667 -309.333 -69.334 -535.666 -80.001 -678.999h144zM834 1896l-252 -208h-156l135 208h273z" />
    <glyph glyph-name="Acircumflex" unicode="&#xc2;" horiz-adv-x="1040" 
d="M811 1619l241 -1619h-431l-21 291h-151l-25 -291h-436l214 1619h609zM588 578c-21.333 183.333 -42.666 409.666 -63.999 678.999c-42.667 -309.333 -69.334 -535.666 -80.001 -678.999h144zM515 1800l-79 -112h-190l174 242h191l163 -242h-184z" />
    <glyph glyph-name="Atilde" unicode="&#xc3;" horiz-adv-x="1040" 
d="M811 1619l241 -1619h-431l-21 291h-151l-25 -291h-436l214 1619h609zM588 578c-21.333 183.333 -42.666 409.666 -63.999 678.999c-42.667 -309.333 -69.334 -535.666 -80.001 -678.999h144zM732 1902l53.001 -119.001c-10.667 -12 -23 -24.667 -37 -38
c-7.33301 -6.66699 -18.333 -15.667 -33 -27c-26 -17.333 -54 -26 -84 -26l-38 3l-37 11l-43 19l-73 29l-28 5l-28 1c-22 0 -42.333 -7.66699 -61 -23c-10.667 -9.33301 -22.334 -25.666 -35.001 -48.999l-41 127c6.66699 10.667 13.667 20.667 21 30
c7.33301 8 17 17.333 29 28c27.333 17.333 57.666 26 90.999 26c8 0 16.667 -0.333008 26 -1c10 -2 22 -5 36 -9l35 -9l30 -13l63 -25c18.667 -7.33301 36.334 -11 53.001 -11c24 0 46.667 11 68 33z" />
    <glyph glyph-name="Egrave" unicode="&#xc8;" horiz-adv-x="851" 
d="M84 1619h702v-324h-281v-307h263v-308h-263v-356h309v-324h-730v1619zM382 1896l135 -208h-156l-252 208h273z" />
    <glyph glyph-name="Eacute" unicode="&#xc9;" horiz-adv-x="851" 
d="M84 1619h702v-324h-281v-307h263v-308h-263v-356h309v-324h-730v1619zM765 1896l-252 -208h-156l135 208h273z" />
    <glyph glyph-name="Ecircumflex" unicode="&#xca;" horiz-adv-x="851" 
d="M84 1619h702v-324h-281v-307h263v-308h-263v-356h309v-324h-730v1619zM454 1800l-79 -112h-190l174 242h191l163 -242h-184z" />
    <glyph glyph-name="Igrave" unicode="&#xcc;" horiz-adv-x="590" 
d="M505 1619v-1619h-421v1619h421zM244 1896l135 -208h-156l-252 208h273z" />
    <glyph glyph-name="Iacute" unicode="&#xcd;" horiz-adv-x="590" 
d="M505 1619v-1619h-421v1619h421zM617 1896l-252 -208h-156l135 208h273z" />
    <glyph glyph-name="Ograve" unicode="&#xd2;" horiz-adv-x="1119" 
d="M1046 671c0 -162.667 -3.83301 -277.834 -11.5 -345.501s-31.667 -129.5 -72 -185.5s-94.833 -99 -163.5 -129s-148.667 -45 -240 -45c-86.667 0 -164.5 14.167 -233.5 42.5s-124.5 70.833 -166.5 127.5s-67 118.334 -75 185.001s-12 183.334 -12 350.001v277
c0 162.667 3.83301 277.834 11.5 345.501s31.667 129.5 72 185.5s94.833 99 163.5 129s148.667 45 240 45c86.667 0 164.5 -14.167 233.5 -42.5s124.5 -70.833 166.5 -127.5s67 -118.334 75 -185.001s12 -183.334 12 -350.001v-277zM625 1203
c0 75.333 -4.16699 123.501 -12.5 144.501s-25.5 31.5 -51.5 31.5c-22 0 -38.833 -8.5 -50.5 -25.5s-17.5 -67.167 -17.5 -150.5v-756c0 -94 3.83301 -152 11.5 -174s25.5 -33 53.5 -33c28.667 0 47 12.667 55 38s12 85.666 12 180.999v744zM561 1896l135 -208h-156
l-252 208h273z" />
    <glyph glyph-name="Oacute" unicode="&#xd3;" horiz-adv-x="1119" 
d="M1046 671c0 -162.667 -3.83301 -277.834 -11.5 -345.501s-31.667 -129.5 -72 -185.5s-94.833 -99 -163.5 -129s-148.667 -45 -240 -45c-86.667 0 -164.5 14.167 -233.5 42.5s-124.5 70.833 -166.5 127.5s-67 118.334 -75 185.001s-12 183.334 -12 350.001v277
c0 162.667 3.83301 277.834 11.5 345.501s31.667 129.5 72 185.5s94.833 99 163.5 129s148.667 45 240 45c86.667 0 164.5 -14.167 233.5 -42.5s124.5 -70.833 166.5 -127.5s67 -118.334 75 -185.001s12 -183.334 12 -350.001v-277zM625 1203
c0 75.333 -4.16699 123.501 -12.5 144.501s-25.5 31.5 -51.5 31.5c-22 0 -38.833 -8.5 -50.5 -25.5s-17.5 -67.167 -17.5 -150.5v-756c0 -94 3.83301 -152 11.5 -174s25.5 -33 53.5 -33c28.667 0 47 12.667 55 38s12 85.666 12 180.999v744zM874 1896l-252 -208h-156
l135 208h273z" />
    <glyph glyph-name="Ocircumflex" unicode="&#xd4;" horiz-adv-x="1119" 
d="M1046 671c0 -162.667 -3.83301 -277.834 -11.5 -345.501s-31.667 -129.5 -72 -185.5s-94.833 -99 -163.5 -129s-148.667 -45 -240 -45c-86.667 0 -164.5 14.167 -233.5 42.5s-124.5 70.833 -166.5 127.5s-67 118.334 -75 185.001s-12 183.334 -12 350.001v277
c0 162.667 3.83301 277.834 11.5 345.501s31.667 129.5 72 185.5s94.833 99 163.5 129s148.667 45 240 45c86.667 0 164.5 -14.167 233.5 -42.5s124.5 -70.833 166.5 -127.5s67 -118.334 75 -185.001s12 -183.334 12 -350.001v-277zM625 1203
c0 75.333 -4.16699 123.501 -12.5 144.501s-25.5 31.5 -51.5 31.5c-22 0 -38.833 -8.5 -50.5 -25.5s-17.5 -67.167 -17.5 -150.5v-756c0 -94 3.83301 -152 11.5 -174s25.5 -33 53.5 -33c28.667 0 47 12.667 55 38s12 85.666 12 180.999v744zM564 1800l-79 -112h-190l174 242
h191l163 -242h-184z" />
    <glyph glyph-name="Otilde" unicode="&#xd5;" horiz-adv-x="1119" 
d="M1046 671c0 -162.667 -3.83301 -277.834 -11.5 -345.501s-31.667 -129.5 -72 -185.5s-94.833 -99 -163.5 -129s-148.667 -45 -240 -45c-86.667 0 -164.5 14.167 -233.5 42.5s-124.5 70.833 -166.5 127.5s-67 118.334 -75 185.001s-12 183.334 -12 350.001v277
c0 162.667 3.83301 277.834 11.5 345.501s31.667 129.5 72 185.5s94.833 99 163.5 129s148.667 45 240 45c86.667 0 164.5 -14.167 233.5 -42.5s124.5 -70.833 166.5 -127.5s67 -118.334 75 -185.001s12 -183.334 12 -350.001v-277zM625 1203
c0 75.333 -4.16699 123.501 -12.5 144.501s-25.5 31.5 -51.5 31.5c-22 0 -38.833 -8.5 -50.5 -25.5s-17.5 -67.167 -17.5 -150.5v-756c0 -94 3.83301 -152 11.5 -174s25.5 -33 53.5 -33c28.667 0 47 12.667 55 38s12 85.666 12 180.999v744zM775 1902l53.001 -119.001
c-10.667 -12 -23 -24.667 -37 -38c-7.33301 -6.66699 -18.333 -15.667 -33 -27c-26 -17.333 -54 -26 -84 -26l-38 3l-37 11l-43 19l-73 29l-28 5l-28 1c-22 0 -42.333 -7.66699 -61 -23c-10.667 -9.33301 -22.334 -25.666 -35.001 -48.999l-41 127
c6.66699 10.667 13.667 20.667 21 30c7.33301 8 17 17.333 29 28c27.333 17.333 57.666 26 90.999 26c8 0 16.667 -0.333008 26 -1c10 -2 22 -5 36 -9l35 -9l30 -13l63 -25c18.667 -7.33301 36.334 -11 53.001 -11c24 0 46.667 11 68 33z" />
    <glyph glyph-name="Ugrave" unicode="&#xd9;" horiz-adv-x="1120" 
d="M1041 1619l-0.00195312 -1082c0 -122.667 -4 -208.834 -12 -258.501s-31.667 -100.667 -71 -153s-91.166 -92 -155.499 -119s-140.166 -40.5 -227.499 -40.5c-96.667 0 -182 16 -256 48s-129.333 73.667 -166 125s-58.334 105.5 -65.001 162.5s-10 176.833 -10 359.5v958
h421v-1214c0 -70.667 3.83301 -115.834 11.5 -135.501s23.167 -29.5 46.5 -29.5c26.667 0 43.834 10.833 51.501 32.5s11.5 72.834 11.5 153.501v1193h421zM510.998 1896l135 -208h-156l-252 208h273z" />
    <glyph glyph-name="Uacute" unicode="&#xda;" horiz-adv-x="1120" 
d="M1041 1619l-0.00195312 -1082c0 -122.667 -4 -208.834 -12 -258.501s-31.667 -100.667 -71 -153s-91.166 -92 -155.499 -119s-140.166 -40.5 -227.499 -40.5c-96.667 0 -182 16 -256 48s-129.333 73.667 -166 125s-58.334 105.5 -65.001 162.5s-10 176.833 -10 359.5v958
h421v-1214c0 -70.667 3.83301 -115.834 11.5 -135.501s23.167 -29.5 46.5 -29.5c26.667 0 43.834 10.833 51.501 32.5s11.5 72.834 11.5 153.501v1193h421zM873.998 1896l-252 -208h-156l135 208h273z" />
    <glyph glyph-name="Yacute" unicode="&#xdd;" horiz-adv-x="969" 
d="M981 1619l-307 -1033v-586h-390v586l-296 1033h387c60.667 -315.333 94.667 -527.666 102 -636.999c23.333 172.667 62.333 385 117 637h387zM815 1896l-252 -208h-156l135 208h273z" />
    <glyph glyph-name="agrave" unicode="&#xe0;" horiz-adv-x="1032" 
d="M433 813l-379 -0.00390625v89c0 102.667 11.833 181.834 35.5 237.501s71.167 104.834 142.5 147.501s164 64 278 64c136.667 0 239.667 -24.167 309 -72.5s111 -107.666 125 -177.999s21 -215.166 21 -434.499v-666h-393v118
c-24.667 -47.333 -56.5 -82.833 -95.5 -106.5s-85.5 -35.5 -139.5 -35.5c-70.667 0 -135.5 19.833 -194.5 59.5s-88.5 126.5 -88.5 260.5v109c0 99.333 15.667 167 47 203s109 78 233 126c132.667 52 203.667 87 213 105s14 54.667 14 110
c0 69.333 -5.16699 114.5 -15.5 135.5s-27.5 31.5 -51.5 31.5c-27.333 0 -44.333 -8.83301 -51 -26.5s-10 -63.5 -10 -137.5v-139zM561 630.996c-64.667 -47.333 -102.167 -87.001 -112.5 -119.001s-15.5 -78 -15.5 -138c0 -68.667 4.5 -113 13.5 -133s26.833 -30 53.5 -30
c25.333 0 41.833 7.83301 49.5 23.5s11.5 56.834 11.5 123.501v273zM491 1645l135 -208h-156l-252 208h273z" />
    <glyph glyph-name="aacute" unicode="&#xe1;" horiz-adv-x="1032" 
d="M433 813l-379 -0.00390625v89c0 102.667 11.833 181.834 35.5 237.501s71.167 104.834 142.5 147.501s164 64 278 64c136.667 0 239.667 -24.167 309 -72.5s111 -107.666 125 -177.999s21 -215.166 21 -434.499v-666h-393v118
c-24.667 -47.333 -56.5 -82.833 -95.5 -106.5s-85.5 -35.5 -139.5 -35.5c-70.667 0 -135.5 19.833 -194.5 59.5s-88.5 126.5 -88.5 260.5v109c0 99.333 15.667 167 47 203s109 78 233 126c132.667 52 203.667 87 213 105s14 54.667 14 110
c0 69.333 -5.16699 114.5 -15.5 135.5s-27.5 31.5 -51.5 31.5c-27.333 0 -44.333 -8.83301 -51 -26.5s-10 -63.5 -10 -137.5v-139zM561 630.996c-64.667 -47.333 -102.167 -87.001 -112.5 -119.001s-15.5 -78 -15.5 -138c0 -68.667 4.5 -113 13.5 -133s26.833 -30 53.5 -30
c25.333 0 41.833 7.83301 49.5 23.5s11.5 56.834 11.5 123.501v273zM834 1645l-252 -208h-156l135 208h273z" />
    <glyph glyph-name="acircumflex" unicode="&#xe2;" horiz-adv-x="1032" 
d="M433 813l-379 -0.00390625v89c0 102.667 11.833 181.834 35.5 237.501s71.167 104.834 142.5 147.501s164 64 278 64c136.667 0 239.667 -24.167 309 -72.5s111 -107.666 125 -177.999s21 -215.166 21 -434.499v-666h-393v118
c-24.667 -47.333 -56.5 -82.833 -95.5 -106.5s-85.5 -35.5 -139.5 -35.5c-70.667 0 -135.5 19.833 -194.5 59.5s-88.5 126.5 -88.5 260.5v109c0 99.333 15.667 167 47 203s109 78 233 126c132.667 52 203.667 87 213 105s14 54.667 14 110
c0 69.333 -5.16699 114.5 -15.5 135.5s-27.5 31.5 -51.5 31.5c-27.333 0 -44.333 -8.83301 -51 -26.5s-10 -63.5 -10 -137.5v-139zM561 630.996c-64.667 -47.333 -102.167 -87.001 -112.5 -119.001s-15.5 -78 -15.5 -138c0 -68.667 4.5 -113 13.5 -133s26.833 -30 53.5 -30
c25.333 0 41.833 7.83301 49.5 23.5s11.5 56.834 11.5 123.501v273zM499 1517l-80 -112h-189l174 242h190l163 -242h-183z" />
    <glyph glyph-name="atilde" unicode="&#xe3;" horiz-adv-x="1032" 
d="M433 813l-379 -0.00390625v89c0 102.667 11.833 181.834 35.5 237.501s71.167 104.834 142.5 147.501s164 64 278 64c136.667 0 239.667 -24.167 309 -72.5s111 -107.666 125 -177.999s21 -215.166 21 -434.499v-666h-393v118
c-24.667 -47.333 -56.5 -82.833 -95.5 -106.5s-85.5 -35.5 -139.5 -35.5c-70.667 0 -135.5 19.833 -194.5 59.5s-88.5 126.5 -88.5 260.5v109c0 99.333 15.667 167 47 203s109 78 233 126c132.667 52 203.667 87 213 105s14 54.667 14 110
c0 69.333 -5.16699 114.5 -15.5 135.5s-27.5 31.5 -51.5 31.5c-27.333 0 -44.333 -8.83301 -51 -26.5s-10 -63.5 -10 -137.5v-139zM561 630.996c-64.667 -47.333 -102.167 -87.001 -112.5 -119.001s-15.5 -78 -15.5 -138c0 -68.667 4.5 -113 13.5 -133s26.833 -30 53.5 -30
c25.333 0 41.833 7.83301 49.5 23.5s11.5 56.834 11.5 123.501v273zM732 1626l53.001 -119.001c-10.667 -12 -23 -24.667 -37 -38c-7.33301 -6.66699 -18.333 -15.667 -33 -27c-26 -17.333 -54 -26 -84 -26l-38 3l-37 11l-43 19l-73 29l-28 5l-28 1
c-22 0 -42.333 -7.66699 -61 -23c-10.667 -9.33301 -22.334 -25.666 -35.001 -48.999l-41 127c6.66699 10.667 13.667 20.667 21 30c7.33301 8 17 17.333 29 28c27.333 17.333 57.666 26 90.999 26c8 0 16.667 -0.333008 26 -1c10 -2 22 -5 36 -9l35 -9l30 -13l63 -25
c18.667 -7.33301 36.334 -11 53.001 -11c24 0 46.667 11 68 33z" />
    <glyph glyph-name="egrave" unicode="&#xe8;" 
d="M987 640l-523.003 -0.000976562v-287c0 -60 4.33301 -98.667 13 -116s25.334 -26 50.001 -26c30.667 0 51.167 11.5 61.5 34.5s15.5 67.5 15.5 133.5v175h383v-98c0 -82 -5.16699 -145 -15.5 -189s-34.5 -91 -72.5 -141s-86.167 -87.5 -144.5 -112.5
s-131.5 -37.5 -219.5 -37.5c-85.333 0 -160.666 12.333 -225.999 37s-116.166 58.5 -152.499 101.5s-61.5 90.333 -75.5 142s-21 126.834 -21 225.501v387c0 116 15.667 207.5 47 274.5s82.666 118.333 153.999 154s153.333 53.5 246 53.5
c113.333 0 206.833 -21.5 280.5 -64.5s125.334 -100 155.001 -171s44.5 -170.833 44.5 -299.5v-176zM581.997 855.999v97c0 68.667 -3.66699 113 -11 133s-22.333 30 -45 30c-28 0 -45.333 -8.5 -52 -25.5s-10 -62.833 -10 -137.5v-97h118zM490.997 1645l135 -208h-156
l-252 208h273z" />
    <glyph glyph-name="eacute" unicode="&#xe9;" 
d="M987 640l-523.003 -0.000976562v-287c0 -60 4.33301 -98.667 13 -116s25.334 -26 50.001 -26c30.667 0 51.167 11.5 61.5 34.5s15.5 67.5 15.5 133.5v175h383v-98c0 -82 -5.16699 -145 -15.5 -189s-34.5 -91 -72.5 -141s-86.167 -87.5 -144.5 -112.5
s-131.5 -37.5 -219.5 -37.5c-85.333 0 -160.666 12.333 -225.999 37s-116.166 58.5 -152.499 101.5s-61.5 90.333 -75.5 142s-21 126.834 -21 225.501v387c0 116 15.667 207.5 47 274.5s82.666 118.333 153.999 154s153.333 53.5 246 53.5
c113.333 0 206.833 -21.5 280.5 -64.5s125.334 -100 155.001 -171s44.5 -170.833 44.5 -299.5v-176zM581.997 855.999v97c0 68.667 -3.66699 113 -11 133s-22.333 30 -45 30c-28 0 -45.333 -8.5 -52 -25.5s-10 -62.833 -10 -137.5v-97h118zM853.997 1645l-252 -208h-156
l135 208h273z" />
    <glyph glyph-name="ecircumflex" unicode="&#xea;" 
d="M987 640l-523.003 -0.000976562v-287c0 -60 4.33301 -98.667 13 -116s25.334 -26 50.001 -26c30.667 0 51.167 11.5 61.5 34.5s15.5 67.5 15.5 133.5v175h383v-98c0 -82 -5.16699 -145 -15.5 -189s-34.5 -91 -72.5 -141s-86.167 -87.5 -144.5 -112.5
s-131.5 -37.5 -219.5 -37.5c-85.333 0 -160.666 12.333 -225.999 37s-116.166 58.5 -152.499 101.5s-61.5 90.333 -75.5 142s-21 126.834 -21 225.501v387c0 116 15.667 207.5 47 274.5s82.666 118.333 153.999 154s153.333 53.5 246 53.5
c113.333 0 206.833 -21.5 280.5 -64.5s125.334 -100 155.001 -171s44.5 -170.833 44.5 -299.5v-176zM581.997 855.999v97c0 68.667 -3.66699 113 -11 133s-22.333 30 -45 30c-28 0 -45.333 -8.5 -52 -25.5s-10 -62.833 -10 -137.5v-97h118zM528.997 1517l-80 -112h-189
l174 242h190l163 -242h-183z" />
    <glyph glyph-name="igrave" unicode="&#xec;" horiz-adv-x="561" 
d="M488 1327v-1327h-416v1327h416zM233 1645l135 -208h-156l-252 208h273z" />
    <glyph glyph-name="iacute" unicode="&#xed;" horiz-adv-x="561" 
d="M488 1327v-1327h-416v1327h416zM596 1645l-252 -208h-156l135 208h273z" />
    <glyph glyph-name="ograve" unicode="&#xf2;" 
d="M986 861v-325c0 -119.333 -6 -206.833 -18 -262.5s-37.667 -107.667 -77 -156s-89.833 -84 -151.5 -107s-132.5 -34.5 -212.5 -34.5c-89.333 0 -165 9.83301 -227 29.5s-110.167 49.334 -144.5 89.001s-58.833 87.667 -73.5 144s-22 140.833 -22 253.5v340
c0 123.333 13.333 219.666 40 288.999s74.667 125 144 167s158 63 266 63c90.667 0 168.5 -13.5 233.5 -40.5s115.167 -62.167 150.5 -105.5s59.5 -88 72.5 -134s19.5 -116 19.5 -210zM582 961c0 68 -3.66699 110.834 -11 128.501s-23 26.5 -47 26.5s-40 -8.83301 -48 -26.5
s-12 -60.5 -12 -128.5v-599c0 -62.667 4 -103.5 12 -122.5s23.667 -28.5 47 -28.5c24 0 39.833 8.66699 47.5 26s11.5 54.666 11.5 111.999v612zM491 1645l135 -208h-156l-252 208h273z" />
    <glyph glyph-name="oacute" unicode="&#xf3;" 
d="M986 861v-325c0 -119.333 -6 -206.833 -18 -262.5s-37.667 -107.667 -77 -156s-89.833 -84 -151.5 -107s-132.5 -34.5 -212.5 -34.5c-89.333 0 -165 9.83301 -227 29.5s-110.167 49.334 -144.5 89.001s-58.833 87.667 -73.5 144s-22 140.833 -22 253.5v340
c0 123.333 13.333 219.666 40 288.999s74.667 125 144 167s158 63 266 63c90.667 0 168.5 -13.5 233.5 -40.5s115.167 -62.167 150.5 -105.5s59.5 -88 72.5 -134s19.5 -116 19.5 -210zM582 961c0 68 -3.66699 110.834 -11 128.501s-23 26.5 -47 26.5s-40 -8.83301 -48 -26.5
s-12 -60.5 -12 -128.5v-599c0 -62.667 4 -103.5 12 -122.5s23.667 -28.5 47 -28.5c24 0 39.833 8.66699 47.5 26s11.5 54.666 11.5 111.999v612zM854 1645l-252 -208h-156l135 208h273z" />
    <glyph glyph-name="ocircumflex" unicode="&#xf4;" 
d="M986 861v-325c0 -119.333 -6 -206.833 -18 -262.5s-37.667 -107.667 -77 -156s-89.833 -84 -151.5 -107s-132.5 -34.5 -212.5 -34.5c-89.333 0 -165 9.83301 -227 29.5s-110.167 49.334 -144.5 89.001s-58.833 87.667 -73.5 144s-22 140.833 -22 253.5v340
c0 123.333 13.333 219.666 40 288.999s74.667 125 144 167s158 63 266 63c90.667 0 168.5 -13.5 233.5 -40.5s115.167 -62.167 150.5 -105.5s59.5 -88 72.5 -134s19.5 -116 19.5 -210zM582 961c0 68 -3.66699 110.834 -11 128.501s-23 26.5 -47 26.5s-40 -8.83301 -48 -26.5
s-12 -60.5 -12 -128.5v-599c0 -62.667 4 -103.5 12 -122.5s23.667 -28.5 47 -28.5c24 0 39.833 8.66699 47.5 26s11.5 54.666 11.5 111.999v612zM529 1517l-80 -112h-189l174 242h190l163 -242h-183z" />
    <glyph glyph-name="otilde" unicode="&#xf5;" 
d="M986 861v-325c0 -119.333 -6 -206.833 -18 -262.5s-37.667 -107.667 -77 -156s-89.833 -84 -151.5 -107s-132.5 -34.5 -212.5 -34.5c-89.333 0 -165 9.83301 -227 29.5s-110.167 49.334 -144.5 89.001s-58.833 87.667 -73.5 144s-22 140.833 -22 253.5v340
c0 123.333 13.333 219.666 40 288.999s74.667 125 144 167s158 63 266 63c90.667 0 168.5 -13.5 233.5 -40.5s115.167 -62.167 150.5 -105.5s59.5 -88 72.5 -134s19.5 -116 19.5 -210zM582 961c0 68 -3.66699 110.834 -11 128.501s-23 26.5 -47 26.5s-40 -8.83301 -48 -26.5
s-12 -60.5 -12 -128.5v-599c0 -62.667 4 -103.5 12 -122.5s23.667 -28.5 47 -28.5c24 0 39.833 8.66699 47.5 26s11.5 54.666 11.5 111.999v612zM732 1619l53.001 -119.001c-10.667 -12 -23 -24.667 -37 -38c-7.33301 -6.66699 -18.333 -15.667 -33 -27
c-26 -17.333 -54 -26 -84 -26l-38 3l-37 11l-43 19l-73 29l-28 5l-28 1c-22 0 -42.333 -7.66699 -61 -23c-10.667 -9.33301 -22.334 -25.666 -35.001 -48.999l-41 127c6.66699 10.667 13.667 20.667 21 30c7.33301 8 17 17.333 29 28c27.333 17.333 57.666 26 90.999 26
c8 0 16.667 -0.333008 26 -1c10 -2 22 -5 36 -9l35 -9l30 -13l63 -25c18.667 -7.33301 36.334 -11 53.001 -11c24 0 46.667 11 68 33z" />
    <glyph glyph-name="divide" unicode="&#xf7;" horiz-adv-x="1706" 
 />
    <glyph glyph-name="glyph216" unicode="&#xf9;" horiz-adv-x="1070" 
d="M997 1327v-1327h-411l7 110c-28 -44.667 -62.5 -78.167 -103.5 -100.5s-88.167 -33.5 -141.5 -33.5c-60.667 0 -111 10.667 -151 32s-69.5 49.666 -88.5 84.999s-30.833 72.166 -35.5 110.499s-7 114.5 -7 228.5v895h404v-903c0 -103.333 3.16699 -164.666 9.5 -183.999
s23.5 -29 51.5 -29c30 0 47.833 10 53.5 30s8.5 84.333 8.5 193v893h404zM491 1645l135 -208h-156l-252 208h273z" />
    <glyph glyph-name="glyph217" unicode="&#xfa;" horiz-adv-x="1070" 
d="M997 1327v-1327h-411l7 110c-28 -44.667 -62.5 -78.167 -103.5 -100.5s-88.167 -33.5 -141.5 -33.5c-60.667 0 -111 10.667 -151 32s-69.5 49.666 -88.5 84.999s-30.833 72.166 -35.5 110.499s-7 114.5 -7 228.5v895h404v-903c0 -103.333 3.16699 -164.666 9.5 -183.999
s23.5 -29 51.5 -29c30 0 47.833 10 53.5 30s8.5 84.333 8.5 193v893h404zM854 1645l-252 -208h-156l135 208h273z" />
    <glyph glyph-name="glyph234" unicode="&#xfd;" horiz-adv-x="918" 
d="M918 1327l-116 -960c-18 -152 -33.167 -255.667 -45.5 -311s-32.833 -101 -61.5 -137s-68.5 -62.5 -119.5 -79.5s-132.5 -25.5 -244.5 -25.5h-245v212c62.667 0 103 3.16699 121 9.5s27 20.5 27 42.5c0 10.667 -8.33301 57 -25 139l-221 1110h367l132 -895l64 895h367z
M776 1645l-252 -208h-156l135 208h273z" />
    <glyph glyph-name="Abreve" unicode="&#x102;" horiz-adv-x="1040" 
d="M811 1619l241 -1619h-431l-21 291h-151l-25 -291h-436l214 1619h609zM588 578c-21.333 183.333 -42.666 409.666 -63.999 678.999c-42.667 -309.333 -69.334 -535.666 -80.001 -678.999h144zM384 1922c0 -33.333 11.335 -59.665 34.002 -78.998
c22.667 -17.333 53.334 -26 92.001 -26c39.333 0 68.666 7.33301 87.999 22c18 15.333 30.333 43 37 83h130c0 -76.667 -23.333 -134.834 -70 -174.501s-108.334 -59.5 -185.001 -59.5c-80.667 0 -143.334 18.667 -188.001 56c-45.333 37.333 -68 96.666 -68 177.999h130z
" />
    <glyph glyph-name="abreve" unicode="&#x103;" horiz-adv-x="1032" 
d="M433 813l-379 -0.00390625v89c0 102.667 11.833 181.834 35.5 237.501s71.167 104.834 142.5 147.501s164 64 278 64c136.667 0 239.667 -24.167 309 -72.5s111 -107.666 125 -177.999s21 -215.166 21 -434.499v-666h-393v118
c-24.667 -47.333 -56.5 -82.833 -95.5 -106.5s-85.5 -35.5 -139.5 -35.5c-70.667 0 -135.5 19.833 -194.5 59.5s-88.5 126.5 -88.5 260.5v109c0 99.333 15.667 167 47 203s109 78 233 126c132.667 52 203.667 87 213 105s14 54.667 14 110
c0 69.333 -5.16699 114.5 -15.5 135.5s-27.5 31.5 -51.5 31.5c-27.333 0 -44.333 -8.83301 -51 -26.5s-10 -63.5 -10 -137.5v-139zM561 630.996c-64.667 -47.333 -102.167 -87.001 -112.5 -119.001s-15.5 -78 -15.5 -138c0 -68.667 4.5 -113 13.5 -133s26.833 -30 53.5 -30
c25.333 0 41.833 7.83301 49.5 23.5s11.5 56.834 11.5 123.501v273zM384 1639c0 -33.333 11.335 -59.665 34.002 -78.998c22.667 -17.333 53.334 -26 92.001 -26c39.333 0 68.666 7.33301 87.999 22c18 15.333 30.333 43 37 83h130c0 -76.667 -23.333 -134.834 -70 -174.501
s-108.334 -59.5 -185.001 -59.5c-80.667 0 -143.334 18.667 -188.001 56c-45.333 37.333 -68 96.666 -68 177.999h130z" />
    <glyph glyph-name="Ccaron" unicode="&#x10c;" horiz-adv-x="1274" 
 />
    <glyph glyph-name="ccaron" unicode="&#x10d;" horiz-adv-x="922" 
 />
    <glyph glyph-name="Dslash" unicode="&#x110;" horiz-adv-x="1144" 
d="M96 810h-81.999v172h82v637h315c203.333 0 340.833 -9.33301 412.5 -28s126.167 -49.334 163.5 -92.001s60.666 -90.167 69.999 -142.5s14 -155.166 14 -308.499v-567c0 -145.333 -6.83301 -242.5 -20.5 -291.5s-37.5 -87.333 -71.5 -115s-76 -47 -126 -58
s-125.333 -16.5 -226 -16.5h-531v810zM517.001 810v-533.001c60.667 0 98 12.167 112 36.5s21 90.5 21 198.5v629c0 73.333 -2.33301 120.333 -7 141s-15.167 35.834 -31.5 45.501s-47.833 14.5 -94.5 14.5v-360h66v-172h-66z" />
    <glyph glyph-name="dcroat" unicode="&#x111;" horiz-adv-x="1064" 
d="M991 1571h69.999v-172h-70v-1399h-404v96c-78 -80 -163.333 -120 -256 -120c-62.667 0 -117 16.5 -163 49.5s-75.5 71.167 -88.5 114.5s-19.5 114 -19.5 212v621c0 102 6.5 174.333 19.5 217s42.833 80.167 89.5 112.5s102.334 48.5 167.001 48.5
c99.333 0 183 -36 251 -108v156h-251v172h251v48h404v-48zM586.999 993c0 48.667 -4.16699 81.333 -12.5 98s-24.833 25 -49.5 25c-24 0 -40.167 -7.5 -48.5 -22.5s-12.5 -48.5 -12.5 -100.5v-650c0 -54 4 -89.5 12 -106.5s23.333 -25.5 46 -25.5c26 0 43.333 9.5 52 28.5
s13 65.5 13 139.5v614z" />
    <glyph glyph-name="Itilde" unicode="&#x128;" horiz-adv-x="590" 
d="M505 1619v-1619h-421v1619h421zM517 1902l53.001 -119.001c-10.667 -12 -23 -24.667 -37 -38c-7.33301 -6.66699 -18.333 -15.667 -33 -27c-26 -17.333 -54 -26 -84 -26l-38 3l-37 11l-43 19l-73 29l-28 5l-28 1c-22 0 -42.333 -7.66699 -61 -23
c-10.667 -9.33301 -22.334 -25.666 -35.001 -48.999l-41 127c6.66699 10.667 13.667 20.667 21 30c7.33301 8 17 17.333 29 28c27.333 17.333 57.666 26 90.999 26c8 0 16.667 -0.333008 26 -1c10 -2 22 -5 36 -9l35 -9l30 -13l63 -25
c18.667 -7.33301 36.334 -11 53.001 -11c24 0 46.667 11 68 33z" />
    <glyph glyph-name="itilde" unicode="&#x129;" horiz-adv-x="561" 
d="M486 1327v-1327h-416v1327h416zM494 1626l53.001 -119.001c-10.667 -12 -23 -24.667 -37 -38c-7.33301 -6.66699 -18.333 -15.667 -33 -27c-26 -17.333 -54 -26 -84 -26l-38 3l-37 11l-43 19l-73 29l-28 5l-28 1c-22 0 -42.333 -7.66699 -61 -23
c-10.667 -9.33301 -22.334 -25.666 -35.001 -48.999l-41 127c6.66699 10.667 13.667 20.667 21 30c7.33301 8 17 17.333 29 28c27.333 17.333 57.666 26 90.999 26c8 0 16.667 -0.333008 26 -1c10 -2 22 -5 36 -9l35 -9l30 -13l63 -25
c18.667 -7.33301 36.334 -11 53.001 -11c24 0 46.667 11 68 33z" />
    <glyph glyph-name="Utilde" unicode="&#x168;" horiz-adv-x="1120" 
d="M1041 1619l-0.00195312 -1082c0 -122.667 -4 -208.834 -12 -258.501s-31.667 -100.667 -71 -153s-91.166 -92 -155.499 -119s-140.166 -40.5 -227.499 -40.5c-96.667 0 -182 16 -256 48s-129.333 73.667 -166 125s-58.334 105.5 -65.001 162.5s-10 176.833 -10 359.5v958
h421v-1214c0 -70.667 3.83301 -115.834 11.5 -135.501s23.167 -29.5 46.5 -29.5c26.667 0 43.834 10.833 51.501 32.5s11.5 72.834 11.5 153.501v1193h421zM774.998 1902l54.002 -119.001c-10.667 -12 -23.334 -24.667 -38.001 -38c-7.33301 -6.66699 -18 -15.667 -32 -27
c-26 -17.333 -54.333 -26 -85 -26l-37 3l-37 11l-43 19l-73 29l-28 5l-29 1c-21.333 0 -41.333 -7.66699 -60 -23c-11.333 -9.33301 -23.333 -25.666 -36 -48.999l-40 127c6 10.667 12.667 20.667 20 30c7.33301 8 17.333 17.333 30 28c26.667 17.333 57 26 91 26
c7.33301 0 15.666 -0.333008 24.999 -1c10 -2 22.333 -5 37 -9l34 -9l30 -13l64 -25c18.667 -7.33301 36 -11 52 -11c24 0 47 11 69 33z" />
    <glyph glyph-name="utilde" unicode="&#x169;" horiz-adv-x="1070" 
d="M997 1327v-1327h-411l7 110c-28 -44.667 -62.5 -78.167 -103.5 -100.5s-88.167 -33.5 -141.5 -33.5c-60.667 0 -111 10.667 -151 32s-69.5 49.666 -88.5 84.999s-30.833 72.166 -35.5 110.499s-7 114.5 -7 228.5v895h404v-903c0 -103.333 3.16699 -164.666 9.5 -183.999
s23.5 -29 51.5 -29c30 0 47.833 10 53.5 30s8.5 84.333 8.5 193v893h404zM747 1619l54.002 -119.001c-10.667 -12 -23.334 -24.667 -38.001 -38c-7.33301 -6.66699 -18 -15.667 -32 -27c-26 -17.333 -54.333 -26 -85 -26l-37 3l-37 11l-43 19l-73 29l-28 5l-29 1
c-21.333 0 -41.333 -7.66699 -60 -23c-11.333 -9.33301 -23.333 -25.666 -36 -48.999l-40 127c6 10.667 12.667 20.667 20 30c7.33301 8 17.333 17.333 30 28c26.667 17.333 57 26 91 26c7.33301 0 15.666 -0.333008 24.999 -1c10 -2 22.333 -5 37 -9l34 -9l30 -13l64 -25
c18.667 -7.33301 36 -11 52 -11c24 0 47 11 69 33z" />
    <glyph glyph-name="Ohorn" unicode="&#x1a0;" horiz-adv-x="1119" 
d="M625 1203c0 75.333 -4.16699 123.501 -12.5 144.501s-25.5 31.5 -51.5 31.5c-22 0 -38.833 -8.5 -50.5 -25.5s-17.5 -67.167 -17.5 -150.5v-756c0 -94 3.83301 -152 11.5 -174s25.5 -33 53.5 -33c28.667 0 47 12.667 55 38s12 85.666 12 180.999v744zM959 1483
c42 -56.667 67.001 -118.333 75.001 -185s12 -183.334 12 -350.001v-277c0 -162.667 -3.83301 -277.834 -11.5 -345.501s-31.667 -129.5 -72 -185.5s-94.833 -99 -163.5 -129s-148.667 -45 -240 -45c-86.667 0 -164.5 14.167 -233.5 42.5s-124.5 70.833 -166.5 127.5
s-67 118.334 -75 185.001s-12 183.334 -12 350.001v277c0 162.667 3.83301 277.834 11.5 345.501s31.667 129.5 72 185.5s94.833 99 163.5 129s148.667 45 240 45c86.667 0 164.667 -14 234 -42c27.333 -12 53 -26 77 -42c35.333 22 55.666 51 60.999 87h-68v222h238l1 -50
c0 -76 -6.5 -138.833 -19.5 -188.5s-38.833 -90.834 -77.5 -123.501c-14 -12.667 -29.333 -23.667 -46 -33z" />
    <glyph glyph-name="ohorn" unicode="&#x1a1;" 
d="M582 961c0 68 -3.66699 110.834 -11 128.501s-23 26.5 -47 26.5s-40 -8.83301 -48 -26.5s-12 -60.5 -12 -128.5v-599c0 -62.667 4 -103.5 12 -122.5s23.667 -28.5 47 -28.5c24 0 39.833 8.66699 47.5 26s11.5 54.666 11.5 111.999v612zM910 1184
c26.667 -36.667 45.668 -74.332 57.001 -112.999c12.667 -46 19 -116 19 -210v-325c0 -119.333 -6 -206.833 -18 -262.5s-37.667 -107.667 -77 -156s-89.833 -84 -151.5 -107s-132.5 -34.5 -212.5 -34.5c-89.333 0 -165 9.83301 -227 29.5s-110.167 49.334 -144.5 89.001
s-58.833 87.667 -73.5 144s-22 140.833 -22 253.5v340c0 123.333 13.333 219.666 40 288.999s74.667 125 144 167s158 63 266 63c90.667 0 168.667 -13.333 234 -40c28 -12 53.667 -25.667 77 -41c35.333 22 55.666 51 60.999 87h-68v222h238l1 -50
c0 -76 -6.5 -138.833 -19.5 -188.5s-38.833 -90.834 -77.5 -123.501c-14 -12.667 -29.333 -23.667 -46 -33z" />
    <glyph glyph-name="Uhorn" unicode="&#x1af;" horiz-adv-x="1120" 
d="M1041 1456l-0.00292969 -918.997c0 -122.667 -4 -208.834 -12 -258.501s-31.667 -100.667 -71 -153s-91.166 -92 -155.499 -119s-140.166 -40.5 -227.499 -40.5c-96.667 0 -182 16 -256 48s-129.333 73.667 -166 125s-58.334 105.5 -65.001 162.5s-10 176.833 -10 359.5
v958h421v-1214c0 -70.667 3.83301 -115.834 11.5 -135.501s23.167 -29.5 46.5 -29.5c26.667 0 43.834 10.833 51.501 32.5s11.5 72.834 11.5 153.501v1193h421v-33c21.333 19.333 34 42.666 38 69.999h-68v222h238l1 -50c0 -76 -6.5 -138.833 -19.5 -188.5
s-38.833 -90.834 -77.5 -123.501c-31.333 -27.333 -68.666 -47.333 -111.999 -60z" />
    <glyph glyph-name="uhorn" unicode="&#x1b0;" horiz-adv-x="1070" 
d="M997 1153l-0.00195312 -1153h-411l7 110c-28 -44.667 -62.5 -78.167 -103.5 -100.5s-88.167 -33.5 -141.5 -33.5c-60.667 0 -111 10.667 -151 32s-69.5 49.666 -88.5 84.999s-30.833 72.166 -35.5 110.499s-7 114.5 -7 228.5v895h404v-903
c0 -103.333 3.16699 -164.666 9.5 -183.999s23.5 -29 51.5 -29c30 0 47.833 10 53.5 30s8.5 84.333 8.5 193v893h404v-52c30.667 22 48.334 49.333 53.001 82h-68v222h238l1 -50c0 -76 -6.5 -138.833 -19.5 -188.5s-38.833 -90.834 -77.5 -123.501
c-35.333 -30.667 -77.666 -52 -126.999 -64z" />
    <glyph glyph-name="uni1EA0" unicode="&#x1ea0;" horiz-adv-x="1040" 
d="M811 1619l241 -1619h-431l-21 291h-151l-25 -291h-436l214 1619h609zM588 578c-21.333 183.333 -42.666 409.666 -63.999 678.999c-42.667 -309.333 -69.334 -535.666 -80.001 -678.999h144zM638 -123v-214h-224v214h224z" />
    <glyph glyph-name="uni1EA1" unicode="&#x1ea1;" horiz-adv-x="1032" 
d="M433 813l-379 -0.00390625v89c0 102.667 11.833 181.834 35.5 237.501s71.167 104.834 142.5 147.501s164 64 278 64c136.667 0 239.667 -24.167 309 -72.5s111 -107.666 125 -177.999s21 -215.166 21 -434.499v-666h-393v118
c-24.667 -47.333 -56.5 -82.833 -95.5 -106.5s-85.5 -35.5 -139.5 -35.5c-70.667 0 -135.5 19.833 -194.5 59.5s-88.5 126.5 -88.5 260.5v109c0 99.333 15.667 167 47 203s109 78 233 126c132.667 52 203.667 87 213 105s14 54.667 14 110
c0 69.333 -5.16699 114.5 -15.5 135.5s-27.5 31.5 -51.5 31.5c-27.333 0 -44.333 -8.83301 -51 -26.5s-10 -63.5 -10 -137.5v-139zM561 630.996c-64.667 -47.333 -102.167 -87.001 -112.5 -119.001s-15.5 -78 -15.5 -138c0 -68.667 4.5 -113 13.5 -133s26.833 -30 53.5 -30
c25.333 0 41.833 7.83301 49.5 23.5s11.5 56.834 11.5 123.501v273zM638 -123.005v-214h-224v214h224z" />
    <glyph glyph-name="uni1EA2" unicode="&#x1ea2;" horiz-adv-x="1040" 
d="M811 1619l241 -1619h-431l-21 291h-151l-25 -291h-436l214 1619h609zM588 578c-21.333 183.333 -42.666 409.666 -63.999 678.999c-42.667 -309.333 -69.334 -535.666 -80.001 -678.999h144zM459 1688l0.000976562 32.001c0 22.667 24.667 60.667 74 114
c11.333 10.667 20.166 22.334 26.499 35.001s9.5 25.667 9.5 39c0 17.333 -2.66699 29.333 -8 36c-3.33301 6 -13.666 9.66699 -30.999 11c-35.333 0 -53 -18.333 -53 -55v-39h-110v47c0 35.333 13.667 67.333 41 96c31.333 30.667 73.666 46 126.999 46
c46 0 83.667 -11.333 113 -34s44 -56.667 44 -102c0 -40.667 -22 -79.334 -66 -116.001c-45.333 -36.667 -68 -73.334 -68 -110.001h-99z" />
    <glyph glyph-name="uni1EA3" unicode="&#x1ea3;" horiz-adv-x="1032" 
d="M433 813l-379 -0.00390625v89c0 102.667 11.833 181.834 35.5 237.501s71.167 104.834 142.5 147.501s164 64 278 64c136.667 0 239.667 -24.167 309 -72.5s111 -107.666 125 -177.999s21 -215.166 21 -434.499v-666h-393v118
c-24.667 -47.333 -56.5 -82.833 -95.5 -106.5s-85.5 -35.5 -139.5 -35.5c-70.667 0 -135.5 19.833 -194.5 59.5s-88.5 126.5 -88.5 260.5v109c0 99.333 15.667 167 47 203s109 78 233 126c132.667 52 203.667 87 213 105s14 54.667 14 110
c0 69.333 -5.16699 114.5 -15.5 135.5s-27.5 31.5 -51.5 31.5c-27.333 0 -44.333 -8.83301 -51 -26.5s-10 -63.5 -10 -137.5v-139zM561 630.996c-64.667 -47.333 -102.167 -87.001 -112.5 -119.001s-15.5 -78 -15.5 -138c0 -68.667 4.5 -113 13.5 -133s26.833 -30 53.5 -30
c25.333 0 41.833 7.83301 49.5 23.5s11.5 56.834 11.5 123.501v273zM459 1441l0.000976562 32.001c0 22.667 24.667 60.667 74 114c11.333 10.667 20.166 22.334 26.499 35.001s9.5 25.667 9.5 39c0 17.333 -2.66699 29.333 -8 36c-3.33301 6 -13.666 9.66699 -30.999 11
c-35.333 0 -53 -18.333 -53 -55v-39h-110v47c0 35.333 13.667 67.333 41 96c31.333 30.667 73.666 46 126.999 46c46 0 83.667 -11.333 113 -34s44 -56.667 44 -102c0 -40.667 -22 -79.334 -66 -116.001c-45.333 -36.667 -68 -73.334 -68 -110.001h-99z" />
    <glyph glyph-name="uni1EA4" unicode="&#x1ea4;" horiz-adv-x="1040" 
d="M811 1619l241 -1619h-431l-21 291h-151l-25 -291h-436l214 1619h609zM588 578c-21.333 183.333 -42.666 409.666 -63.999 678.999c-42.667 -309.333 -69.334 -535.666 -80.001 -678.999h144zM515 1800l-79 -112h-190l174 242h191l163 -242h-184zM844 2196l-252 -208h-156
l135 208h273z" />
    <glyph glyph-name="uni1EA5" unicode="&#x1ea5;" horiz-adv-x="1032" 
d="M433 813l-379 -0.00390625v89c0 102.667 11.833 181.834 35.5 237.501s71.167 104.834 142.5 147.501s164 64 278 64c136.667 0 239.667 -24.167 309 -72.5s111 -107.666 125 -177.999s21 -215.166 21 -434.499v-666h-393v118
c-24.667 -47.333 -56.5 -82.833 -95.5 -106.5s-85.5 -35.5 -139.5 -35.5c-70.667 0 -135.5 19.833 -194.5 59.5s-88.5 126.5 -88.5 260.5v109c0 99.333 15.667 167 47 203s109 78 233 126c132.667 52 203.667 87 213 105s14 54.667 14 110
c0 69.333 -5.16699 114.5 -15.5 135.5s-27.5 31.5 -51.5 31.5c-27.333 0 -44.333 -8.83301 -51 -26.5s-10 -63.5 -10 -137.5v-139zM561 630.996c-64.667 -47.333 -102.167 -87.001 -112.5 -119.001s-15.5 -78 -15.5 -138c0 -68.667 4.5 -113 13.5 -133s26.833 -30 53.5 -30
c25.333 0 41.833 7.83301 49.5 23.5s11.5 56.834 11.5 123.501v273zM499 1517l-80 -112h-189l174 242h190l163 -242h-183zM844 1893l-252 -208h-156l135 208h273z" />
    <glyph glyph-name="uni1EA6" unicode="&#x1ea6;" horiz-adv-x="1040" 
d="M811 1619l241 -1619h-431l-21 291h-151l-25 -291h-436l214 1619h609zM588 578c-21.333 183.333 -42.666 409.666 -63.999 678.999c-42.667 -309.333 -69.334 -535.666 -80.001 -678.999h144zM515 1800l-79 -112h-190l174 242h191l163 -242h-184zM461 2196l135 -208h-156
l-252 208h273z" />
    <glyph glyph-name="uni1EA7" unicode="&#x1ea7;" horiz-adv-x="1032" 
d="M433 813l-379 -0.00390625v89c0 102.667 11.833 181.834 35.5 237.501s71.167 104.834 142.5 147.501s164 64 278 64c136.667 0 239.667 -24.167 309 -72.5s111 -107.666 125 -177.999s21 -215.166 21 -434.499v-666h-393v118
c-24.667 -47.333 -56.5 -82.833 -95.5 -106.5s-85.5 -35.5 -139.5 -35.5c-70.667 0 -135.5 19.833 -194.5 59.5s-88.5 126.5 -88.5 260.5v109c0 99.333 15.667 167 47 203s109 78 233 126c132.667 52 203.667 87 213 105s14 54.667 14 110
c0 69.333 -5.16699 114.5 -15.5 135.5s-27.5 31.5 -51.5 31.5c-27.333 0 -44.333 -8.83301 -51 -26.5s-10 -63.5 -10 -137.5v-139zM561 630.996c-64.667 -47.333 -102.167 -87.001 -112.5 -119.001s-15.5 -78 -15.5 -138c0 -68.667 4.5 -113 13.5 -133s26.833 -30 53.5 -30
c25.333 0 41.833 7.83301 49.5 23.5s11.5 56.834 11.5 123.501v273zM499 1517l-80 -112h-189l174 242h190l163 -242h-183zM431 1893l135 -208h-156l-252 208h273z" />
    <glyph glyph-name="uni1EA8" unicode="&#x1ea8;" horiz-adv-x="1040" 
d="M811 1619l241 -1619h-431l-21 291h-151l-25 -291h-436l214 1619h609zM588 578c-21.333 183.333 -42.666 409.666 -63.999 678.999c-42.667 -309.333 -69.334 -535.666 -80.001 -678.999h144zM509 1800l-80 -112h-189l174 242h190l163 -242h-183zM679 1883
l0.000976562 32.001c0 22.667 24.667 60.667 74 114c11.333 10.667 20.166 22.334 26.499 35.001s9.5 25.667 9.5 39c0 17.333 -2.66699 29.333 -8 36c-3.33301 6 -13.666 9.66699 -30.999 11c-35.333 0 -53 -18.333 -53 -55v-39h-110v47c0 35.333 13.667 67.333 41 96
c31.333 30.667 73.666 46 126.999 46c46 0 83.667 -11.333 113 -34s44 -56.667 44 -102c0 -40.667 -22 -79.334 -66 -116.001c-45.333 -36.667 -68 -73.334 -68 -110.001h-99z" />
    <glyph glyph-name="uni1EA9" unicode="&#x1ea9;" horiz-adv-x="1032" 
d="M433 813l-379 -0.00390625v89c0 102.667 11.833 181.834 35.5 237.501s71.167 104.834 142.5 147.501s164 64 278 64c136.667 0 239.667 -24.167 309 -72.5s111 -107.666 125 -177.999s21 -215.166 21 -434.499v-666h-393v118
c-24.667 -47.333 -56.5 -82.833 -95.5 -106.5s-85.5 -35.5 -139.5 -35.5c-70.667 0 -135.5 19.833 -194.5 59.5s-88.5 126.5 -88.5 260.5v109c0 99.333 15.667 167 47 203s109 78 233 126c132.667 52 203.667 87 213 105s14 54.667 14 110
c0 69.333 -5.16699 114.5 -15.5 135.5s-27.5 31.5 -51.5 31.5c-27.333 0 -44.333 -8.83301 -51 -26.5s-10 -63.5 -10 -137.5v-139zM561 630.996c-64.667 -47.333 -102.167 -87.001 -112.5 -119.001s-15.5 -78 -15.5 -138c0 -68.667 4.5 -113 13.5 -133s26.833 -30 53.5 -30
c25.333 0 41.833 7.83301 49.5 23.5s11.5 56.834 11.5 123.501v273zM499 1517l-80 -112h-189l174 242h190l163 -242h-183zM669 1600l0.000976562 32.001c0 22.667 24.667 60.667 74 114c11.333 10.667 20.166 22.334 26.499 35.001s9.5 25.667 9.5 39
c0 17.333 -2.66699 29.333 -8 36c-3.33301 6 -13.666 9.66699 -30.999 11c-35.333 0 -53 -18.333 -53 -55v-39h-110v47c0 35.333 13.667 67.333 41 96c31.333 30.667 73.666 46 126.999 46c46 0 83.667 -11.333 113 -34s44 -56.667 44 -102
c0 -40.667 -22 -79.334 -66 -116.001c-45.333 -36.667 -68 -73.334 -68 -110.001h-99z" />
    <glyph glyph-name="uni1EAA" unicode="&#x1eaa;" horiz-adv-x="1040" 
d="M811 1619l241 -1619h-431l-21 291h-151l-25 -291h-436l214 1619h609zM588 578c-21.333 183.333 -42.666 409.666 -63.999 678.999c-42.667 -309.333 -69.334 -535.666 -80.001 -678.999h144zM499 1800l-80 -112h-189l174 242h190l163 -242h-183zM761 2169
l53.001 -119.001c-10.667 -12 -23 -24.667 -37 -38c-7.33301 -6.66699 -18.333 -15.667 -33 -27c-26 -17.333 -54 -26 -84 -26l-38 3l-37 11l-43 19l-73 29l-28 5l-28 1c-22 0 -42.333 -7.66699 -61 -23c-10.667 -9.33301 -22.334 -25.666 -35.001 -48.999l-41 127
c6.66699 10.667 13.667 20.667 21 30c7.33301 8 17 17.333 29 28c27.333 17.333 57.666 26 90.999 26c8 0 16.667 -0.333008 26 -1c10 -2 22 -5 36 -9l35 -9l30 -13l63 -25c18.667 -7.33301 36.334 -11 53.001 -11c24 0 46.667 11 68 33z" />
    <glyph glyph-name="uni1EAB" unicode="&#x1eab;" horiz-adv-x="1032" 
d="M433 813l-379 -0.00390625v89c0 102.667 11.833 181.834 35.5 237.501s71.167 104.834 142.5 147.501s164 64 278 64c136.667 0 239.667 -24.167 309 -72.5s111 -107.666 125 -177.999s21 -215.166 21 -434.499v-666h-393v118
c-24.667 -47.333 -56.5 -82.833 -95.5 -106.5s-85.5 -35.5 -139.5 -35.5c-70.667 0 -135.5 19.833 -194.5 59.5s-88.5 126.5 -88.5 260.5v109c0 99.333 15.667 167 47 203s109 78 233 126c132.667 52 203.667 87 213 105s14 54.667 14 110
c0 69.333 -5.16699 114.5 -15.5 135.5s-27.5 31.5 -51.5 31.5c-27.333 0 -44.333 -8.83301 -51 -26.5s-10 -63.5 -10 -137.5v-139zM561 630.996c-64.667 -47.333 -102.167 -87.001 -112.5 -119.001s-15.5 -78 -15.5 -138c0 -68.667 4.5 -113 13.5 -133s26.833 -30 53.5 -30
c25.333 0 41.833 7.83301 49.5 23.5s11.5 56.834 11.5 123.501v273zM499 1517l-80 -112h-189l174 242h190l163 -242h-183zM761 1886l53.001 -119.001c-10.667 -12 -23 -24.667 -37 -38c-7.33301 -6.66699 -18.333 -15.667 -33 -27c-26 -17.333 -54 -26 -84 -26l-38 3l-37 11
l-43 19l-73 29l-28 5l-28 1c-22 0 -42.333 -7.66699 -61 -23c-10.667 -9.33301 -22.334 -25.666 -35.001 -48.999l-41 127c6.66699 10.667 13.667 20.667 21 30c7.33301 8 17 17.333 29 28c27.333 17.333 57.666 26 90.999 26c8 0 16.667 -0.333008 26 -1c10 -2 22 -5 36 -9
l35 -9l30 -13l63 -25c18.667 -7.33301 36.334 -11 53.001 -11c24 0 46.667 11 68 33z" />
    <glyph glyph-name="uni1EAC" unicode="&#x1eac;" horiz-adv-x="1040" 
d="M811 1619l241 -1619h-431l-21 291h-151l-25 -291h-436l214 1619h609zM588 578c-21.333 183.333 -42.666 409.666 -63.999 678.999c-42.667 -309.333 -69.334 -535.666 -80.001 -678.999h144zM515 1800l-79 -112h-190l174 242h191l163 -242h-184zM638 -123v-214h-224v214
h224z" />
    <glyph glyph-name="uni1EAD" unicode="&#x1ead;" horiz-adv-x="1032" 
d="M433 813l-379 -0.00390625v89c0 102.667 11.833 181.834 35.5 237.501s71.167 104.834 142.5 147.501s164 64 278 64c136.667 0 239.667 -24.167 309 -72.5s111 -107.666 125 -177.999s21 -215.166 21 -434.499v-666h-393v118
c-24.667 -47.333 -56.5 -82.833 -95.5 -106.5s-85.5 -35.5 -139.5 -35.5c-70.667 0 -135.5 19.833 -194.5 59.5s-88.5 126.5 -88.5 260.5v109c0 99.333 15.667 167 47 203s109 78 233 126c132.667 52 203.667 87 213 105s14 54.667 14 110
c0 69.333 -5.16699 114.5 -15.5 135.5s-27.5 31.5 -51.5 31.5c-27.333 0 -44.333 -8.83301 -51 -26.5s-10 -63.5 -10 -137.5v-139zM561 630.996c-64.667 -47.333 -102.167 -87.001 -112.5 -119.001s-15.5 -78 -15.5 -138c0 -68.667 4.5 -113 13.5 -133s26.833 -30 53.5 -30
c25.333 0 41.833 7.83301 49.5 23.5s11.5 56.834 11.5 123.501v273zM499 1517l-80 -112h-189l174 242h190l163 -242h-183zM638 -123.005v-214h-224v214h224z" />
    <glyph glyph-name="uni1EAE" unicode="&#x1eae;" horiz-adv-x="1040" 
d="M811 1619l241 -1619h-431l-21 291h-151l-25 -291h-436l214 1619h609zM588 578c-21.333 183.333 -42.666 409.666 -63.999 678.999c-42.667 -309.333 -69.334 -535.666 -80.001 -678.999h144zM384 1922c0 -33.333 11.335 -59.665 34.002 -78.998
c22.667 -17.333 53.334 -26 92.001 -26c39.333 0 68.666 7.33301 87.999 22c18 15.333 30.333 43 37 83h130c0 -76.667 -23.333 -134.834 -70 -174.501s-108.334 -59.5 -185.001 -59.5c-80.667 0 -143.334 18.667 -188.001 56c-45.333 37.333 -68 96.666 -68 177.999h130z
M835.002 2137l-252 -208h-156l135 208h273z" />
    <glyph glyph-name="uni1EAF" unicode="&#x1eaf;" horiz-adv-x="1032" 
d="M433 813l-379 -0.00390625v89c0 102.667 11.833 181.834 35.5 237.501s71.167 104.834 142.5 147.501s164 64 278 64c136.667 0 239.667 -24.167 309 -72.5s111 -107.666 125 -177.999s21 -215.166 21 -434.499v-666h-393v118
c-24.667 -47.333 -56.5 -82.833 -95.5 -106.5s-85.5 -35.5 -139.5 -35.5c-70.667 0 -135.5 19.833 -194.5 59.5s-88.5 126.5 -88.5 260.5v109c0 99.333 15.667 167 47 203s109 78 233 126c132.667 52 203.667 87 213 105s14 54.667 14 110
c0 69.333 -5.16699 114.5 -15.5 135.5s-27.5 31.5 -51.5 31.5c-27.333 0 -44.333 -8.83301 -51 -26.5s-10 -63.5 -10 -137.5v-139zM561 630.996c-64.667 -47.333 -102.167 -87.001 -112.5 -119.001s-15.5 -78 -15.5 -138c0 -68.667 4.5 -113 13.5 -133s26.833 -30 53.5 -30
c25.333 0 41.833 7.83301 49.5 23.5s11.5 56.834 11.5 123.501v273zM384 1639c0 -33.333 11.335 -59.665 34.002 -78.998c22.667 -17.333 53.334 -26 92.001 -26c39.333 0 68.666 7.33301 87.999 22c18 15.333 30.333 43 37 83h130c0 -76.667 -23.333 -134.834 -70 -174.501
s-108.334 -59.5 -185.001 -59.5c-80.667 0 -143.334 18.667 -188.001 56c-45.333 37.333 -68 96.666 -68 177.999h130zM826.002 1845l-252 -208h-156l135 208h273z" />
    <glyph glyph-name="uni1EB0" unicode="&#x1eb0;" horiz-adv-x="1040" 
d="M811 1619l241 -1619h-431l-21 291h-151l-25 -291h-436l214 1619h609zM588 578c-21.333 183.333 -42.666 409.666 -63.999 678.999c-42.667 -309.333 -69.334 -535.666 -80.001 -678.999h144zM384 1922c0 -33.333 11.335 -59.665 34.002 -78.998
c22.667 -17.333 53.334 -26 92.001 -26c39.333 0 68.666 7.33301 87.999 22c18 15.333 30.333 43 37 83h130c0 -76.667 -23.333 -134.834 -70 -174.501s-108.334 -59.5 -185.001 -59.5c-80.667 0 -143.334 18.667 -188.001 56c-45.333 37.333 -68 96.666 -68 177.999h130z
M462.002 2137l135 -208h-156l-252 208h273z" />
    <glyph glyph-name="uni1EB1" unicode="&#x1eb1;" horiz-adv-x="1032" 
d="M433 813l-379 -0.00390625v89c0 102.667 11.833 181.834 35.5 237.501s71.167 104.834 142.5 147.501s164 64 278 64c136.667 0 239.667 -24.167 309 -72.5s111 -107.666 125 -177.999s21 -215.166 21 -434.499v-666h-393v118
c-24.667 -47.333 -56.5 -82.833 -95.5 -106.5s-85.5 -35.5 -139.5 -35.5c-70.667 0 -135.5 19.833 -194.5 59.5s-88.5 126.5 -88.5 260.5v109c0 99.333 15.667 167 47 203s109 78 233 126c132.667 52 203.667 87 213 105s14 54.667 14 110
c0 69.333 -5.16699 114.5 -15.5 135.5s-27.5 31.5 -51.5 31.5c-27.333 0 -44.333 -8.83301 -51 -26.5s-10 -63.5 -10 -137.5v-139zM561 630.996c-64.667 -47.333 -102.167 -87.001 -112.5 -119.001s-15.5 -78 -15.5 -138c0 -68.667 4.5 -113 13.5 -133s26.833 -30 53.5 -30
c25.333 0 41.833 7.83301 49.5 23.5s11.5 56.834 11.5 123.501v273zM384 1639c0 -33.333 11.335 -59.665 34.002 -78.998c22.667 -17.333 53.334 -26 92.001 -26c39.333 0 68.666 7.33301 87.999 22c18 15.333 30.333 43 37 83h130c0 -76.667 -23.333 -134.834 -70 -174.501
s-108.334 -59.5 -185.001 -59.5c-80.667 0 -143.334 18.667 -188.001 56c-45.333 37.333 -68 96.666 -68 177.999h130zM481.002 1845l135 -208h-156l-252 208h273z" />
    <glyph glyph-name="uni1EB2" unicode="&#x1eb2;" horiz-adv-x="1040" 
d="M811 1619l241 -1619h-431l-21 291h-151l-25 -291h-436l214 1619h609zM588 578c-21.333 183.333 -42.666 409.666 -63.999 678.999c-42.667 -309.333 -69.334 -535.666 -80.001 -678.999h144zM384 1922c0 -33.333 11.335 -59.665 34.002 -78.998
c22.667 -17.333 53.334 -26 92.001 -26c39.333 0 68.666 7.33301 87.999 22c18 15.333 30.333 43 37 83h130c0 -76.667 -23.333 -134.834 -70 -174.501s-108.334 -59.5 -185.001 -59.5c-80.667 0 -143.334 18.667 -188.001 56c-45.333 37.333 -68 96.666 -68 177.999h130z
M471.002 1916l0.000976562 32.001c0 22.667 24.667 60.667 74 114c11.333 10.667 20.166 22.334 26.499 35c6.33301 12.667 9.5 25.667 9.5 39c0 17.333 -2.66699 29.333 -8 36c-3.33301 6 -13.666 9.66699 -30.999 11c-35.333 0 -53 -18.333 -53 -55v-39h-110v47
c0 35.333 13.667 67.333 41 96c31.333 30.667 73.666 46 126.999 46c46 0 83.667 -11.333 113 -34s44 -56.667 44 -102c0 -40.667 -22 -79.334 -66 -116c-45.333 -36.667 -68 -73.334 -68 -110.001h-99z" />
    <glyph glyph-name="uni1EB3" unicode="&#x1eb3;" horiz-adv-x="1032" 
d="M433 813l-379 -0.00390625v89c0 102.667 11.833 181.834 35.5 237.501s71.167 104.834 142.5 147.501s164 64 278 64c136.667 0 239.667 -24.167 309 -72.5s111 -107.666 125 -177.999s21 -215.166 21 -434.499v-666h-393v118
c-24.667 -47.333 -56.5 -82.833 -95.5 -106.5s-85.5 -35.5 -139.5 -35.5c-70.667 0 -135.5 19.833 -194.5 59.5s-88.5 126.5 -88.5 260.5v109c0 99.333 15.667 167 47 203s109 78 233 126c132.667 52 203.667 87 213 105s14 54.667 14 110
c0 69.333 -5.16699 114.5 -15.5 135.5s-27.5 31.5 -51.5 31.5c-27.333 0 -44.333 -8.83301 -51 -26.5s-10 -63.5 -10 -137.5v-139zM561 630.996c-64.667 -47.333 -102.167 -87.001 -112.5 -119.001s-15.5 -78 -15.5 -138c0 -68.667 4.5 -113 13.5 -133s26.833 -30 53.5 -30
c25.333 0 41.833 7.83301 49.5 23.5s11.5 56.834 11.5 123.501v273zM384 1639c0 -33.333 11.335 -59.665 34.002 -78.998c22.667 -17.333 53.334 -26 92.001 -26c39.333 0 68.666 7.33301 87.999 22c18 15.333 30.333 43 37 83h130c0 -76.667 -23.333 -134.834 -70 -174.501
s-108.334 -59.5 -185.001 -59.5c-80.667 0 -143.334 18.667 -188.001 56c-45.333 37.333 -68 96.666 -68 177.999h130zM459.002 1620l0.000976562 32.001c0 22.667 24.667 60.667 74 114c11.333 10.667 20.166 22.334 26.499 35.001s9.5 25.667 9.5 39
c0 17.333 -2.66699 29.333 -8 36c-3.33301 6 -13.666 9.66699 -30.999 11c-35.333 0 -53 -18.333 -53 -55v-39h-110v47c0 35.333 13.667 67.333 41 96c31.333 30.667 73.666 46 126.999 46c46 0 83.667 -11.333 113 -34s44 -56.667 44 -102
c0 -40.667 -22 -79.334 -66 -116.001c-45.333 -36.667 -68 -73.334 -68 -110.001h-99z" />
    <glyph glyph-name="uni1EB4" unicode="&#x1eb4;" horiz-adv-x="1040" 
d="M811 1619l241 -1619h-431l-21 291h-151l-25 -291h-436l214 1619h609zM588 578c-21.333 183.333 -42.666 409.666 -63.999 678.999c-42.667 -309.333 -69.334 -535.666 -80.001 -678.999h144zM384 1922c0 -33.333 11.335 -59.665 34.002 -78.998
c22.667 -17.333 53.334 -26 92.001 -26c39.333 0 68.666 7.33301 87.999 22c18 15.333 30.333 43 37 83h130c0 -76.667 -23.333 -134.834 -70 -174.501s-108.334 -59.5 -185.001 -59.5c-80.667 0 -143.334 18.667 -188.001 56c-45.333 37.333 -68 96.666 -68 177.999h130z
M715.002 2170l53.001 -119.001c-10.667 -12 -23 -24.667 -37 -38c-7.33301 -6.66699 -18.333 -15.667 -33 -27c-26 -17.333 -54 -26 -84 -26l-38 3l-37 11l-43 19l-73 29l-28 5l-28 1c-22 0 -42.333 -7.66699 -61 -23c-10.667 -9.33301 -22.334 -25.666 -35.001 -48.999
l-41 127c6.66699 10.667 13.667 20.667 21 30c7.33301 8 17 17.333 29 28c27.333 17.333 57.666 26 90.999 26c8 0 16.667 -0.333008 26 -1c10 -2 22 -5 36 -9l35 -9l30 -13l63 -25c18.667 -7.33301 36.334 -11 53.001 -11c24 0 46.667 11 68 33z" />
    <glyph glyph-name="uni1EB5" unicode="&#x1eb5;" horiz-adv-x="1032" 
d="M433 813l-379 -0.00390625v89c0 102.667 11.833 181.834 35.5 237.501s71.167 104.834 142.5 147.501s164 64 278 64c136.667 0 239.667 -24.167 309 -72.5s111 -107.666 125 -177.999s21 -215.166 21 -434.499v-666h-393v118
c-24.667 -47.333 -56.5 -82.833 -95.5 -106.5s-85.5 -35.5 -139.5 -35.5c-70.667 0 -135.5 19.833 -194.5 59.5s-88.5 126.5 -88.5 260.5v109c0 99.333 15.667 167 47 203s109 78 233 126c132.667 52 203.667 87 213 105s14 54.667 14 110
c0 69.333 -5.16699 114.5 -15.5 135.5s-27.5 31.5 -51.5 31.5c-27.333 0 -44.333 -8.83301 -51 -26.5s-10 -63.5 -10 -137.5v-139zM561 630.996c-64.667 -47.333 -102.167 -87.001 -112.5 -119.001s-15.5 -78 -15.5 -138c0 -68.667 4.5 -113 13.5 -133s26.833 -30 53.5 -30
c25.333 0 41.833 7.83301 49.5 23.5s11.5 56.834 11.5 123.501v273zM384 1639c0 -33.333 11.335 -59.665 34.002 -78.998c22.667 -17.333 53.334 -26 92.001 -26c39.333 0 68.666 7.33301 87.999 22c18 15.333 30.333 43 37 83h130c0 -76.667 -23.333 -134.834 -70 -174.501
s-108.334 -59.5 -185.001 -59.5c-80.667 0 -143.334 18.667 -188.001 56c-45.333 37.333 -68 96.666 -68 177.999h130zM742.002 1886l53.001 -119.001c-10.667 -12 -23 -24.667 -37 -38c-7.33301 -6.66699 -18.333 -15.667 -33 -27c-26 -17.333 -54 -26 -84 -26l-38 3
l-37 11l-43 19l-73 29l-28 5l-28 1c-22 0 -42.333 -7.66699 -61 -23c-10.667 -9.33301 -22.334 -25.666 -35.001 -48.999l-41 127c6.66699 10.667 13.667 20.667 21 30c7.33301 8 17 17.333 29 28c27.333 17.333 57.666 26 90.999 26c8 0 16.667 -0.333008 26 -1
c10 -2 22 -5 36 -9l35 -9l30 -13l63 -25c18.667 -7.33301 36.334 -11 53.001 -11c24 0 46.667 11 68 33z" />
    <glyph glyph-name="uni1EB6" unicode="&#x1eb6;" horiz-adv-x="1040" 
d="M811 1619l241 -1619h-431l-21 291h-151l-25 -291h-436l214 1619h609zM588 578c-21.333 183.333 -42.666 409.666 -63.999 678.999c-42.667 -309.333 -69.334 -535.666 -80.001 -678.999h144zM384 1922c0 -33.333 11.335 -59.665 34.002 -78.998
c22.667 -17.333 53.334 -26 92.001 -26c39.333 0 68.666 7.33301 87.999 22c18 15.333 30.333 43 37 83h130c0 -76.667 -23.333 -134.834 -70 -174.501s-108.334 -59.5 -185.001 -59.5c-80.667 0 -143.334 18.667 -188.001 56c-45.333 37.333 -68 96.666 -68 177.999h130z
M638.002 -122.999v-214h-224v214h224z" />
    <glyph glyph-name="uni1EB7" unicode="&#x1eb7;" horiz-adv-x="1032" 
d="M433 813l-379 -0.00390625v89c0 102.667 11.833 181.834 35.5 237.501s71.167 104.834 142.5 147.501s164 64 278 64c136.667 0 239.667 -24.167 309 -72.5s111 -107.666 125 -177.999s21 -215.166 21 -434.499v-666h-393v118
c-24.667 -47.333 -56.5 -82.833 -95.5 -106.5s-85.5 -35.5 -139.5 -35.5c-70.667 0 -135.5 19.833 -194.5 59.5s-88.5 126.5 -88.5 260.5v109c0 99.333 15.667 167 47 203s109 78 233 126c132.667 52 203.667 87 213 105s14 54.667 14 110
c0 69.333 -5.16699 114.5 -15.5 135.5s-27.5 31.5 -51.5 31.5c-27.333 0 -44.333 -8.83301 -51 -26.5s-10 -63.5 -10 -137.5v-139zM561 630.996c-64.667 -47.333 -102.167 -87.001 -112.5 -119.001s-15.5 -78 -15.5 -138c0 -68.667 4.5 -113 13.5 -133s26.833 -30 53.5 -30
c25.333 0 41.833 7.83301 49.5 23.5s11.5 56.834 11.5 123.501v273zM384 1639c0 -33.333 11.335 -59.665 34.002 -78.998c22.667 -17.333 53.334 -26 92.001 -26c39.333 0 68.666 7.33301 87.999 22c18 15.333 30.333 43 37 83h130c0 -76.667 -23.333 -134.834 -70 -174.501
s-108.334 -59.5 -185.001 -59.5c-80.667 0 -143.334 18.667 -188.001 56c-45.333 37.333 -68 96.666 -68 177.999h130zM638.002 -123.004v-214h-224v214h224z" />
    <glyph glyph-name="uni1EB8" unicode="&#x1eb8;" horiz-adv-x="851" 
d="M84 1619h702v-324h-281v-307h263v-308h-263v-356h309v-324h-730v1619zM561 -123v-214h-224v214h224z" />
    <glyph glyph-name="uni1EB9" unicode="&#x1eb9;" 
d="M987 640l-523.003 -0.000976562v-287c0 -60 4.33301 -98.667 13 -116s25.334 -26 50.001 -26c30.667 0 51.167 11.5 61.5 34.5s15.5 67.5 15.5 133.5v175h383v-98c0 -82 -5.16699 -145 -15.5 -189s-34.5 -91 -72.5 -141s-86.167 -87.5 -144.5 -112.5
s-131.5 -37.5 -219.5 -37.5c-85.333 0 -160.666 12.333 -225.999 37s-116.166 58.5 -152.499 101.5s-61.5 90.333 -75.5 142s-21 126.834 -21 225.501v387c0 116 15.667 207.5 47 274.5s82.666 118.333 153.999 154s153.333 53.5 246 53.5
c113.333 0 206.833 -21.5 280.5 -64.5s125.334 -100 155.001 -171s44.5 -170.833 44.5 -299.5v-176zM581.997 855.999v97c0 68.667 -3.66699 113 -11 133s-22.333 30 -45 30c-28 0 -45.333 -8.5 -52 -25.5s-10 -62.833 -10 -137.5v-97h118zM637.997 -123.001v-214h-224v214
h224z" />
    <glyph glyph-name="uni1EBA" unicode="&#x1eba;" horiz-adv-x="851" 
d="M84 1619h702v-324h-281v-307h263v-308h-263v-356h309v-324h-730v1619zM379 1688l-0.000976562 32.001c0 22.667 24.667 60.667 74 114c11.333 10.667 20 22.334 26 35.001s9 25.667 9 39c0 17.333 -2.33301 29.333 -7 36c-3.33301 6 -13.666 9.66699 -30.999 11
c-35.333 0 -53 -18.333 -53 -55v-39h-110v47c0 35.333 13.667 67.333 41 96c30.667 30.667 73 46 127 46c46 0 83.667 -11.333 113 -34s44 -56.667 44 -102c0 -40.667 -22.333 -79.334 -67 -116.001c-45.333 -36.667 -68 -73.334 -68 -110.001h-98z" />
    <glyph glyph-name="uni1EBB" unicode="&#x1ebb;" 
d="M987 640l-523.003 -0.000976562v-287c0 -60 4.33301 -98.667 13 -116s25.334 -26 50.001 -26c30.667 0 51.167 11.5 61.5 34.5s15.5 67.5 15.5 133.5v175h383v-98c0 -82 -5.16699 -145 -15.5 -189s-34.5 -91 -72.5 -141s-86.167 -87.5 -144.5 -112.5
s-131.5 -37.5 -219.5 -37.5c-85.333 0 -160.666 12.333 -225.999 37s-116.166 58.5 -152.499 101.5s-61.5 90.333 -75.5 142s-21 126.834 -21 225.501v387c0 116 15.667 207.5 47 274.5s82.666 118.333 153.999 154s153.333 53.5 246 53.5
c113.333 0 206.833 -21.5 280.5 -64.5s125.334 -100 155.001 -171s44.5 -170.833 44.5 -299.5v-176zM581.997 855.999v97c0 68.667 -3.66699 113 -11 133s-22.333 30 -45 30c-28 0 -45.333 -8.5 -52 -25.5s-10 -62.833 -10 -137.5v-97h118zM478.997 1441l0.000976562 32.001
c0 22.667 24.667 60.667 74 114c11.333 10.667 20.166 22.334 26.499 35.001s9.5 25.667 9.5 39c0 17.333 -2.66699 29.333 -8 36c-3.33301 6 -13.666 9.66699 -30.999 11c-35.333 0 -53 -18.333 -53 -55v-39h-110v47c0 35.333 13.667 67.333 41 96
c31.333 30.667 73.666 46 126.999 46c46 0 83.667 -11.333 113 -34s44 -56.667 44 -102c0 -40.667 -22 -79.334 -66 -116.001c-45.333 -36.667 -68 -73.334 -68 -110.001h-99z" />
    <glyph glyph-name="uni1EBC" unicode="&#x1ebc;" horiz-adv-x="851" 
d="M84 1619h702v-324h-281v-307h263v-308h-263v-356h309v-324h-730v1619zM665 1902l53.001 -119.001c-10.667 -12 -23 -24.667 -37 -38c-7.33301 -6.66699 -18.333 -15.667 -33 -27c-26 -17.333 -54 -26 -84 -26l-38 3l-37 11l-43 19l-73 29l-28 5l-28 1
c-22 0 -42.333 -7.66699 -61 -23c-10.667 -9.33301 -22.334 -25.666 -35.001 -48.999l-41 127c6.66699 10.667 13.667 20.667 21 30c7.33301 8 17 17.333 29 28c27.333 17.333 57.666 26 90.999 26c8 0 16.667 -0.333008 26 -1c10 -2 22 -5 36 -9l35 -9l30 -13l63 -25
c18.667 -7.33301 36.334 -11 53.001 -11c24 0 46.667 11 68 33z" />
    <glyph glyph-name="uni1EBD" unicode="&#x1ebd;" 
d="M987 640l-523.003 -0.000976562v-287c0 -60 4.33301 -98.667 13 -116s25.334 -26 50.001 -26c30.667 0 51.167 11.5 61.5 34.5s15.5 67.5 15.5 133.5v175h383v-98c0 -82 -5.16699 -145 -15.5 -189s-34.5 -91 -72.5 -141s-86.167 -87.5 -144.5 -112.5
s-131.5 -37.5 -219.5 -37.5c-85.333 0 -160.666 12.333 -225.999 37s-116.166 58.5 -152.499 101.5s-61.5 90.333 -75.5 142s-21 126.834 -21 225.501v387c0 116 15.667 207.5 47 274.5s82.666 118.333 153.999 154s153.333 53.5 246 53.5
c113.333 0 206.833 -21.5 280.5 -64.5s125.334 -100 155.001 -171s44.5 -170.833 44.5 -299.5v-176zM581.997 855.999v97c0 68.667 -3.66699 113 -11 133s-22.333 30 -45 30c-28 0 -45.333 -8.5 -52 -25.5s-10 -62.833 -10 -137.5v-97h118zM731.997 1626l53.001 -119.001
c-10.667 -12 -23 -24.667 -37 -38c-7.33301 -6.66699 -18.333 -15.667 -33 -27c-26 -17.333 -54 -26 -84 -26l-38 3l-37 11l-43 19l-73 29l-28 5l-28 1c-22 0 -42.333 -7.66699 -61 -23c-10.667 -9.33301 -22.334 -25.666 -35.001 -48.999l-41 127
c6.66699 10.667 13.667 20.667 21 30c7.33301 8 17 17.333 29 28c27.333 17.333 57.666 26 90.999 26c8 0 16.667 -0.333008 26 -1c10 -2 22 -5 36 -9l35 -9l30 -13l63 -25c18.667 -7.33301 36.334 -11 53.001 -11c24 0 46.667 11 68 33z" />
    <glyph glyph-name="uni1EBE" unicode="&#x1ebe;" horiz-adv-x="851" 
d="M84 1619h702v-324h-281v-307h263v-308h-263v-356h309v-324h-730v1619zM454 1800l-79 -112h-190l174 242h191l163 -242h-184zM811 2196l-252 -208h-156l135 208h273z" />
    <glyph glyph-name="uni1EBF" unicode="&#x1ebf;" 
d="M987 640l-523.003 -0.000976562v-287c0 -60 4.33301 -98.667 13 -116s25.334 -26 50.001 -26c30.667 0 51.167 11.5 61.5 34.5s15.5 67.5 15.5 133.5v175h383v-98c0 -82 -5.16699 -145 -15.5 -189s-34.5 -91 -72.5 -141s-86.167 -87.5 -144.5 -112.5
s-131.5 -37.5 -219.5 -37.5c-85.333 0 -160.666 12.333 -225.999 37s-116.166 58.5 -152.499 101.5s-61.5 90.333 -75.5 142s-21 126.834 -21 225.501v387c0 116 15.667 207.5 47 274.5s82.666 118.333 153.999 154s153.333 53.5 246 53.5
c113.333 0 206.833 -21.5 280.5 -64.5s125.334 -100 155.001 -171s44.5 -170.833 44.5 -299.5v-176zM581.997 855.999v97c0 68.667 -3.66699 113 -11 133s-22.333 30 -45 30c-28 0 -45.333 -8.5 -52 -25.5s-10 -62.833 -10 -137.5v-97h118zM528.997 1517l-80 -112h-189
l174 242h190l163 -242h-183zM863.997 1893l-252 -208h-156l135 208h273z" />
    <glyph glyph-name="uni1EC0" unicode="&#x1ec0;" horiz-adv-x="851" 
d="M84 1619h702v-324h-281v-307h263v-308h-263v-356h309v-324h-730v1619zM454 1800l-79 -112h-190l174 242h191l163 -242h-184zM378 2196l135 -208h-156l-252 208h273z" />
    <glyph glyph-name="uni1EC1" unicode="&#x1ec1;" 
d="M987 640l-523.003 -0.000976562v-287c0 -60 4.33301 -98.667 13 -116s25.334 -26 50.001 -26c30.667 0 51.167 11.5 61.5 34.5s15.5 67.5 15.5 133.5v175h383v-98c0 -82 -5.16699 -145 -15.5 -189s-34.5 -91 -72.5 -141s-86.167 -87.5 -144.5 -112.5
s-131.5 -37.5 -219.5 -37.5c-85.333 0 -160.666 12.333 -225.999 37s-116.166 58.5 -152.499 101.5s-61.5 90.333 -75.5 142s-21 126.834 -21 225.501v387c0 116 15.667 207.5 47 274.5s82.666 118.333 153.999 154s153.333 53.5 246 53.5
c113.333 0 206.833 -21.5 280.5 -64.5s125.334 -100 155.001 -171s44.5 -170.833 44.5 -299.5v-176zM581.997 855.999v97c0 68.667 -3.66699 113 -11 133s-22.333 30 -45 30c-28 0 -45.333 -8.5 -52 -25.5s-10 -62.833 -10 -137.5v-97h118zM528.997 1517l-80 -112h-189
l174 242h190l163 -242h-183zM460.997 1893l135 -208h-156l-252 208h273z" />
    <glyph glyph-name="uni1EC2" unicode="&#x1ec2;" horiz-adv-x="851" 
d="M84 1619h702v-324h-281v-307h263v-308h-263v-356h309v-324h-730v1619zM459 1800l-80 -112h-189l174 242h190l163 -242h-183zM629 1883l0.000976562 32.001c0 22.667 24.667 60.667 74 114c11.333 10.667 20.166 22.334 26.499 35.001s9.5 25.667 9.5 39
c0 17.333 -2.66699 29.333 -8 36c-3.33301 6 -13.666 9.66699 -30.999 11c-35.333 0 -53 -18.333 -53 -55v-39h-110v47c0 35.333 13.667 67.333 41 96c31.333 30.667 73.666 46 126.999 46c46 0 83.667 -11.333 113 -34s44 -56.667 44 -102
c0 -40.667 -22 -79.334 -66 -116.001c-45.333 -36.667 -68 -73.334 -68 -110.001h-99z" />
    <glyph glyph-name="uni1EC3" unicode="&#x1ec3;" 
d="M987 640l-523.003 -0.000976562v-287c0 -60 4.33301 -98.667 13 -116s25.334 -26 50.001 -26c30.667 0 51.167 11.5 61.5 34.5s15.5 67.5 15.5 133.5v175h383v-98c0 -82 -5.16699 -145 -15.5 -189s-34.5 -91 -72.5 -141s-86.167 -87.5 -144.5 -112.5
s-131.5 -37.5 -219.5 -37.5c-85.333 0 -160.666 12.333 -225.999 37s-116.166 58.5 -152.499 101.5s-61.5 90.333 -75.5 142s-21 126.834 -21 225.501v387c0 116 15.667 207.5 47 274.5s82.666 118.333 153.999 154s153.333 53.5 246 53.5
c113.333 0 206.833 -21.5 280.5 -64.5s125.334 -100 155.001 -171s44.5 -170.833 44.5 -299.5v-176zM581.997 855.999v97c0 68.667 -3.66699 113 -11 133s-22.333 30 -45 30c-28 0 -45.333 -8.5 -52 -25.5s-10 -62.833 -10 -137.5v-97h118zM528.997 1517l-80 -112h-189
l174 242h190l163 -242h-183zM698.997 1600l0.000976562 32.001c0 22.667 24.667 60.667 74 114c11.333 10.667 20.166 22.334 26.499 35.001s9.5 25.667 9.5 39c0 17.333 -2.66699 29.333 -8 36c-3.33301 6 -13.666 9.66699 -30.999 11c-35.333 0 -53 -18.333 -53 -55v-39
h-110v47c0 35.333 13.667 67.333 41 96c31.333 30.667 73.666 46 126.999 46c46 0 83.667 -11.333 113 -34s44 -56.667 44 -102c0 -40.667 -22 -79.334 -66 -116.001c-45.333 -36.667 -68 -73.334 -68 -110.001h-99z" />
    <glyph glyph-name="uni1EC4" unicode="&#x1ec4;" horiz-adv-x="851" 
d="M84 1619h702v-324h-281v-307h263v-308h-263v-356h309v-324h-730v1619zM454 1800l-79 -112h-190l174 242h191l163 -242h-184zM702 2169l53.001 -119.001c-10.667 -12 -23 -24.667 -37 -38c-7.33301 -6.66699 -18.333 -15.667 -33 -27c-26 -17.333 -54 -26 -84 -26l-38 3
l-37 11l-43 19l-73 29l-28 5l-28 1c-22 0 -42.333 -7.66699 -61 -23c-10.667 -9.33301 -22.334 -25.666 -35.001 -48.999l-41 127c6.66699 10.667 13.667 20.667 21 30c7.33301 8 17 17.333 29 28c27.333 17.333 57.666 26 90.999 26c8 0 16.667 -0.333008 26 -1
c10 -2 22 -5 36 -9l35 -9l30 -13l63 -25c18.667 -7.33301 36.334 -11 53.001 -11c24 0 46.667 11 68 33z" />
    <glyph glyph-name="uni1EC5" unicode="&#x1ec5;" 
d="M987 640l-523.003 -0.000976562v-287c0 -60 4.33301 -98.667 13 -116s25.334 -26 50.001 -26c30.667 0 51.167 11.5 61.5 34.5s15.5 67.5 15.5 133.5v175h383v-98c0 -82 -5.16699 -145 -15.5 -189s-34.5 -91 -72.5 -141s-86.167 -87.5 -144.5 -112.5
s-131.5 -37.5 -219.5 -37.5c-85.333 0 -160.666 12.333 -225.999 37s-116.166 58.5 -152.499 101.5s-61.5 90.333 -75.5 142s-21 126.834 -21 225.501v387c0 116 15.667 207.5 47 274.5s82.666 118.333 153.999 154s153.333 53.5 246 53.5
c113.333 0 206.833 -21.5 280.5 -64.5s125.334 -100 155.001 -171s44.5 -170.833 44.5 -299.5v-176zM581.997 855.999v97c0 68.667 -3.66699 113 -11 133s-22.333 30 -45 30c-28 0 -45.333 -8.5 -52 -25.5s-10 -62.833 -10 -137.5v-97h118zM528.997 1517l-80 -112h-189
l174 242h190l163 -242h-183zM790.997 1886l53.001 -119.001c-10.667 -12 -23 -24.667 -37 -38c-7.33301 -6.66699 -18.333 -15.667 -33 -27c-26 -17.333 -54 -26 -84 -26l-38 3l-37 11l-43 19l-73 29l-28 5l-28 1c-22 0 -42.333 -7.66699 -61 -23
c-10.667 -9.33301 -22.334 -25.666 -35.001 -48.999l-41 127c6.66699 10.667 13.667 20.667 21 30c7.33301 8 17 17.333 29 28c27.333 17.333 57.666 26 90.999 26c8 0 16.667 -0.333008 26 -1c10 -2 22 -5 36 -9l35 -9l30 -13l63 -25
c18.667 -7.33301 36.334 -11 53.001 -11c24 0 46.667 11 68 33z" />
    <glyph glyph-name="uni1EC6" unicode="&#x1ec6;" horiz-adv-x="851" 
d="M84 1619h702v-324h-281v-307h263v-308h-263v-356h309v-324h-730v1619zM454 1800l-79 -112h-190l174 242h191l163 -242h-184zM561 -123v-214h-224v214h224z" />
    <glyph glyph-name="uni1EC7" unicode="&#x1ec7;" 
d="M987 640l-523.003 -0.000976562v-287c0 -60 4.33301 -98.667 13 -116s25.334 -26 50.001 -26c30.667 0 51.167 11.5 61.5 34.5s15.5 67.5 15.5 133.5v175h383v-98c0 -82 -5.16699 -145 -15.5 -189s-34.5 -91 -72.5 -141s-86.167 -87.5 -144.5 -112.5
s-131.5 -37.5 -219.5 -37.5c-85.333 0 -160.666 12.333 -225.999 37s-116.166 58.5 -152.499 101.5s-61.5 90.333 -75.5 142s-21 126.834 -21 225.501v387c0 116 15.667 207.5 47 274.5s82.666 118.333 153.999 154s153.333 53.5 246 53.5
c113.333 0 206.833 -21.5 280.5 -64.5s125.334 -100 155.001 -171s44.5 -170.833 44.5 -299.5v-176zM581.997 855.999v97c0 68.667 -3.66699 113 -11 133s-22.333 30 -45 30c-28 0 -45.333 -8.5 -52 -25.5s-10 -62.833 -10 -137.5v-97h118zM528.997 1517l-80 -112h-189
l174 242h190l163 -242h-183zM637.997 -123.001v-214h-224v214h224z" />
    <glyph glyph-name="uni1EC8" unicode="&#x1ec8;" horiz-adv-x="590" 
d="M505 1619v-1619h-421v1619h421zM224 1688l0.000976562 32.001c0 22.667 24.667 60.667 74 114c11.333 10.667 20.166 22.334 26.499 35.001s9.5 25.667 9.5 39c0 17.333 -2.66699 29.333 -8 36c-3.33301 6 -13.666 9.66699 -30.999 11c-35.333 0 -53 -18.333 -53 -55v-39
h-110v47c0 35.333 13.667 67.333 41 96c31.333 30.667 73.666 46 126.999 46c46 0 83.667 -11.333 113 -34s44 -56.667 44 -102c0 -40.667 -22 -79.334 -66 -116.001c-45.333 -36.667 -68 -73.334 -68 -110.001h-99z" />
    <glyph glyph-name="uni1EC9" unicode="&#x1ec9;" horiz-adv-x="561" 
d="M488 1327v-1327h-416v1327h416zM211 1405l-0.000976562 32.001c0 22.667 24.667 60.667 74 114c11.333 10.667 20 22.334 26 35.001s9 25.667 9 39c0 17.333 -2.33301 29.333 -7 36c-3.33301 6 -13.666 9.66699 -30.999 11c-35.333 0 -53 -18.333 -53 -55v-39h-110v47
c0 35.333 13.667 67.333 41 96c30.667 30.667 73 46 127 46c46 0 83.667 -11.333 113 -34s44 -56.667 44 -102c0 -40.667 -22.333 -79.334 -67 -116.001c-45.333 -36.667 -68 -73.334 -68 -110.001h-98z" />
    <glyph glyph-name="uni1ECA" unicode="&#x1eca;" horiz-adv-x="590" 
d="M505 1619v-1619h-421v1619h421zM407 -123v-214h-224v214h224z" />
    <glyph glyph-name="uni1ECB" unicode="&#x1ecb;" horiz-adv-x="561" 
d="M488 1619v-211h-416v211h416zM488 1327v-1327h-416v1327h416zM392 -123v-214h-224v214h224z" />
    <glyph glyph-name="uni1ECC" unicode="&#x1ecc;" horiz-adv-x="1119" 
d="M1046 671c0 -162.667 -3.83301 -277.834 -11.5 -345.501s-31.667 -129.5 -72 -185.5s-94.833 -99 -163.5 -129s-148.667 -45 -240 -45c-86.667 0 -164.5 14.167 -233.5 42.5s-124.5 70.833 -166.5 127.5s-67 118.334 -75 185.001s-12 183.334 -12 350.001v277
c0 162.667 3.83301 277.834 11.5 345.501s31.667 129.5 72 185.5s94.833 99 163.5 129s148.667 45 240 45c86.667 0 164.5 -14.167 233.5 -42.5s124.5 -70.833 166.5 -127.5s67 -118.334 75 -185.001s12 -183.334 12 -350.001v-277zM625 1203
c0 75.333 -4.16699 123.501 -12.5 144.501s-25.5 31.5 -51.5 31.5c-22 0 -38.833 -8.5 -50.5 -25.5s-17.5 -67.167 -17.5 -150.5v-756c0 -94 3.83301 -152 11.5 -174s25.5 -33 53.5 -33c28.667 0 47 12.667 55 38s12 85.666 12 180.999v744zM671 -122.999v-214h-224v214h224
z" />
    <glyph glyph-name="uni1ECD" unicode="&#x1ecd;" 
d="M986 861v-325c0 -119.333 -6 -206.833 -18 -262.5s-37.667 -107.667 -77 -156s-89.833 -84 -151.5 -107s-132.5 -34.5 -212.5 -34.5c-89.333 0 -165 9.83301 -227 29.5s-110.167 49.334 -144.5 89.001s-58.833 87.667 -73.5 144s-22 140.833 -22 253.5v340
c0 123.333 13.333 219.666 40 288.999s74.667 125 144 167s158 63 266 63c90.667 0 168.5 -13.5 233.5 -40.5s115.167 -62.167 150.5 -105.5s59.5 -88 72.5 -134s19.5 -116 19.5 -210zM582 961c0 68 -3.66699 110.834 -11 128.501s-23 26.5 -47 26.5s-40 -8.83301 -48 -26.5
s-12 -60.5 -12 -128.5v-599c0 -62.667 4 -103.5 12 -122.5s23.667 -28.5 47 -28.5c24 0 39.833 8.66699 47.5 26s11.5 54.666 11.5 111.999v612zM635 -122.999v-214h-224v214h224z" />
    <glyph glyph-name="uni1ECE" unicode="&#x1ece;" horiz-adv-x="1119" 
d="M1046 671c0 -162.667 -3.83301 -277.834 -11.5 -345.501s-31.667 -129.5 -72 -185.5s-94.833 -99 -163.5 -129s-148.667 -45 -240 -45c-86.667 0 -164.5 14.167 -233.5 42.5s-124.5 70.833 -166.5 127.5s-67 118.334 -75 185.001s-12 183.334 -12 350.001v277
c0 162.667 3.83301 277.834 11.5 345.501s31.667 129.5 72 185.5s94.833 99 163.5 129s148.667 45 240 45c86.667 0 164.5 -14.167 233.5 -42.5s124.5 -70.833 166.5 -127.5s67 -118.334 75 -185.001s12 -183.334 12 -350.001v-277zM625 1203
c0 75.333 -4.16699 123.501 -12.5 144.501s-25.5 31.5 -51.5 31.5c-22 0 -38.833 -8.5 -50.5 -25.5s-17.5 -67.167 -17.5 -150.5v-756c0 -94 3.83301 -152 11.5 -174s25.5 -33 53.5 -33c28.667 0 47 12.667 55 38s12 85.666 12 180.999v744zM489 1688l-0.000976562 32.001
c0 22.667 24.667 60.667 74 114c11.333 10.667 20 22.334 26 35.001s9 25.667 9 39c0 17.333 -2.33301 29.333 -7 36c-3.33301 6 -13.666 9.66699 -30.999 11c-35.333 0 -53 -18.333 -53 -55v-39h-110v47c0 35.333 13.667 67.333 41 96c30.667 30.667 73 46 127 46
c46 0 83.667 -11.333 113 -34s44 -56.667 44 -102c0 -40.667 -22.333 -79.334 -67 -116.001c-45.333 -36.667 -68 -73.334 -68 -110.001h-98z" />
    <glyph glyph-name="uni1ECF" unicode="&#x1ecf;" 
d="M986 861v-325c0 -119.333 -6 -206.833 -18 -262.5s-37.667 -107.667 -77 -156s-89.833 -84 -151.5 -107s-132.5 -34.5 -212.5 -34.5c-89.333 0 -165 9.83301 -227 29.5s-110.167 49.334 -144.5 89.001s-58.833 87.667 -73.5 144s-22 140.833 -22 253.5v340
c0 123.333 13.333 219.666 40 288.999s74.667 125 144 167s158 63 266 63c90.667 0 168.5 -13.5 233.5 -40.5s115.167 -62.167 150.5 -105.5s59.5 -88 72.5 -134s19.5 -116 19.5 -210zM582 961c0 68 -3.66699 110.834 -11 128.501s-23 26.5 -47 26.5s-40 -8.83301 -48 -26.5
s-12 -60.5 -12 -128.5v-599c0 -62.667 4 -103.5 12 -122.5s23.667 -28.5 47 -28.5c24 0 39.833 8.66699 47.5 26s11.5 54.666 11.5 111.999v612zM479 1405l0.000976562 32.001c0 22.667 24.667 60.667 74 114c11.333 10.667 20.166 22.334 26.499 35.001s9.5 25.667 9.5 39
c0 17.333 -2.66699 29.333 -8 36c-3.33301 6 -13.666 9.66699 -30.999 11c-35.333 0 -53 -18.333 -53 -55v-39h-110v47c0 35.333 13.667 67.333 41 96c31.333 30.667 73.666 46 126.999 46c46 0 83.667 -11.333 113 -34s44 -56.667 44 -102
c0 -40.667 -22 -79.334 -66 -116.001c-45.333 -36.667 -68 -73.334 -68 -110.001h-99z" />
    <glyph glyph-name="uni1ED0" unicode="&#x1ed0;" horiz-adv-x="1119" 
d="M1046 671c0 -162.667 -3.83301 -277.834 -11.5 -345.501s-31.667 -129.5 -72 -185.5s-94.833 -99 -163.5 -129s-148.667 -45 -240 -45c-86.667 0 -164.5 14.167 -233.5 42.5s-124.5 70.833 -166.5 127.5s-67 118.334 -75 185.001s-12 183.334 -12 350.001v277
c0 162.667 3.83301 277.834 11.5 345.501s31.667 129.5 72 185.5s94.833 99 163.5 129s148.667 45 240 45c86.667 0 164.5 -14.167 233.5 -42.5s124.5 -70.833 166.5 -127.5s67 -118.334 75 -185.001s12 -183.334 12 -350.001v-277zM625 1203
c0 75.333 -4.16699 123.501 -12.5 144.501s-25.5 31.5 -51.5 31.5c-22 0 -38.833 -8.5 -50.5 -25.5s-17.5 -67.167 -17.5 -150.5v-756c0 -94 3.83301 -152 11.5 -174s25.5 -33 53.5 -33c28.667 0 47 12.667 55 38s12 85.666 12 180.999v744zM564 1800l-79 -112h-190l174 242
h191l163 -242h-184zM901 2196l-252 -208h-156l135 208h273z" />
    <glyph glyph-name="uni1ED1" unicode="&#x1ed1;" 
d="M986 861v-325c0 -119.333 -6 -206.833 -18 -262.5s-37.667 -107.667 -77 -156s-89.833 -84 -151.5 -107s-132.5 -34.5 -212.5 -34.5c-89.333 0 -165 9.83301 -227 29.5s-110.167 49.334 -144.5 89.001s-58.833 87.667 -73.5 144s-22 140.833 -22 253.5v340
c0 123.333 13.333 219.666 40 288.999s74.667 125 144 167s158 63 266 63c90.667 0 168.5 -13.5 233.5 -40.5s115.167 -62.167 150.5 -105.5s59.5 -88 72.5 -134s19.5 -116 19.5 -210zM582 961c0 68 -3.66699 110.834 -11 128.501s-23 26.5 -47 26.5s-40 -8.83301 -48 -26.5
s-12 -60.5 -12 -128.5v-599c0 -62.667 4 -103.5 12 -122.5s23.667 -28.5 47 -28.5c24 0 39.833 8.66699 47.5 26s11.5 54.666 11.5 111.999v612zM529 1517l-80 -112h-189l174 242h190l163 -242h-183zM864 1893l-252 -208h-156l135 208h273z" />
    <glyph glyph-name="uni1ED2" unicode="&#x1ed2;" horiz-adv-x="1119" 
d="M1046 671c0 -162.667 -3.83301 -277.834 -11.5 -345.501s-31.667 -129.5 -72 -185.5s-94.833 -99 -163.5 -129s-148.667 -45 -240 -45c-86.667 0 -164.5 14.167 -233.5 42.5s-124.5 70.833 -166.5 127.5s-67 118.334 -75 185.001s-12 183.334 -12 350.001v277
c0 162.667 3.83301 277.834 11.5 345.501s31.667 129.5 72 185.5s94.833 99 163.5 129s148.667 45 240 45c86.667 0 164.5 -14.167 233.5 -42.5s124.5 -70.833 166.5 -127.5s67 -118.334 75 -185.001s12 -183.334 12 -350.001v-277zM625 1203
c0 75.333 -4.16699 123.501 -12.5 144.501s-25.5 31.5 -51.5 31.5c-22 0 -38.833 -8.5 -50.5 -25.5s-17.5 -67.167 -17.5 -150.5v-756c0 -94 3.83301 -152 11.5 -174s25.5 -33 53.5 -33c28.667 0 47 12.667 55 38s12 85.666 12 180.999v744zM564 1800l-79 -112h-190l174 242
h191l163 -242h-184zM528 2196l135 -208h-156l-252 208h273z" />
    <glyph glyph-name="uni1ED3" unicode="&#x1ed3;" 
d="M986 861v-325c0 -119.333 -6 -206.833 -18 -262.5s-37.667 -107.667 -77 -156s-89.833 -84 -151.5 -107s-132.5 -34.5 -212.5 -34.5c-89.333 0 -165 9.83301 -227 29.5s-110.167 49.334 -144.5 89.001s-58.833 87.667 -73.5 144s-22 140.833 -22 253.5v340
c0 123.333 13.333 219.666 40 288.999s74.667 125 144 167s158 63 266 63c90.667 0 168.5 -13.5 233.5 -40.5s115.167 -62.167 150.5 -105.5s59.5 -88 72.5 -134s19.5 -116 19.5 -210zM582 961c0 68 -3.66699 110.834 -11 128.501s-23 26.5 -47 26.5s-40 -8.83301 -48 -26.5
s-12 -60.5 -12 -128.5v-599c0 -62.667 4 -103.5 12 -122.5s23.667 -28.5 47 -28.5c24 0 39.833 8.66699 47.5 26s11.5 54.666 11.5 111.999v612zM529 1517l-80 -112h-189l174 242h190l163 -242h-183zM461 1893l135 -208h-156l-252 208h273z" />
    <glyph glyph-name="uni1ED4" unicode="&#x1ed4;" horiz-adv-x="1119" 
d="M1046 671c0 -162.667 -3.83301 -277.834 -11.5 -345.501s-31.667 -129.5 -72 -185.5s-94.833 -99 -163.5 -129s-148.667 -45 -240 -45c-86.667 0 -164.5 14.167 -233.5 42.5s-124.5 70.833 -166.5 127.5s-67 118.334 -75 185.001s-12 183.334 -12 350.001v277
c0 162.667 3.83301 277.834 11.5 345.501s31.667 129.5 72 185.5s94.833 99 163.5 129s148.667 45 240 45c86.667 0 164.5 -14.167 233.5 -42.5s124.5 -70.833 166.5 -127.5s67 -118.334 75 -185.001s12 -183.334 12 -350.001v-277zM625 1203
c0 75.333 -4.16699 123.501 -12.5 144.501s-25.5 31.5 -51.5 31.5c-22 0 -38.833 -8.5 -50.5 -25.5s-17.5 -67.167 -17.5 -150.5v-756c0 -94 3.83301 -152 11.5 -174s25.5 -33 53.5 -33c28.667 0 47 12.667 55 38s12 85.666 12 180.999v744zM564 1800l-79 -112h-190l174 242
h191l163 -242h-184zM738 1883l0.000976562 32.001c0 22.667 24.667 60.667 74 114c11.333 10.667 20.166 22.334 26.499 35.001s9.5 25.667 9.5 39c0 17.333 -2.66699 29.333 -8 36c-3.33301 6 -13.666 9.66699 -30.999 11c-35.333 0 -53 -18.333 -53 -55v-39h-110v47
c0 35.333 13.667 67.333 41 96c31.333 30.667 73.666 46 126.999 46c46 0 83.667 -11.333 113 -34s44 -56.667 44 -102c0 -40.667 -22 -79.334 -66 -116.001c-45.333 -36.667 -68 -73.334 -68 -110.001h-99z" />
    <glyph glyph-name="uni1ED5" unicode="&#x1ed5;" 
d="M986 861v-325c0 -119.333 -6 -206.833 -18 -262.5s-37.667 -107.667 -77 -156s-89.833 -84 -151.5 -107s-132.5 -34.5 -212.5 -34.5c-89.333 0 -165 9.83301 -227 29.5s-110.167 49.334 -144.5 89.001s-58.833 87.667 -73.5 144s-22 140.833 -22 253.5v340
c0 123.333 13.333 219.666 40 288.999s74.667 125 144 167s158 63 266 63c90.667 0 168.5 -13.5 233.5 -40.5s115.167 -62.167 150.5 -105.5s59.5 -88 72.5 -134s19.5 -116 19.5 -210zM582 961c0 68 -3.66699 110.834 -11 128.501s-23 26.5 -47 26.5s-40 -8.83301 -48 -26.5
s-12 -60.5 -12 -128.5v-599c0 -62.667 4 -103.5 12 -122.5s23.667 -28.5 47 -28.5c24 0 39.833 8.66699 47.5 26s11.5 54.666 11.5 111.999v612zM529 1517l-80 -112h-189l174 242h190l163 -242h-183zM699 1600l0.000976562 32.001c0 22.667 24.667 60.667 74 114
c11.333 10.667 20.166 22.334 26.499 35.001s9.5 25.667 9.5 39c0 17.333 -2.66699 29.333 -8 36c-3.33301 6 -13.666 9.66699 -30.999 11c-35.333 0 -53 -18.333 -53 -55v-39h-110v47c0 35.333 13.667 67.333 41 96c31.333 30.667 73.666 46 126.999 46
c46 0 83.667 -11.333 113 -34s44 -56.667 44 -102c0 -40.667 -22 -79.334 -66 -116.001c-45.333 -36.667 -68 -73.334 -68 -110.001h-99z" />
    <glyph glyph-name="uni1ED6" unicode="&#x1ed6;" horiz-adv-x="1119" 
d="M1046 671c0 -162.667 -3.83301 -277.834 -11.5 -345.501s-31.667 -129.5 -72 -185.5s-94.833 -99 -163.5 -129s-148.667 -45 -240 -45c-86.667 0 -164.5 14.167 -233.5 42.5s-124.5 70.833 -166.5 127.5s-67 118.334 -75 185.001s-12 183.334 -12 350.001v277
c0 162.667 3.83301 277.834 11.5 345.501s31.667 129.5 72 185.5s94.833 99 163.5 129s148.667 45 240 45c86.667 0 164.5 -14.167 233.5 -42.5s124.5 -70.833 166.5 -127.5s67 -118.334 75 -185.001s12 -183.334 12 -350.001v-277zM625 1203
c0 75.333 -4.16699 123.501 -12.5 144.501s-25.5 31.5 -51.5 31.5c-22 0 -38.833 -8.5 -50.5 -25.5s-17.5 -67.167 -17.5 -150.5v-756c0 -94 3.83301 -152 11.5 -174s25.5 -33 53.5 -33c28.667 0 47 12.667 55 38s12 85.666 12 180.999v744zM564 1800l-79 -112h-190l174 242
h191l163 -242h-184zM831 2169l53.001 -119.001c-10.667 -12 -23 -24.667 -37 -38c-7.33301 -6.66699 -18.333 -15.667 -33 -27c-26 -17.333 -54 -26 -84 -26l-38 3l-37 11l-43 19l-73 29l-28 5l-28 1c-22 0 -42.333 -7.66699 -61 -23
c-10.667 -9.33301 -22.334 -25.666 -35.001 -48.999l-41 127c6.66699 10.667 13.667 20.667 21 30c7.33301 8 17 17.333 29 28c27.333 17.333 57.666 26 90.999 26c8 0 16.667 -0.333008 26 -1c10 -2 22 -5 36 -9l35 -9l30 -13l63 -25
c18.667 -7.33301 36.334 -11 53.001 -11c24 0 46.667 11 68 33z" />
    <glyph glyph-name="uni1ED7" unicode="&#x1ed7;" 
d="M986 861v-325c0 -119.333 -6 -206.833 -18 -262.5s-37.667 -107.667 -77 -156s-89.833 -84 -151.5 -107s-132.5 -34.5 -212.5 -34.5c-89.333 0 -165 9.83301 -227 29.5s-110.167 49.334 -144.5 89.001s-58.833 87.667 -73.5 144s-22 140.833 -22 253.5v340
c0 123.333 13.333 219.666 40 288.999s74.667 125 144 167s158 63 266 63c90.667 0 168.5 -13.5 233.5 -40.5s115.167 -62.167 150.5 -105.5s59.5 -88 72.5 -134s19.5 -116 19.5 -210zM582 961c0 68 -3.66699 110.834 -11 128.501s-23 26.5 -47 26.5s-40 -8.83301 -48 -26.5
s-12 -60.5 -12 -128.5v-599c0 -62.667 4 -103.5 12 -122.5s23.667 -28.5 47 -28.5c24 0 39.833 8.66699 47.5 26s11.5 54.666 11.5 111.999v612zM529 1517l-80 -112h-189l174 242h190l163 -242h-183zM791 1886l53.001 -119.001c-10.667 -12 -23 -24.667 -37 -38
c-7.33301 -6.66699 -18.333 -15.667 -33 -27c-26 -17.333 -54 -26 -84 -26l-38 3l-37 11l-43 19l-73 29l-28 5l-28 1c-22 0 -42.333 -7.66699 -61 -23c-10.667 -9.33301 -22.334 -25.666 -35.001 -48.999l-41 127c6.66699 10.667 13.667 20.667 21 30
c7.33301 8 17 17.333 29 28c27.333 17.333 57.666 26 90.999 26c8 0 16.667 -0.333008 26 -1c10 -2 22 -5 36 -9l35 -9l30 -13l63 -25c18.667 -7.33301 36.334 -11 53.001 -11c24 0 46.667 11 68 33z" />
    <glyph glyph-name="uni1ED8" unicode="&#x1ed8;" horiz-adv-x="1119" 
d="M1046 671c0 -162.667 -3.83301 -277.834 -11.5 -345.501s-31.667 -129.5 -72 -185.5s-94.833 -99 -163.5 -129s-148.667 -45 -240 -45c-86.667 0 -164.5 14.167 -233.5 42.5s-124.5 70.833 -166.5 127.5s-67 118.334 -75 185.001s-12 183.334 -12 350.001v277
c0 162.667 3.83301 277.834 11.5 345.501s31.667 129.5 72 185.5s94.833 99 163.5 129s148.667 45 240 45c86.667 0 164.5 -14.167 233.5 -42.5s124.5 -70.833 166.5 -127.5s67 -118.334 75 -185.001s12 -183.334 12 -350.001v-277zM625 1203
c0 75.333 -4.16699 123.501 -12.5 144.501s-25.5 31.5 -51.5 31.5c-22 0 -38.833 -8.5 -50.5 -25.5s-17.5 -67.167 -17.5 -150.5v-756c0 -94 3.83301 -152 11.5 -174s25.5 -33 53.5 -33c28.667 0 47 12.667 55 38s12 85.666 12 180.999v744zM564 1800l-79 -112h-190l174 242
h191l163 -242h-184zM671 -122.999v-214h-224v214h224z" />
    <glyph glyph-name="uni1ED9" unicode="&#x1ed9;" 
d="M986 861v-325c0 -119.333 -6 -206.833 -18 -262.5s-37.667 -107.667 -77 -156s-89.833 -84 -151.5 -107s-132.5 -34.5 -212.5 -34.5c-89.333 0 -165 9.83301 -227 29.5s-110.167 49.334 -144.5 89.001s-58.833 87.667 -73.5 144s-22 140.833 -22 253.5v340
c0 123.333 13.333 219.666 40 288.999s74.667 125 144 167s158 63 266 63c90.667 0 168.5 -13.5 233.5 -40.5s115.167 -62.167 150.5 -105.5s59.5 -88 72.5 -134s19.5 -116 19.5 -210zM582 961c0 68 -3.66699 110.834 -11 128.501s-23 26.5 -47 26.5s-40 -8.83301 -48 -26.5
s-12 -60.5 -12 -128.5v-599c0 -62.667 4 -103.5 12 -122.5s23.667 -28.5 47 -28.5c24 0 39.833 8.66699 47.5 26s11.5 54.666 11.5 111.999v612zM529 1517l-80 -112h-189l174 242h190l163 -242h-183zM635 -122.999v-214h-224v214h224z" />
    <glyph glyph-name="uni1EDA" unicode="&#x1eda;" horiz-adv-x="1119" 
d="M625 1203c0 75.333 -4.16699 123.501 -12.5 144.501s-25.5 31.5 -51.5 31.5c-22 0 -38.833 -8.5 -50.5 -25.5s-17.5 -67.167 -17.5 -150.5v-756c0 -94 3.83301 -152 11.5 -174s25.5 -33 53.5 -33c28.667 0 47 12.667 55 38s12 85.666 12 180.999v744zM959 1483
c42 -56.667 67.001 -118.333 75.001 -185s12 -183.334 12 -350.001v-277c0 -162.667 -3.83301 -277.834 -11.5 -345.501s-31.667 -129.5 -72 -185.5s-94.833 -99 -163.5 -129s-148.667 -45 -240 -45c-86.667 0 -164.5 14.167 -233.5 42.5s-124.5 70.833 -166.5 127.5
s-67 118.334 -75 185.001s-12 183.334 -12 350.001v277c0 162.667 3.83301 277.834 11.5 345.501s31.667 129.5 72 185.5s94.833 99 163.5 129s148.667 45 240 45c86.667 0 164.667 -14 234 -42c27.333 -12 53 -26 77 -42c35.333 22 55.666 51 60.999 87h-68v222h238l1 -50
c0 -76 -6.5 -138.833 -19.5 -188.5s-38.833 -90.834 -77.5 -123.501c-14 -12.667 -29.333 -23.667 -46 -33zM874.001 1926l-252 -208h-156l135 208h273z" />
    <glyph glyph-name="uni1EDB" unicode="&#x1edb;" 
d="M582 961c0 68 -3.66699 110.834 -11 128.501s-23 26.5 -47 26.5s-40 -8.83301 -48 -26.5s-12 -60.5 -12 -128.5v-599c0 -62.667 4 -103.5 12 -122.5s23.667 -28.5 47 -28.5c24 0 39.833 8.66699 47.5 26s11.5 54.666 11.5 111.999v612zM834 1645l-252 -208h-156l135 208
h273zM910 1184c26.667 -36.667 45.668 -74.332 57.001 -112.999c12.667 -46 19 -116 19 -210v-325c0 -119.333 -6 -206.833 -18 -262.5s-37.667 -107.667 -77 -156s-89.833 -84 -151.5 -107s-132.5 -34.5 -212.5 -34.5c-89.333 0 -165 9.83301 -227 29.5
s-110.167 49.334 -144.5 89.001s-58.833 87.667 -73.5 144s-22 140.833 -22 253.5v340c0 123.333 13.333 219.666 40 288.999s74.667 125 144 167s158 63 266 63c90.667 0 168.667 -13.333 234 -40c28 -12 53.667 -25.667 77 -41c35.333 22 55.666 51 60.999 87h-68v222h238
l1 -50c0 -76 -6.5 -138.833 -19.5 -188.5s-38.833 -90.834 -77.5 -123.501c-14 -12.667 -29.333 -23.667 -46 -33z" />
    <glyph glyph-name="uni1EDC" unicode="&#x1edc;" horiz-adv-x="1119" 
d="M625 1203c0 75.333 -4.16699 123.501 -12.5 144.501s-25.5 31.5 -51.5 31.5c-22 0 -38.833 -8.5 -50.5 -25.5s-17.5 -67.167 -17.5 -150.5v-756c0 -94 3.83301 -152 11.5 -174s25.5 -33 53.5 -33c28.667 0 47 12.667 55 38s12 85.666 12 180.999v744zM959 1483
c42 -56.667 67.001 -118.333 75.001 -185s12 -183.334 12 -350.001v-277c0 -162.667 -3.83301 -277.834 -11.5 -345.501s-31.667 -129.5 -72 -185.5s-94.833 -99 -163.5 -129s-148.667 -45 -240 -45c-86.667 0 -164.5 14.167 -233.5 42.5s-124.5 70.833 -166.5 127.5
s-67 118.334 -75 185.001s-12 183.334 -12 350.001v277c0 162.667 3.83301 277.834 11.5 345.501s31.667 129.5 72 185.5s94.833 99 163.5 129s148.667 45 240 45c86.667 0 164.667 -14 234 -42c27.333 -12 53 -26 77 -42c35.333 22 55.666 51 60.999 87h-68v222h238l1 -50
c0 -76 -6.5 -138.833 -19.5 -188.5s-38.833 -90.834 -77.5 -123.501c-14 -12.667 -29.333 -23.667 -46 -33zM530.001 1926l135 -208h-156l-252 208h273z" />
    <glyph glyph-name="uni1EDD" unicode="&#x1edd;" 
d="M491 1645l135 -208h-156l-252 208h273zM582 961c0 68 -3.66699 110.834 -11 128.501s-23 26.5 -47 26.5s-40 -8.83301 -48 -26.5s-12 -60.5 -12 -128.5v-599c0 -62.667 4 -103.5 12 -122.5s23.667 -28.5 47 -28.5c24 0 39.833 8.66699 47.5 26s11.5 54.666 11.5 111.999
v612zM910 1184c26.667 -36.667 45.668 -74.332 57.001 -112.999c12.667 -46 19 -116 19 -210v-325c0 -119.333 -6 -206.833 -18 -262.5s-37.667 -107.667 -77 -156s-89.833 -84 -151.5 -107s-132.5 -34.5 -212.5 -34.5c-89.333 0 -165 9.83301 -227 29.5
s-110.167 49.334 -144.5 89.001s-58.833 87.667 -73.5 144s-22 140.833 -22 253.5v340c0 123.333 13.333 219.666 40 288.999s74.667 125 144 167s158 63 266 63c90.667 0 168.667 -13.333 234 -40c28 -12 53.667 -25.667 77 -41c35.333 22 55.666 51 60.999 87h-68v222h238
l1 -50c0 -76 -6.5 -138.833 -19.5 -188.5s-38.833 -90.834 -77.5 -123.501c-14 -12.667 -29.333 -23.667 -46 -33z" />
    <glyph glyph-name="uni1EDE" unicode="&#x1ede;" horiz-adv-x="1119" 
d="M625 1203c0 75.333 -4.16699 123.501 -12.5 144.501s-25.5 31.5 -51.5 31.5c-22 0 -38.833 -8.5 -50.5 -25.5s-17.5 -67.167 -17.5 -150.5v-756c0 -94 3.83301 -152 11.5 -174s25.5 -33 53.5 -33c28.667 0 47 12.667 55 38s12 85.666 12 180.999v744zM959 1483
c42 -56.667 67.001 -118.333 75.001 -185s12 -183.334 12 -350.001v-277c0 -162.667 -3.83301 -277.834 -11.5 -345.501s-31.667 -129.5 -72 -185.5s-94.833 -99 -163.5 -129s-148.667 -45 -240 -45c-86.667 0 -164.5 14.167 -233.5 42.5s-124.5 70.833 -166.5 127.5
s-67 118.334 -75 185.001s-12 183.334 -12 350.001v277c0 162.667 3.83301 277.834 11.5 345.501s31.667 129.5 72 185.5s94.833 99 163.5 129s148.667 45 240 45c86.667 0 164.667 -14 234 -42c27.333 -12 53 -26 77 -42c35.333 22 55.666 51 60.999 87h-68v222h238l1 -50
c0 -76 -6.5 -138.833 -19.5 -188.5s-38.833 -90.834 -77.5 -123.501c-14 -12.667 -29.333 -23.667 -46 -33zM520.001 1688l-0.000976562 32.001c0 22.667 24.667 60.667 74 114c11.333 10.667 20 22.334 26 35.001s9 25.667 9 39c0 17.333 -2.33301 29.333 -7 36
c-3.33301 6 -13.666 9.66699 -30.999 11c-35.333 0 -53 -18.333 -53 -55v-39h-110v47c0 35.333 13.667 67.333 41 96c30.667 30.667 73 46 127 46c46 0 83.667 -11.333 113 -34s44 -56.667 44 -102c0 -40.667 -22.333 -79.334 -67 -116.001
c-45.333 -36.667 -68 -73.334 -68 -110.001h-98z" />
    <glyph glyph-name="uni1EDF" unicode="&#x1edf;" 
d="M582 961c0 68 -3.66699 110.834 -11 128.501s-23 26.5 -47 26.5s-40 -8.83301 -48 -26.5s-12 -60.5 -12 -128.5v-599c0 -62.667 4 -103.5 12 -122.5s23.667 -28.5 47 -28.5c24 0 39.833 8.66699 47.5 26s11.5 54.666 11.5 111.999v612zM479 1405l0.000976562 32.001
c0 22.667 24.667 60.667 74 114c11.333 10.667 20.166 22.334 26.499 35.001s9.5 25.667 9.5 39c0 17.333 -2.66699 29.333 -8 36c-3.33301 6 -13.666 9.66699 -30.999 11c-35.333 0 -53 -18.333 -53 -55v-39h-110v47c0 35.333 13.667 67.333 41 96
c31.333 30.667 73.666 46 126.999 46c46 0 83.667 -11.333 113 -34s44 -56.667 44 -102c0 -40.667 -22 -79.334 -66 -116.001c-45.333 -36.667 -68 -73.334 -68 -110.001h-99zM910.001 1184c26.667 -36.667 45.668 -74.332 57.001 -112.999c12.667 -46 19 -116 19 -210v-325
c0 -119.333 -6 -206.833 -18 -262.5s-37.667 -107.667 -77 -156s-89.833 -84 -151.5 -107s-132.5 -34.5 -212.5 -34.5c-89.333 0 -165 9.83301 -227 29.5s-110.167 49.334 -144.5 89.001s-58.833 87.667 -73.5 144s-22 140.833 -22 253.5v340
c0 123.333 13.333 219.666 40 288.999s74.667 125 144 167s158 63 266 63c90.667 0 168.667 -13.333 234 -40c28 -12 53.667 -25.667 77 -41c35.333 22 55.666 51 60.999 87h-68v222h238l1 -50c0 -76 -6.5 -138.833 -19.5 -188.5s-38.833 -90.834 -77.5 -123.501
c-14 -12.667 -29.333 -23.667 -46 -33z" />
    <glyph glyph-name="uni1EE0" unicode="&#x1ee0;" horiz-adv-x="1119" 
d="M625 1203c0 75.333 -4.16699 123.501 -12.5 144.501s-25.5 31.5 -51.5 31.5c-22 0 -38.833 -8.5 -50.5 -25.5s-17.5 -67.167 -17.5 -150.5v-756c0 -94 3.83301 -152 11.5 -174s25.5 -33 53.5 -33c28.667 0 47 12.667 55 38s12 85.666 12 180.999v744zM959 1483
c42 -56.667 67.001 -118.333 75.001 -185s12 -183.334 12 -350.001v-277c0 -162.667 -3.83301 -277.834 -11.5 -345.501s-31.667 -129.5 -72 -185.5s-94.833 -99 -163.5 -129s-148.667 -45 -240 -45c-86.667 0 -164.5 14.167 -233.5 42.5s-124.5 70.833 -166.5 127.5
s-67 118.334 -75 185.001s-12 183.334 -12 350.001v277c0 162.667 3.83301 277.834 11.5 345.501s31.667 129.5 72 185.5s94.833 99 163.5 129s148.667 45 240 45c86.667 0 164.667 -14 234 -42c27.333 -12 53 -26 77 -42c35.333 22 55.666 51 60.999 87h-68v222h238l1 -50
c0 -76 -6.5 -138.833 -19.5 -188.5s-38.833 -90.834 -77.5 -123.501c-14 -12.667 -29.333 -23.667 -46 -33zM794.001 1902l54.002 -119.001c-10.667 -12 -23.334 -24.667 -38.001 -38c-7.33301 -6.66699 -18 -15.667 -32 -27c-26 -17.333 -54.333 -26 -85 -26l-37 3l-37 11
l-43 19l-73 29l-28 5l-29 1c-21.333 0 -41.333 -7.66699 -60 -23c-11.333 -9.33301 -23.333 -25.666 -36 -48.999l-40 127c6 10.667 12.667 20.667 20 30c7.33301 8 17.333 17.333 30 28c26.667 17.333 57 26 91 26c7.33301 0 15.666 -0.333008 24.999 -1
c10 -2 22.333 -5 37 -9l34 -9l30 -13l64 -25c18.667 -7.33301 36 -11 52 -11c24 0 47 11 69 33z" />
    <glyph glyph-name="uni1EE1" unicode="&#x1ee1;" 
d="M582 961c0 68 -3.66699 110.834 -11 128.501s-23 26.5 -47 26.5s-40 -8.83301 -48 -26.5s-12 -60.5 -12 -128.5v-599c0 -62.667 4 -103.5 12 -122.5s23.667 -28.5 47 -28.5c24 0 39.833 8.66699 47.5 26s11.5 54.666 11.5 111.999v612zM732 1619l53.001 -119.001
c-10.667 -12 -23 -24.667 -37 -38c-7.33301 -6.66699 -18.333 -15.667 -33 -27c-26 -17.333 -54 -26 -84 -26l-38 3l-37 11l-43 19l-73 29l-28 5l-28 1c-22 0 -42.333 -7.66699 -61 -23c-10.667 -9.33301 -22.334 -25.666 -35.001 -48.999l-41 127
c6.66699 10.667 13.667 20.667 21 30c7.33301 8 17 17.333 29 28c27.333 17.333 57.666 26 90.999 26c8 0 16.667 -0.333008 26 -1c10 -2 22 -5 36 -9l35 -9l30 -13l63 -25c18.667 -7.33301 36.334 -11 53.001 -11c24 0 46.667 11 68 33zM910.001 1184
c26.667 -36.667 45.668 -74.332 57.001 -112.999c12.667 -46 19 -116 19 -210v-325c0 -119.333 -6 -206.833 -18 -262.5s-37.667 -107.667 -77 -156s-89.833 -84 -151.5 -107s-132.5 -34.5 -212.5 -34.5c-89.333 0 -165 9.83301 -227 29.5s-110.167 49.334 -144.5 89.001
s-58.833 87.667 -73.5 144s-22 140.833 -22 253.5v340c0 123.333 13.333 219.666 40 288.999s74.667 125 144 167s158 63 266 63c90.667 0 168.667 -13.333 234 -40c28 -12 53.667 -25.667 77 -41c35.333 22 55.666 51 60.999 87h-68v222h238l1 -50
c0 -76 -6.5 -138.833 -19.5 -188.5s-38.833 -90.834 -77.5 -123.501c-14 -12.667 -29.333 -23.667 -46 -33z" />
    <glyph glyph-name="uni1EE2" unicode="&#x1ee2;" horiz-adv-x="1119" 
d="M625 1203c0 75.333 -4.16699 123.501 -12.5 144.501s-25.5 31.5 -51.5 31.5c-22 0 -38.833 -8.5 -50.5 -25.5s-17.5 -67.167 -17.5 -150.5v-756c0 -94 3.83301 -152 11.5 -174s25.5 -33 53.5 -33c28.667 0 47 12.667 55 38s12 85.666 12 180.999v744zM959 1483
c42 -56.667 67.001 -118.333 75.001 -185s12 -183.334 12 -350.001v-277c0 -162.667 -3.83301 -277.834 -11.5 -345.501s-31.667 -129.5 -72 -185.5s-94.833 -99 -163.5 -129s-148.667 -45 -240 -45c-86.667 0 -164.5 14.167 -233.5 42.5s-124.5 70.833 -166.5 127.5
s-67 118.334 -75 185.001s-12 183.334 -12 350.001v277c0 162.667 3.83301 277.834 11.5 345.501s31.667 129.5 72 185.5s94.833 99 163.5 129s148.667 45 240 45c86.667 0 164.667 -14 234 -42c27.333 -12 53 -26 77 -42c35.333 22 55.666 51 60.999 87h-68v222h238l1 -50
c0 -76 -6.5 -138.833 -19.5 -188.5s-38.833 -90.834 -77.5 -123.501c-14 -12.667 -29.333 -23.667 -46 -33zM671.001 -122.998v-214h-224v214h224z" />
    <glyph glyph-name="uni1EE3" unicode="&#x1ee3;" 
d="M582 961c0 68 -3.66699 110.834 -11 128.501s-23 26.5 -47 26.5s-40 -8.83301 -48 -26.5s-12 -60.5 -12 -128.5v-599c0 -62.667 4 -103.5 12 -122.5s23.667 -28.5 47 -28.5c24 0 39.833 8.66699 47.5 26s11.5 54.666 11.5 111.999v612zM635 -122.999v-214h-224v214h224z
M910 1184c26.667 -36.667 45.668 -74.332 57.001 -112.999c12.667 -46 19 -116 19 -210v-325c0 -119.333 -6 -206.833 -18 -262.5s-37.667 -107.667 -77 -156s-89.833 -84 -151.5 -107s-132.5 -34.5 -212.5 -34.5c-89.333 0 -165 9.83301 -227 29.5
s-110.167 49.334 -144.5 89.001s-58.833 87.667 -73.5 144s-22 140.833 -22 253.5v340c0 123.333 13.333 219.666 40 288.999s74.667 125 144 167s158 63 266 63c90.667 0 168.667 -13.333 234 -40c28 -12 53.667 -25.667 77 -41c35.333 22 55.666 51 60.999 87h-68v222h238
l1 -50c0 -76 -6.5 -138.833 -19.5 -188.5s-38.833 -90.834 -77.5 -123.501c-14 -12.667 -29.333 -23.667 -46 -33z" />
    <glyph glyph-name="uni1EE4" unicode="&#x1ee4;" horiz-adv-x="1120" 
d="M1041 1619l-0.00195312 -1082c0 -122.667 -4 -208.834 -12 -258.501s-31.667 -100.667 -71 -153s-91.166 -92 -155.499 -119s-140.166 -40.5 -227.499 -40.5c-96.667 0 -182 16 -256 48s-129.333 73.667 -166 125s-58.334 105.5 -65.001 162.5s-10 176.833 -10 359.5v958
h421v-1214c0 -70.667 3.83301 -115.834 11.5 -135.501s23.167 -29.5 46.5 -29.5c26.667 0 43.834 10.833 51.501 32.5s11.5 72.834 11.5 153.501v1193h421zM671.998 -122.999v-214h-224v214h224z" />
    <glyph glyph-name="uni1EE5" unicode="&#x1ee5;" horiz-adv-x="1070" 
d="M997 1327v-1327h-411l7 110c-28 -44.667 -62.5 -78.167 -103.5 -100.5s-88.167 -33.5 -141.5 -33.5c-60.667 0 -111 10.667 -151 32s-69.5 49.666 -88.5 84.999s-30.833 72.166 -35.5 110.499s-7 114.5 -7 228.5v895h404v-903c0 -103.333 3.16699 -164.666 9.5 -183.999
s23.5 -29 51.5 -29c30 0 47.833 10 53.5 30s8.5 84.333 8.5 193v893h404zM644 -122.999v-214h-224v214h224z" />
    <glyph glyph-name="uni1EE6" unicode="&#x1ee6;" horiz-adv-x="1120" 
d="M1041 1619l-0.00195312 -1082c0 -122.667 -4 -208.834 -12 -258.501s-31.667 -100.667 -71 -153s-91.166 -92 -155.499 -119s-140.166 -40.5 -227.499 -40.5c-96.667 0 -182 16 -256 48s-129.333 73.667 -166 125s-58.334 105.5 -65.001 162.5s-10 176.833 -10 359.5v958
h421v-1214c0 -70.667 3.83301 -115.834 11.5 -135.501s23.167 -29.5 46.5 -29.5c26.667 0 43.834 10.833 51.501 32.5s11.5 72.834 11.5 153.501v1193h421zM518.998 1688l-0.000976562 32.001c0 22.667 24.667 60.667 74 114c11.333 10.667 20 22.334 26 35.001
s9 25.667 9 39c0 17.333 -2.33301 29.333 -7 36c-3.33301 6 -13.666 9.66699 -30.999 11c-35.333 0 -53 -18.333 -53 -55v-39h-110v47c0 35.333 13.667 67.333 41 96c30.667 30.667 73 46 127 46c46 0 83.667 -11.333 113 -34s44 -56.667 44 -102
c0 -40.667 -22.333 -79.334 -67 -116.001c-45.333 -36.667 -68 -73.334 -68 -110.001h-98z" />
    <glyph glyph-name="uni1EE7" unicode="&#x1ee7;" horiz-adv-x="1070" 
d="M997 1327v-1327h-411l7 110c-28 -44.667 -62.5 -78.167 -103.5 -100.5s-88.167 -33.5 -141.5 -33.5c-60.667 0 -111 10.667 -151 32s-69.5 49.666 -88.5 84.999s-30.833 72.166 -35.5 110.499s-7 114.5 -7 228.5v895h404v-903c0 -103.333 3.16699 -164.666 9.5 -183.999
s23.5 -29 51.5 -29c30 0 47.833 10 53.5 30s8.5 84.333 8.5 193v893h404zM490 1405l0.000976562 32.001c0 22.667 24.667 60.667 74 114c11.333 10.667 20.166 22.334 26.499 35.001s9.5 25.667 9.5 39c0 17.333 -2.66699 29.333 -8 36
c-3.33301 6 -13.666 9.66699 -30.999 11c-35.333 0 -53 -18.333 -53 -55v-39h-110v47c0 35.333 13.667 67.333 41 96c31.333 30.667 73.666 46 126.999 46c46 0 83.667 -11.333 113 -34s44 -56.667 44 -102c0 -40.667 -22 -79.334 -66 -116.001
c-45.333 -36.667 -68 -73.334 -68 -110.001h-99z" />
    <glyph glyph-name="uni1EE8" unicode="&#x1ee8;" horiz-adv-x="1120" 
d="M874 1896l-252 -208h-156l135 208h273zM1041 1456l-0.00292969 -918.997c0 -122.667 -4 -208.834 -12 -258.501s-31.667 -100.667 -71 -153s-91.166 -92 -155.499 -119s-140.166 -40.5 -227.499 -40.5c-96.667 0 -182 16 -256 48s-129.333 73.667 -166 125
s-58.334 105.5 -65.001 162.5s-10 176.833 -10 359.5v958h421v-1214c0 -70.667 3.83301 -115.834 11.5 -135.501s23.167 -29.5 46.5 -29.5c26.667 0 43.834 10.833 51.501 32.5s11.5 72.834 11.5 153.501v1193h421v-33c21.333 19.333 34 42.666 38 69.999h-68v222h238l1 -50
c0 -76 -6.5 -138.833 -19.5 -188.5s-38.833 -90.834 -77.5 -123.501c-31.333 -27.333 -68.666 -47.333 -111.999 -60z" />
    <glyph glyph-name="uni1EE9" unicode="&#x1ee9;" horiz-adv-x="1070" 
d="M874 1645l-252 -208h-156l135 208h273zM997 1153l-0.00195312 -1153h-411l7 110c-28 -44.667 -62.5 -78.167 -103.5 -100.5s-88.167 -33.5 -141.5 -33.5c-60.667 0 -111 10.667 -151 32s-69.5 49.666 -88.5 84.999s-30.833 72.166 -35.5 110.499s-7 114.5 -7 228.5v895
h404v-903c0 -103.333 3.16699 -164.666 9.5 -183.999s23.5 -29 51.5 -29c30 0 47.833 10 53.5 30s8.5 84.333 8.5 193v893h404v-52c30.667 22 48.334 49.333 53.001 82h-68v222h238l1 -50c0 -76 -6.5 -138.833 -19.5 -188.5s-38.833 -90.834 -77.5 -123.501
c-35.333 -30.667 -77.666 -52 -126.999 -64z" />
    <glyph glyph-name="uni1EEA" unicode="&#x1eea;" horiz-adv-x="1120" 
d="M511 1896l135 -208h-156l-252 208h273zM1041 1456l-0.00292969 -918.997c0 -122.667 -4 -208.834 -12 -258.501s-31.667 -100.667 -71 -153s-91.166 -92 -155.499 -119s-140.166 -40.5 -227.499 -40.5c-96.667 0 -182 16 -256 48s-129.333 73.667 -166 125
s-58.334 105.5 -65.001 162.5s-10 176.833 -10 359.5v958h421v-1214c0 -70.667 3.83301 -115.834 11.5 -135.501s23.167 -29.5 46.5 -29.5c26.667 0 43.834 10.833 51.501 32.5s11.5 72.834 11.5 153.501v1193h421v-33c21.333 19.333 34 42.666 38 69.999h-68v222h238l1 -50
c0 -76 -6.5 -138.833 -19.5 -188.5s-38.833 -90.834 -77.5 -123.501c-31.333 -27.333 -68.666 -47.333 -111.999 -60z" />
    <glyph glyph-name="uni1EEB" unicode="&#x1eeb;" horiz-adv-x="1070" 
d="M501 1645l135 -208h-156l-252 208h273zM997 1153l-0.00195312 -1153h-411l7 110c-28 -44.667 -62.5 -78.167 -103.5 -100.5s-88.167 -33.5 -141.5 -33.5c-60.667 0 -111 10.667 -151 32s-69.5 49.666 -88.5 84.999s-30.833 72.166 -35.5 110.499s-7 114.5 -7 228.5v895
h404v-903c0 -103.333 3.16699 -164.666 9.5 -183.999s23.5 -29 51.5 -29c30 0 47.833 10 53.5 30s8.5 84.333 8.5 193v893h404v-52c30.667 22 48.334 49.333 53.001 82h-68v222h238l1 -50c0 -76 -6.5 -138.833 -19.5 -188.5s-38.833 -90.834 -77.5 -123.501
c-35.333 -30.667 -77.666 -52 -126.999 -64z" />
    <glyph glyph-name="uni1EEC" unicode="&#x1eec;" horiz-adv-x="1120" 
d="M519 1688l-0.000976562 32.001c0 22.667 24.667 60.667 74 114c11.333 10.667 20 22.334 26 35.001s9 25.667 9 39c0 17.333 -2.33301 29.333 -7 36c-3.33301 6 -13.666 9.66699 -30.999 11c-35.333 0 -53 -18.333 -53 -55v-39h-110v47c0 35.333 13.667 67.333 41 96
c30.667 30.667 73 46 127 46c46 0 83.667 -11.333 113 -34s44 -56.667 44 -102c0 -40.667 -22.333 -79.334 -67 -116.001c-45.333 -36.667 -68 -73.334 -68 -110.001h-98zM1041 1456l-0.00292969 -918.997c0 -122.667 -4 -208.834 -12 -258.501s-31.667 -100.667 -71 -153
s-91.166 -92 -155.499 -119s-140.166 -40.5 -227.499 -40.5c-96.667 0 -182 16 -256 48s-129.333 73.667 -166 125s-58.334 105.5 -65.001 162.5s-10 176.833 -10 359.5v958h421v-1214c0 -70.667 3.83301 -115.834 11.5 -135.501s23.167 -29.5 46.5 -29.5
c26.667 0 43.834 10.833 51.501 32.5s11.5 72.834 11.5 153.501v1193h421v-33c21.333 19.333 34 42.666 38 69.999h-68v222h238l1 -50c0 -76 -6.5 -138.833 -19.5 -188.5s-38.833 -90.834 -77.5 -123.501c-31.333 -27.333 -68.666 -47.333 -111.999 -60z" />
    <glyph glyph-name="uni1EED" unicode="&#x1eed;" horiz-adv-x="1070" 
d="M490 1405l0.000976562 32.001c0 22.667 24.667 60.667 74 114c11.333 10.667 20.166 22.334 26.499 35.001s9.5 25.667 9.5 39c0 17.333 -2.66699 29.333 -8 36c-3.33301 6 -13.666 9.66699 -30.999 11c-35.333 0 -53 -18.333 -53 -55v-39h-110v47
c0 35.333 13.667 67.333 41 96c31.333 30.667 73.666 46 126.999 46c46 0 83.667 -11.333 113 -34s44 -56.667 44 -102c0 -40.667 -22 -79.334 -66 -116.001c-45.333 -36.667 -68 -73.334 -68 -110.001h-99zM997.001 1153l-0.00195312 -1153h-411l7 110
c-28 -44.667 -62.5 -78.167 -103.5 -100.5s-88.167 -33.5 -141.5 -33.5c-60.667 0 -111 10.667 -151 32s-69.5 49.666 -88.5 84.999s-30.833 72.166 -35.5 110.499s-7 114.5 -7 228.5v895h404v-903c0 -103.333 3.16699 -164.666 9.5 -183.999s23.5 -29 51.5 -29
c30 0 47.833 10 53.5 30s8.5 84.333 8.5 193v893h404v-52c30.667 22 48.334 49.333 53.001 82h-68v222h238l1 -50c0 -76 -6.5 -138.833 -19.5 -188.5s-38.833 -90.834 -77.5 -123.501c-35.333 -30.667 -77.666 -52 -126.999 -64z" />
    <glyph glyph-name="uni1EEE" unicode="&#x1eee;" horiz-adv-x="1120" 
d="M794 1902l54.002 -119.001c-10.667 -12 -23.334 -24.667 -38.001 -38c-7.33301 -6.66699 -18 -15.667 -32 -27c-26 -17.333 -54.333 -26 -85 -26l-37 3l-37 11l-43 19l-73 29l-28 5l-29 1c-21.333 0 -41.333 -7.66699 -60 -23
c-11.333 -9.33301 -23.333 -25.666 -36 -48.999l-40 127c6 10.667 12.667 20.667 20 30c7.33301 8 17.333 17.333 30 28c26.667 17.333 57 26 91 26c7.33301 0 15.666 -0.333008 24.999 -1c10 -2 22.333 -5 37 -9l34 -9l30 -13l64 -25c18.667 -7.33301 36 -11 52 -11
c24 0 47 11 69 33zM1041 1456l-0.00292969 -918.997c0 -122.667 -4 -208.834 -12 -258.501s-31.667 -100.667 -71 -153s-91.166 -92 -155.499 -119s-140.166 -40.5 -227.499 -40.5c-96.667 0 -182 16 -256 48s-129.333 73.667 -166 125s-58.334 105.5 -65.001 162.5
s-10 176.833 -10 359.5v958h421v-1214c0 -70.667 3.83301 -115.834 11.5 -135.501s23.167 -29.5 46.5 -29.5c26.667 0 43.834 10.833 51.501 32.5s11.5 72.834 11.5 153.501v1193h421v-33c21.333 19.333 34 42.666 38 69.999h-68v222h238l1 -50
c0 -76 -6.5 -138.833 -19.5 -188.5s-38.833 -90.834 -77.5 -123.501c-31.333 -27.333 -68.666 -47.333 -111.999 -60z" />
    <glyph glyph-name="uni1EEF" unicode="&#x1eef;" horiz-adv-x="1070" 
d="M747 1619l54.002 -119.001c-10.667 -12 -23.334 -24.667 -38.001 -38c-7.33301 -6.66699 -18 -15.667 -32 -27c-26 -17.333 -54.333 -26 -85 -26l-37 3l-37 11l-43 19l-73 29l-28 5l-29 1c-21.333 0 -41.333 -7.66699 -60 -23
c-11.333 -9.33301 -23.333 -25.666 -36 -48.999l-40 127c6 10.667 12.667 20.667 20 30c7.33301 8 17.333 17.333 30 28c26.667 17.333 57 26 91 26c7.33301 0 15.666 -0.333008 24.999 -1c10 -2 22.333 -5 37 -9l34 -9l30 -13l64 -25c18.667 -7.33301 36 -11 52 -11
c24 0 47 11 69 33zM997.002 1153l-0.00195312 -1153h-411l7 110c-28 -44.667 -62.5 -78.167 -103.5 -100.5s-88.167 -33.5 -141.5 -33.5c-60.667 0 -111 10.667 -151 32s-69.5 49.666 -88.5 84.999s-30.833 72.166 -35.5 110.499s-7 114.5 -7 228.5v895h404v-903
c0 -103.333 3.16699 -164.666 9.5 -183.999s23.5 -29 51.5 -29c30 0 47.833 10 53.5 30s8.5 84.333 8.5 193v893h404v-52c30.667 22 48.334 49.333 53.001 82h-68v222h238l1 -50c0 -76 -6.5 -138.833 -19.5 -188.5s-38.833 -90.834 -77.5 -123.501
c-35.333 -30.667 -77.666 -52 -126.999 -64z" />
    <glyph glyph-name="uni1EF0" unicode="&#x1ef0;" horiz-adv-x="1120" 
d="M672 -123v-214h-224v214h224zM1041 1456l-0.00292969 -918.997c0 -122.667 -4 -208.834 -12 -258.501s-31.667 -100.667 -71 -153s-91.166 -92 -155.499 -119s-140.166 -40.5 -227.499 -40.5c-96.667 0 -182 16 -256 48s-129.333 73.667 -166 125
s-58.334 105.5 -65.001 162.5s-10 176.833 -10 359.5v958h421v-1214c0 -70.667 3.83301 -115.834 11.5 -135.501s23.167 -29.5 46.5 -29.5c26.667 0 43.834 10.833 51.501 32.5s11.5 72.834 11.5 153.501v1193h421v-33c21.333 19.333 34 42.666 38 69.999h-68v222h238l1 -50
c0 -76 -6.5 -138.833 -19.5 -188.5s-38.833 -90.834 -77.5 -123.501c-31.333 -27.333 -68.666 -47.333 -111.999 -60z" />
    <glyph glyph-name="uni1EF1" unicode="&#x1ef1;" horiz-adv-x="1070" 
d="M638 -123v-214h-224v214h224zM997 1153l-0.00195312 -1153h-411l7 110c-28 -44.667 -62.5 -78.167 -103.5 -100.5s-88.167 -33.5 -141.5 -33.5c-60.667 0 -111 10.667 -151 32s-69.5 49.666 -88.5 84.999s-30.833 72.166 -35.5 110.499s-7 114.5 -7 228.5v895h404v-903
c0 -103.333 3.16699 -164.666 9.5 -183.999s23.5 -29 51.5 -29c30 0 47.833 10 53.5 30s8.5 84.333 8.5 193v893h404v-52c30.667 22 48.334 49.333 53.001 82h-68v222h238l1 -50c0 -76 -6.5 -138.833 -19.5 -188.5s-38.833 -90.834 -77.5 -123.501
c-35.333 -30.667 -77.666 -52 -126.999 -64z" />
    <glyph glyph-name="Ygrave" unicode="&#x1ef2;" horiz-adv-x="969" 
d="M981 1619l-307 -1033v-586h-390v586l-296 1033h387c60.667 -315.333 94.667 -527.666 102 -636.999c23.333 172.667 62.333 385 117 637h387zM432 1896l135 -208h-156l-252 208h273z" />
    <glyph glyph-name="ygrave" unicode="&#x1ef3;" horiz-adv-x="918" 
d="M918 1327l-116 -960c-18 -152 -33.167 -255.667 -45.5 -311s-32.833 -101 -61.5 -137s-68.5 -62.5 -119.5 -79.5s-132.5 -25.5 -244.5 -25.5h-245v212c62.667 0 103 3.16699 121 9.5s27 20.5 27 42.5c0 10.667 -8.33301 57 -25 139l-221 1110h367l132 -895l64 895h367z
M413 1645l135 -208h-156l-252 208h273z" />
    <glyph glyph-name="uni1EF4" unicode="&#x1ef4;" horiz-adv-x="969" 
d="M981 1619l-307 -1033v-586h-390v586l-296 1033h387c60.667 -315.333 94.667 -527.666 102 -636.999c23.333 172.667 62.333 385 117 637h387zM583 -123.001v-214h-224v214h224z" />
    <glyph glyph-name="uni1EF5" unicode="&#x1ef5;" horiz-adv-x="918" 
d="M918 1327l-116 -960c-18 -152 -33.167 -255.667 -45.5 -311s-32.833 -101 -61.5 -137s-68.5 -62.5 -119.5 -79.5s-132.5 -25.5 -244.5 -25.5h-245v212c62.667 0 103 3.16699 121 9.5s27 20.5 27 42.5c0 10.667 -8.33301 57 -25 139l-221 1110h367l132 -895l64 895h367z
M566 -242v-214h-224v214h224z" />
    <glyph glyph-name="uni1EF6" unicode="&#x1ef6;" horiz-adv-x="969" 
d="M981 1619l-307 -1033v-586h-390v586l-296 1033h387c60.667 -315.333 94.667 -527.666 102 -636.999c23.333 172.667 62.333 385 117 637h387zM440 1688l-0.000976562 32.001c0 22.667 24.667 60.667 74 114c11.333 10.667 20 22.334 26 35.001s9 25.667 9 39
c0 17.333 -2.33301 29.333 -7 36c-3.33301 6 -13.666 9.66699 -30.999 11c-35.333 0 -53 -18.333 -53 -55v-39h-110v47c0 35.333 13.667 67.333 41 96c30.667 30.667 73 46 127 46c46 0 83.667 -11.333 113 -34s44 -56.667 44 -102c0 -40.667 -22.333 -79.334 -67 -116.001
c-45.333 -36.667 -68 -73.334 -68 -110.001h-98z" />
    <glyph glyph-name="uni1EF7" unicode="&#x1ef7;" horiz-adv-x="918" 
d="M918 1327l-116 -960c-18 -152 -33.167 -255.667 -45.5 -311s-32.833 -101 -61.5 -137s-68.5 -62.5 -119.5 -79.5s-132.5 -25.5 -244.5 -25.5h-245v212c62.667 0 103 3.16699 121 9.5s27 20.5 27 42.5c0 10.667 -8.33301 57 -25 139l-221 1110h367l132 -895l64 895h367z
M411 1405l0.000976562 32.001c0 22.667 24.667 60.667 74 114c11.333 10.667 20.166 22.334 26.499 35.001s9.5 25.667 9.5 39c0 17.333 -2.66699 29.333 -8 36c-3.33301 6 -13.666 9.66699 -30.999 11c-35.333 0 -53 -18.333 -53 -55v-39h-110v47
c0 35.333 13.667 67.333 41 96c31.333 30.667 73.666 46 126.999 46c46 0 83.667 -11.333 113 -34s44 -56.667 44 -102c0 -40.667 -22 -79.334 -66 -116.001c-45.333 -36.667 -68 -73.334 -68 -110.001h-99z" />
    <glyph glyph-name="uni1EF8" unicode="&#x1ef8;" horiz-adv-x="969" 
d="M981 1619l-307 -1033v-586h-390v586l-296 1033h387c60.667 -315.333 94.667 -527.666 102 -636.999c23.333 172.667 62.333 385 117 637h387zM735 1902l54.002 -119.001c-10.667 -12 -23.334 -24.667 -38.001 -38c-7.33301 -6.66699 -18 -15.667 -32 -27
c-26 -17.333 -54.333 -26 -85 -26l-37 3l-37 11l-43 19l-73 29l-28 5l-29 1c-21.333 0 -41.333 -7.66699 -60 -23c-11.333 -9.33301 -23.333 -25.666 -36 -48.999l-40 127c6 10.667 12.667 20.667 20 30c7.33301 8 17.333 17.333 30 28c26.667 17.333 57 26 91 26
c7.33301 0 15.666 -0.333008 24.999 -1c10 -2 22.333 -5 37 -9l34 -9l30 -13l64 -25c18.667 -7.33301 36 -11 52 -11c24 0 47 11 69 33z" />
    <glyph glyph-name="uni1EF9" unicode="&#x1ef9;" horiz-adv-x="918" 
d="M918 1327l-116 -960c-18 -152 -33.167 -255.667 -45.5 -311s-32.833 -101 -61.5 -137s-68.5 -62.5 -119.5 -79.5s-132.5 -25.5 -244.5 -25.5h-245v212c62.667 0 103 3.16699 121 9.5s27 20.5 27 42.5c0 10.667 -8.33301 57 -25 139l-221 1110h367l132 -895l64 895h367z
M688 1619l54.002 -119.001c-10.667 -12 -23.334 -24.667 -38.001 -38c-7.33301 -6.66699 -18 -15.667 -32 -27c-26 -17.333 -54.333 -26 -85 -26l-37 3l-37 11l-43 19l-73 29l-28 5l-29 1c-21.333 0 -41.333 -7.66699 -60 -23c-11.333 -9.33301 -23.333 -25.666 -36 -48.999
l-40 127c6 10.667 12.667 20.667 20 30c7.33301 8 17.333 17.333 30 28c26.667 17.333 57 26 91 26c7.33301 0 15.666 -0.333008 24.999 -1c10 -2 22.333 -5 37 -9l34 -9l30 -13l64 -25c18.667 -7.33301 36 -11 52 -11c24 0 47 11 69 33z" />
    <glyph glyph-name="quoteleft" unicode="&#x2018;" horiz-adv-x="344" 
d="M36 1095l0.000976562 145c0 76 9.16699 138.333 27.5 187s49.666 90 93.999 124s94.166 56.667 149.499 68v-116c-39.333 -22.667 -61.666 -53 -66.999 -91h67v-317h-271z" />
    <glyph glyph-name="quoteright" unicode="&#x2019;" horiz-adv-x="344" 
d="M307 1619v-145c0 -75.333 -9 -137.5 -27 -186.5s-49.167 -90.333 -93.5 -124s-94.5 -56.5 -150.5 -68.5v117c40 22 62.667 52 68 90h-68v317h271z" />
    <glyph glyph-name="quotedblleft" unicode="&#x201c;" horiz-adv-x="706" 
d="M398 1095l-0.000976562 145c0 76 9.16699 138.333 27.5 187s49.5 90 93.5 124s94 56.667 150 68v-116c-39.333 -22.667 -61.666 -53 -66.999 -91h67v-317h-271zM35.999 1095l0.000976562 145c0 76 9.16699 138.333 27.5 187s49.666 90 93.999 124
s94.166 56.667 149.499 68v-116c-39.333 -22.667 -61.666 -53 -66.999 -91h67v-317h-271z" />
    <glyph glyph-name="quotedblright" unicode="&#x201d;" horiz-adv-x="706" 
d="M669 1619l0.000976562 -145c0 -75.333 -9 -137.5 -27 -186.5s-49.167 -90.333 -93.5 -124s-94.5 -56.5 -150.5 -68.5v117c39.333 22 61.666 52 66.999 90h-67v317h271zM307.001 1619v-145c0 -75.333 -9 -137.5 -27 -186.5s-49.167 -90.333 -93.5 -124
s-94.5 -56.5 -150.5 -68.5v117c40 22 62.667 52 68 90h-68v317h271z" />
    <glyph glyph-name="ellipsis" unicode="&#x2026;" horiz-adv-x="1133" 
d="M341 330v-330h-305v330h305zM1097 330v-330h-305v330h305zM719 330v-330h-305v330h305z" />
    <glyph glyph-name=".null" horiz-adv-x="0" 
 />
    <glyph glyph-name="nonmarkingreturn" horiz-adv-x="571" 
 />
    <glyph glyph-name="ugrave" horiz-adv-x="582" 
 />
    <glyph glyph-name="uacute" horiz-adv-x="580" 
 />
    <glyph glyph-name="yacute" horiz-adv-x="629" 
 />
    </font>
</defs>
</svg>
